<mxfile host="Electron" modified="2023-12-03T14:56:29.758Z" agent="Mozilla/5.0 (Windows NT 10.0; Win64; x64) AppleWebKit/537.36 (KHTML, like Gecko) draw.io/21.2.1 Chrome/112.0.5615.87 Electron/24.1.2 Safari/537.36" etag="xSXc_oFs2HpNmL90EF6E" version="21.2.1" type="device">
  <diagram name="페이지-1" id="OqTDUlDy9T-EiEl6ZFDL">
    <mxGraphModel dx="921" dy="456" grid="1" gridSize="10" guides="1" tooltips="1" connect="1" arrows="1" fold="1" page="1" pageScale="1" pageWidth="827" pageHeight="1169" math="0" shadow="0">
      <root>
        <mxCell id="0" />
        <mxCell id="1" parent="0" />
        <mxCell id="ERFSE9Pxs8hPmbzX2arz-2" value="Config" style="whiteSpace=wrap;html=1;align=center;" parent="1" vertex="1">
          <mxGeometry x="790" y="610" width="100" height="40" as="geometry" />
        </mxCell>
        <mxCell id="ERFSE9Pxs8hPmbzX2arz-12" style="rounded=0;orthogonalLoop=1;jettySize=auto;html=1;exitX=0.5;exitY=1;exitDx=0;exitDy=0;entryX=0.5;entryY=0;entryDx=0;entryDy=0;endArrow=none;endFill=0;" parent="1" source="ERFSE9Pxs8hPmbzX2arz-3" target="ERFSE9Pxs8hPmbzX2arz-2" edge="1">
          <mxGeometry relative="1" as="geometry" />
        </mxCell>
        <mxCell id="ERFSE9Pxs8hPmbzX2arz-3" value="&lt;u&gt;uid&lt;/u&gt;" style="ellipse;whiteSpace=wrap;html=1;align=center;" parent="1" vertex="1">
          <mxGeometry x="550" y="505" width="70" height="25" as="geometry" />
        </mxCell>
        <mxCell id="ERFSE9Pxs8hPmbzX2arz-4" value="group_name" style="ellipse;whiteSpace=wrap;html=1;align=center;" parent="1" vertex="1">
          <mxGeometry x="630" y="505" width="100" height="25" as="geometry" />
        </mxCell>
        <mxCell id="ERFSE9Pxs8hPmbzX2arz-5" value="item_name" style="ellipse;whiteSpace=wrap;html=1;align=center;" parent="1" vertex="1">
          <mxGeometry x="740" y="505" width="100" height="25" as="geometry" />
        </mxCell>
        <mxCell id="ERFSE9Pxs8hPmbzX2arz-6" value="value" style="ellipse;whiteSpace=wrap;html=1;align=center;" parent="1" vertex="1">
          <mxGeometry x="850" y="505" width="50" height="25" as="geometry" />
        </mxCell>
        <mxCell id="ERFSE9Pxs8hPmbzX2arz-7" value="created_date" style="ellipse;whiteSpace=wrap;html=1;align=center;" parent="1" vertex="1">
          <mxGeometry x="920" y="505" width="100" height="25" as="geometry" />
        </mxCell>
        <mxCell id="ERFSE9Pxs8hPmbzX2arz-8" value="updated_date" style="ellipse;whiteSpace=wrap;html=1;align=center;" parent="1" vertex="1">
          <mxGeometry x="1030" y="505" width="100" height="25" as="geometry" />
        </mxCell>
        <mxCell id="ERFSE9Pxs8hPmbzX2arz-14" style="rounded=0;orthogonalLoop=1;jettySize=auto;html=1;exitX=0.5;exitY=1;exitDx=0;exitDy=0;endArrow=none;endFill=0;" parent="1" source="ERFSE9Pxs8hPmbzX2arz-4" edge="1">
          <mxGeometry relative="1" as="geometry">
            <mxPoint x="575" y="540" as="sourcePoint" />
            <mxPoint x="840" y="610" as="targetPoint" />
          </mxGeometry>
        </mxCell>
        <mxCell id="ERFSE9Pxs8hPmbzX2arz-15" style="rounded=0;orthogonalLoop=1;jettySize=auto;html=1;exitX=0.5;exitY=1;exitDx=0;exitDy=0;entryX=0.5;entryY=0;entryDx=0;entryDy=0;endArrow=none;endFill=0;" parent="1" source="ERFSE9Pxs8hPmbzX2arz-5" target="ERFSE9Pxs8hPmbzX2arz-2" edge="1">
          <mxGeometry relative="1" as="geometry">
            <mxPoint x="585" y="550" as="sourcePoint" />
            <mxPoint x="860" y="630" as="targetPoint" />
          </mxGeometry>
        </mxCell>
        <mxCell id="ERFSE9Pxs8hPmbzX2arz-16" style="rounded=0;orthogonalLoop=1;jettySize=auto;html=1;exitX=0.5;exitY=1;exitDx=0;exitDy=0;entryX=0.5;entryY=0;entryDx=0;entryDy=0;endArrow=none;endFill=0;" parent="1" source="ERFSE9Pxs8hPmbzX2arz-6" target="ERFSE9Pxs8hPmbzX2arz-2" edge="1">
          <mxGeometry relative="1" as="geometry">
            <mxPoint x="595" y="560" as="sourcePoint" />
            <mxPoint x="870" y="640" as="targetPoint" />
          </mxGeometry>
        </mxCell>
        <mxCell id="ERFSE9Pxs8hPmbzX2arz-17" style="rounded=0;orthogonalLoop=1;jettySize=auto;html=1;exitX=0.5;exitY=1;exitDx=0;exitDy=0;entryX=0.5;entryY=0;entryDx=0;entryDy=0;endArrow=none;endFill=0;" parent="1" source="ERFSE9Pxs8hPmbzX2arz-7" target="ERFSE9Pxs8hPmbzX2arz-2" edge="1">
          <mxGeometry relative="1" as="geometry">
            <mxPoint x="605" y="570" as="sourcePoint" />
            <mxPoint x="880" y="650" as="targetPoint" />
          </mxGeometry>
        </mxCell>
        <mxCell id="ERFSE9Pxs8hPmbzX2arz-18" style="rounded=0;orthogonalLoop=1;jettySize=auto;html=1;exitX=0.5;exitY=1;exitDx=0;exitDy=0;entryX=0.5;entryY=0;entryDx=0;entryDy=0;endArrow=none;endFill=0;" parent="1" source="ERFSE9Pxs8hPmbzX2arz-8" target="ERFSE9Pxs8hPmbzX2arz-2" edge="1">
          <mxGeometry relative="1" as="geometry">
            <mxPoint x="615" y="580" as="sourcePoint" />
            <mxPoint x="890" y="660" as="targetPoint" />
          </mxGeometry>
        </mxCell>
        <mxCell id="ERFSE9Pxs8hPmbzX2arz-19" value="FAQ" style="whiteSpace=wrap;html=1;align=center;" parent="1" vertex="1">
          <mxGeometry x="340" y="610" width="100" height="40" as="geometry" />
        </mxCell>
        <mxCell id="ERFSE9Pxs8hPmbzX2arz-20" style="rounded=0;orthogonalLoop=1;jettySize=auto;html=1;exitX=0.5;exitY=1;exitDx=0;exitDy=0;entryX=0.5;entryY=0;entryDx=0;entryDy=0;endArrow=none;endFill=0;" parent="1" source="ERFSE9Pxs8hPmbzX2arz-21" target="ERFSE9Pxs8hPmbzX2arz-19" edge="1">
          <mxGeometry relative="1" as="geometry" />
        </mxCell>
        <mxCell id="ERFSE9Pxs8hPmbzX2arz-21" value="&lt;u&gt;uid&lt;/u&gt;" style="ellipse;whiteSpace=wrap;html=1;align=center;" parent="1" vertex="1">
          <mxGeometry x="240" y="512" width="70" height="25" as="geometry" />
        </mxCell>
        <mxCell id="ERFSE9Pxs8hPmbzX2arz-22" value="faq_name" style="ellipse;whiteSpace=wrap;html=1;align=center;" parent="1" vertex="1">
          <mxGeometry x="320" y="512" width="100" height="25" as="geometry" />
        </mxCell>
        <mxCell id="ERFSE9Pxs8hPmbzX2arz-25" value="created_date" style="ellipse;whiteSpace=wrap;html=1;align=center;" parent="1" vertex="1">
          <mxGeometry x="430" y="512" width="100" height="25" as="geometry" />
        </mxCell>
        <mxCell id="ERFSE9Pxs8hPmbzX2arz-27" style="rounded=0;orthogonalLoop=1;jettySize=auto;html=1;exitX=0.5;exitY=1;exitDx=0;exitDy=0;endArrow=none;endFill=0;entryX=0.5;entryY=0;entryDx=0;entryDy=0;" parent="1" source="ERFSE9Pxs8hPmbzX2arz-22" target="ERFSE9Pxs8hPmbzX2arz-19" edge="1">
          <mxGeometry relative="1" as="geometry">
            <mxPoint x="105" y="547" as="sourcePoint" />
            <mxPoint x="370" y="617" as="targetPoint" />
          </mxGeometry>
        </mxCell>
        <mxCell id="ERFSE9Pxs8hPmbzX2arz-30" style="rounded=0;orthogonalLoop=1;jettySize=auto;html=1;exitX=0.5;exitY=1;exitDx=0;exitDy=0;entryX=0.5;entryY=0;entryDx=0;entryDy=0;endArrow=none;endFill=0;" parent="1" source="ERFSE9Pxs8hPmbzX2arz-25" target="ERFSE9Pxs8hPmbzX2arz-19" edge="1">
          <mxGeometry relative="1" as="geometry">
            <mxPoint x="135" y="577" as="sourcePoint" />
            <mxPoint x="410" y="657" as="targetPoint" />
          </mxGeometry>
        </mxCell>
        <mxCell id="ERFSE9Pxs8hPmbzX2arz-32" value="FAQ_Article" style="whiteSpace=wrap;html=1;align=center;" parent="1" vertex="1">
          <mxGeometry x="340" y="840" width="100" height="40" as="geometry" />
        </mxCell>
        <mxCell id="ERFSE9Pxs8hPmbzX2arz-33" style="rounded=0;orthogonalLoop=1;jettySize=auto;html=1;exitX=0.5;exitY=0;exitDx=0;exitDy=0;entryX=0.5;entryY=1;entryDx=0;entryDy=0;endArrow=none;endFill=0;" parent="1" source="ERFSE9Pxs8hPmbzX2arz-34" target="ERFSE9Pxs8hPmbzX2arz-32" edge="1">
          <mxGeometry relative="1" as="geometry" />
        </mxCell>
        <mxCell id="ERFSE9Pxs8hPmbzX2arz-34" value="&lt;u&gt;uid&lt;/u&gt;" style="ellipse;whiteSpace=wrap;html=1;align=center;" parent="1" vertex="1">
          <mxGeometry x="220" y="940" width="70" height="25" as="geometry" />
        </mxCell>
        <mxCell id="ERFSE9Pxs8hPmbzX2arz-36" value="title" style="ellipse;whiteSpace=wrap;html=1;align=center;" parent="1" vertex="1">
          <mxGeometry x="300" y="940" width="100" height="25" as="geometry" />
        </mxCell>
        <mxCell id="ERFSE9Pxs8hPmbzX2arz-37" value="content" style="ellipse;whiteSpace=wrap;html=1;align=center;" parent="1" vertex="1">
          <mxGeometry x="410" y="940" width="60" height="25" as="geometry" />
        </mxCell>
        <mxCell id="ERFSE9Pxs8hPmbzX2arz-38" value="created_date" style="ellipse;whiteSpace=wrap;html=1;align=center;" parent="1" vertex="1">
          <mxGeometry x="480" y="940" width="100" height="25" as="geometry" />
        </mxCell>
        <mxCell id="ERFSE9Pxs8hPmbzX2arz-41" style="rounded=0;orthogonalLoop=1;jettySize=auto;html=1;exitX=0.5;exitY=0;exitDx=0;exitDy=0;entryX=0.5;entryY=1;entryDx=0;entryDy=0;endArrow=none;endFill=0;" parent="1" source="ERFSE9Pxs8hPmbzX2arz-36" target="ERFSE9Pxs8hPmbzX2arz-32" edge="1">
          <mxGeometry relative="1" as="geometry">
            <mxPoint x="145" y="985" as="sourcePoint" />
            <mxPoint x="420" y="1065" as="targetPoint" />
          </mxGeometry>
        </mxCell>
        <mxCell id="ERFSE9Pxs8hPmbzX2arz-42" style="rounded=0;orthogonalLoop=1;jettySize=auto;html=1;exitX=0.5;exitY=0;exitDx=0;exitDy=0;entryX=0.5;entryY=1;entryDx=0;entryDy=0;endArrow=none;endFill=0;" parent="1" source="ERFSE9Pxs8hPmbzX2arz-37" target="ERFSE9Pxs8hPmbzX2arz-32" edge="1">
          <mxGeometry relative="1" as="geometry">
            <mxPoint x="155" y="995" as="sourcePoint" />
            <mxPoint x="430" y="1075" as="targetPoint" />
          </mxGeometry>
        </mxCell>
        <mxCell id="ERFSE9Pxs8hPmbzX2arz-43" style="rounded=0;orthogonalLoop=1;jettySize=auto;html=1;exitX=0.5;exitY=0;exitDx=0;exitDy=0;entryX=0.5;entryY=1;entryDx=0;entryDy=0;endArrow=none;endFill=0;" parent="1" source="ERFSE9Pxs8hPmbzX2arz-38" target="ERFSE9Pxs8hPmbzX2arz-32" edge="1">
          <mxGeometry relative="1" as="geometry">
            <mxPoint x="165" y="1005" as="sourcePoint" />
            <mxPoint x="440" y="1085" as="targetPoint" />
          </mxGeometry>
        </mxCell>
        <mxCell id="ERFSE9Pxs8hPmbzX2arz-66" value="Board" style="whiteSpace=wrap;html=1;align=center;" parent="1" vertex="1">
          <mxGeometry x="1001" y="800" width="100" height="40" as="geometry" />
        </mxCell>
        <mxCell id="ERFSE9Pxs8hPmbzX2arz-67" style="rounded=0;orthogonalLoop=1;jettySize=auto;html=1;exitX=0.5;exitY=1;exitDx=0;exitDy=0;entryX=0.5;entryY=0;entryDx=0;entryDy=0;endArrow=none;endFill=0;" parent="1" source="ERFSE9Pxs8hPmbzX2arz-68" target="ERFSE9Pxs8hPmbzX2arz-66" edge="1">
          <mxGeometry relative="1" as="geometry" />
        </mxCell>
        <mxCell id="ERFSE9Pxs8hPmbzX2arz-68" value="&lt;u&gt;uid&lt;/u&gt;" style="ellipse;whiteSpace=wrap;html=1;align=center;" parent="1" vertex="1">
          <mxGeometry x="741" y="705" width="70" height="25" as="geometry" />
        </mxCell>
        <mxCell id="ERFSE9Pxs8hPmbzX2arz-69" value="board_name" style="ellipse;whiteSpace=wrap;html=1;align=center;" parent="1" vertex="1">
          <mxGeometry x="821" y="705" width="100" height="25" as="geometry" />
        </mxCell>
        <mxCell id="ERFSE9Pxs8hPmbzX2arz-70" value="created_date" style="ellipse;whiteSpace=wrap;html=1;align=center;" parent="1" vertex="1">
          <mxGeometry x="1151" y="705" width="100" height="25" as="geometry" />
        </mxCell>
        <mxCell id="ERFSE9Pxs8hPmbzX2arz-71" style="rounded=0;orthogonalLoop=1;jettySize=auto;html=1;exitX=0.5;exitY=1;exitDx=0;exitDy=0;endArrow=none;endFill=0;entryX=0.5;entryY=0;entryDx=0;entryDy=0;" parent="1" source="ERFSE9Pxs8hPmbzX2arz-69" target="ERFSE9Pxs8hPmbzX2arz-66" edge="1">
          <mxGeometry relative="1" as="geometry">
            <mxPoint x="606" y="740" as="sourcePoint" />
            <mxPoint x="871" y="810" as="targetPoint" />
          </mxGeometry>
        </mxCell>
        <mxCell id="ERFSE9Pxs8hPmbzX2arz-72" style="rounded=0;orthogonalLoop=1;jettySize=auto;html=1;exitX=0.5;exitY=1;exitDx=0;exitDy=0;entryX=0.5;entryY=0;entryDx=0;entryDy=0;endArrow=none;endFill=0;" parent="1" source="ERFSE9Pxs8hPmbzX2arz-70" target="ERFSE9Pxs8hPmbzX2arz-66" edge="1">
          <mxGeometry relative="1" as="geometry">
            <mxPoint x="636" y="770" as="sourcePoint" />
            <mxPoint x="911" y="850" as="targetPoint" />
          </mxGeometry>
        </mxCell>
        <mxCell id="ERFSE9Pxs8hPmbzX2arz-73" value="Board_Article" style="whiteSpace=wrap;html=1;align=center;" parent="1" vertex="1">
          <mxGeometry x="1001" y="978" width="100" height="40" as="geometry" />
        </mxCell>
        <mxCell id="ERFSE9Pxs8hPmbzX2arz-74" style="rounded=0;orthogonalLoop=1;jettySize=auto;html=1;exitX=0.5;exitY=0;exitDx=0;exitDy=0;entryX=0.5;entryY=1;entryDx=0;entryDy=0;endArrow=none;endFill=0;" parent="1" source="ERFSE9Pxs8hPmbzX2arz-75" target="ERFSE9Pxs8hPmbzX2arz-73" edge="1">
          <mxGeometry relative="1" as="geometry" />
        </mxCell>
        <mxCell id="ERFSE9Pxs8hPmbzX2arz-75" value="&lt;u&gt;uid&lt;/u&gt;" style="ellipse;whiteSpace=wrap;html=1;align=center;" parent="1" vertex="1">
          <mxGeometry x="830" y="1070" width="70" height="25" as="geometry" />
        </mxCell>
        <mxCell id="ERFSE9Pxs8hPmbzX2arz-76" value="title" style="ellipse;whiteSpace=wrap;html=1;align=center;" parent="1" vertex="1">
          <mxGeometry x="880" y="1095" width="100" height="25" as="geometry" />
        </mxCell>
        <mxCell id="ERFSE9Pxs8hPmbzX2arz-77" value="content" style="ellipse;whiteSpace=wrap;html=1;align=center;" parent="1" vertex="1">
          <mxGeometry x="970" y="1070" width="60" height="25" as="geometry" />
        </mxCell>
        <mxCell id="ERFSE9Pxs8hPmbzX2arz-78" value="created_date" style="ellipse;whiteSpace=wrap;html=1;align=center;" parent="1" vertex="1">
          <mxGeometry x="990" y="1100" width="100" height="25" as="geometry" />
        </mxCell>
        <mxCell id="ERFSE9Pxs8hPmbzX2arz-79" style="rounded=0;orthogonalLoop=1;jettySize=auto;html=1;exitX=0.5;exitY=0;exitDx=0;exitDy=0;entryX=0.5;entryY=1;entryDx=0;entryDy=0;endArrow=none;endFill=0;" parent="1" source="ERFSE9Pxs8hPmbzX2arz-76" target="ERFSE9Pxs8hPmbzX2arz-73" edge="1">
          <mxGeometry relative="1" as="geometry">
            <mxPoint x="806" y="1123" as="sourcePoint" />
            <mxPoint x="1081" y="1203" as="targetPoint" />
          </mxGeometry>
        </mxCell>
        <mxCell id="ERFSE9Pxs8hPmbzX2arz-80" style="rounded=0;orthogonalLoop=1;jettySize=auto;html=1;exitX=0.5;exitY=0;exitDx=0;exitDy=0;entryX=0.5;entryY=1;entryDx=0;entryDy=0;endArrow=none;endFill=0;" parent="1" source="ERFSE9Pxs8hPmbzX2arz-77" target="ERFSE9Pxs8hPmbzX2arz-73" edge="1">
          <mxGeometry relative="1" as="geometry">
            <mxPoint x="816" y="1133" as="sourcePoint" />
            <mxPoint x="1091" y="1213" as="targetPoint" />
          </mxGeometry>
        </mxCell>
        <mxCell id="ERFSE9Pxs8hPmbzX2arz-81" style="rounded=0;orthogonalLoop=1;jettySize=auto;html=1;exitX=0.5;exitY=0;exitDx=0;exitDy=0;entryX=0.5;entryY=1;entryDx=0;entryDy=0;endArrow=none;endFill=0;" parent="1" source="ERFSE9Pxs8hPmbzX2arz-78" target="ERFSE9Pxs8hPmbzX2arz-73" edge="1">
          <mxGeometry relative="1" as="geometry">
            <mxPoint x="826" y="1143" as="sourcePoint" />
            <mxPoint x="1101" y="1223" as="targetPoint" />
          </mxGeometry>
        </mxCell>
        <mxCell id="ERFSE9Pxs8hPmbzX2arz-83" value="read_level" style="ellipse;whiteSpace=wrap;html=1;align=center;" parent="1" vertex="1">
          <mxGeometry x="931" y="705" width="100" height="25" as="geometry" />
        </mxCell>
        <mxCell id="ERFSE9Pxs8hPmbzX2arz-84" style="rounded=0;orthogonalLoop=1;jettySize=auto;html=1;exitX=0.5;exitY=1;exitDx=0;exitDy=0;endArrow=none;endFill=0;entryX=0.5;entryY=0;entryDx=0;entryDy=0;" parent="1" source="ERFSE9Pxs8hPmbzX2arz-83" target="ERFSE9Pxs8hPmbzX2arz-66" edge="1">
          <mxGeometry relative="1" as="geometry">
            <mxPoint x="716" y="740" as="sourcePoint" />
            <mxPoint x="1001" y="803" as="targetPoint" />
          </mxGeometry>
        </mxCell>
        <mxCell id="ERFSE9Pxs8hPmbzX2arz-87" value="write_level" style="ellipse;whiteSpace=wrap;html=1;align=center;" parent="1" vertex="1">
          <mxGeometry x="1041" y="705" width="100" height="25" as="geometry" />
        </mxCell>
        <mxCell id="ERFSE9Pxs8hPmbzX2arz-88" style="rounded=0;orthogonalLoop=1;jettySize=auto;html=1;exitX=0.5;exitY=1;exitDx=0;exitDy=0;endArrow=none;endFill=0;entryX=0.5;entryY=0;entryDx=0;entryDy=0;" parent="1" source="ERFSE9Pxs8hPmbzX2arz-87" target="ERFSE9Pxs8hPmbzX2arz-66" edge="1">
          <mxGeometry relative="1" as="geometry">
            <mxPoint x="991" y="740" as="sourcePoint" />
            <mxPoint x="901" y="813" as="targetPoint" />
          </mxGeometry>
        </mxCell>
        <mxCell id="ERFSE9Pxs8hPmbzX2arz-89" value="updated_date" style="ellipse;whiteSpace=wrap;html=1;align=center;" parent="1" vertex="1">
          <mxGeometry x="1261" y="705" width="100" height="25" as="geometry" />
        </mxCell>
        <mxCell id="ERFSE9Pxs8hPmbzX2arz-90" style="rounded=0;orthogonalLoop=1;jettySize=auto;html=1;exitX=0.5;exitY=1;exitDx=0;exitDy=0;entryX=0.5;entryY=0;entryDx=0;entryDy=0;endArrow=none;endFill=0;" parent="1" source="ERFSE9Pxs8hPmbzX2arz-89" target="ERFSE9Pxs8hPmbzX2arz-66" edge="1">
          <mxGeometry relative="1" as="geometry">
            <mxPoint x="1211" y="740" as="sourcePoint" />
            <mxPoint x="901" y="813" as="targetPoint" />
          </mxGeometry>
        </mxCell>
        <mxCell id="ERFSE9Pxs8hPmbzX2arz-91" value="updated_date" style="ellipse;whiteSpace=wrap;html=1;align=center;" parent="1" vertex="1">
          <mxGeometry x="1050" y="1070" width="100" height="25" as="geometry" />
        </mxCell>
        <mxCell id="ERFSE9Pxs8hPmbzX2arz-92" style="rounded=0;orthogonalLoop=1;jettySize=auto;html=1;exitX=0.5;exitY=0;exitDx=0;exitDy=0;entryX=0.5;entryY=1;entryDx=0;entryDy=0;endArrow=none;endFill=0;" parent="1" source="ERFSE9Pxs8hPmbzX2arz-91" target="ERFSE9Pxs8hPmbzX2arz-73" edge="1">
          <mxGeometry relative="1" as="geometry">
            <mxPoint x="1201" y="1088" as="sourcePoint" />
            <mxPoint x="1061" y="1028" as="targetPoint" />
          </mxGeometry>
        </mxCell>
        <mxCell id="ERFSE9Pxs8hPmbzX2arz-93" value="Attachments" style="whiteSpace=wrap;html=1;align=center;" parent="1" vertex="1">
          <mxGeometry x="1500" y="978" width="100" height="40" as="geometry" />
        </mxCell>
        <mxCell id="ERFSE9Pxs8hPmbzX2arz-99" value="&lt;u&gt;uid&lt;/u&gt;" style="ellipse;whiteSpace=wrap;html=1;align=center;" parent="1" vertex="1">
          <mxGeometry x="1420" y="1035" width="70" height="25" as="geometry" />
        </mxCell>
        <mxCell id="ERFSE9Pxs8hPmbzX2arz-101" value="filename" style="ellipse;whiteSpace=wrap;html=1;align=center;" parent="1" vertex="1">
          <mxGeometry x="1520" y="1045" width="60" height="25" as="geometry" />
        </mxCell>
        <mxCell id="ERFSE9Pxs8hPmbzX2arz-110" style="edgeStyle=none;rounded=0;orthogonalLoop=1;jettySize=auto;html=1;exitX=0.5;exitY=0;exitDx=0;exitDy=0;entryX=0.5;entryY=1;entryDx=0;entryDy=0;endArrow=none;endFill=0;" parent="1" source="ERFSE9Pxs8hPmbzX2arz-102" target="ERFSE9Pxs8hPmbzX2arz-93" edge="1">
          <mxGeometry relative="1" as="geometry" />
        </mxCell>
        <mxCell id="ERFSE9Pxs8hPmbzX2arz-102" value="created_date" style="ellipse;whiteSpace=wrap;html=1;align=center;" parent="1" vertex="1">
          <mxGeometry x="1610" y="1045" width="100" height="25" as="geometry" />
        </mxCell>
        <mxCell id="ERFSE9Pxs8hPmbzX2arz-104" value="loc" style="ellipse;whiteSpace=wrap;html=1;align=center;" parent="1" vertex="1">
          <mxGeometry x="1570" y="1070" width="60" height="25" as="geometry" />
        </mxCell>
        <mxCell id="ERFSE9Pxs8hPmbzX2arz-105" style="rounded=0;orthogonalLoop=1;jettySize=auto;html=1;exitX=0.5;exitY=0;exitDx=0;exitDy=0;entryX=0.5;entryY=1;entryDx=0;entryDy=0;endArrow=none;endFill=0;" parent="1" source="ERFSE9Pxs8hPmbzX2arz-99" target="ERFSE9Pxs8hPmbzX2arz-93" edge="1">
          <mxGeometry relative="1" as="geometry">
            <mxPoint x="1259" y="1098" as="sourcePoint" />
            <mxPoint x="1061" y="1046" as="targetPoint" />
          </mxGeometry>
        </mxCell>
        <mxCell id="ERFSE9Pxs8hPmbzX2arz-108" style="rounded=0;orthogonalLoop=1;jettySize=auto;html=1;exitX=0.5;exitY=0;exitDx=0;exitDy=0;entryX=0.5;entryY=1;entryDx=0;entryDy=0;endArrow=none;endFill=0;" parent="1" source="ERFSE9Pxs8hPmbzX2arz-101" target="ERFSE9Pxs8hPmbzX2arz-93" edge="1">
          <mxGeometry relative="1" as="geometry">
            <mxPoint x="1385" y="1098" as="sourcePoint" />
            <mxPoint x="1570" y="1038" as="targetPoint" />
          </mxGeometry>
        </mxCell>
        <mxCell id="ERFSE9Pxs8hPmbzX2arz-109" style="rounded=0;orthogonalLoop=1;jettySize=auto;html=1;exitX=0.5;exitY=0;exitDx=0;exitDy=0;entryX=0.5;entryY=1;entryDx=0;entryDy=0;endArrow=none;endFill=0;" parent="1" source="ERFSE9Pxs8hPmbzX2arz-104" target="ERFSE9Pxs8hPmbzX2arz-93" edge="1">
          <mxGeometry relative="1" as="geometry">
            <mxPoint x="1395" y="1108" as="sourcePoint" />
            <mxPoint x="1580" y="1048" as="targetPoint" />
          </mxGeometry>
        </mxCell>
        <mxCell id="ERFSE9Pxs8hPmbzX2arz-112" value="Board_comment" style="whiteSpace=wrap;html=1;align=center;" parent="1" vertex="1">
          <mxGeometry x="1483" y="840" width="100" height="40" as="geometry" />
        </mxCell>
        <mxCell id="ERFSE9Pxs8hPmbzX2arz-113" value="&lt;u&gt;uid&lt;/u&gt;" style="ellipse;whiteSpace=wrap;html=1;align=center;" parent="1" vertex="1">
          <mxGeometry x="1343" y="932" width="70" height="25" as="geometry" />
        </mxCell>
        <mxCell id="ERFSE9Pxs8hPmbzX2arz-114" value="content" style="ellipse;whiteSpace=wrap;html=1;align=center;" parent="1" vertex="1">
          <mxGeometry x="1423" y="932" width="100" height="25" as="geometry" />
        </mxCell>
        <mxCell id="ERFSE9Pxs8hPmbzX2arz-116" style="edgeStyle=none;rounded=0;orthogonalLoop=1;jettySize=auto;html=1;exitX=0.5;exitY=0;exitDx=0;exitDy=0;entryX=0.5;entryY=1;entryDx=0;entryDy=0;endArrow=none;endFill=0;" parent="1" source="ERFSE9Pxs8hPmbzX2arz-117" target="ERFSE9Pxs8hPmbzX2arz-112" edge="1">
          <mxGeometry relative="1" as="geometry" />
        </mxCell>
        <mxCell id="ERFSE9Pxs8hPmbzX2arz-117" value="created_date" style="ellipse;whiteSpace=wrap;html=1;align=center;" parent="1" vertex="1">
          <mxGeometry x="1657" y="932" width="100" height="25" as="geometry" />
        </mxCell>
        <mxCell id="ERFSE9Pxs8hPmbzX2arz-118" value="updated_date" style="ellipse;whiteSpace=wrap;html=1;align=center;" parent="1" vertex="1">
          <mxGeometry x="1543" y="932" width="100" height="25" as="geometry" />
        </mxCell>
        <mxCell id="ERFSE9Pxs8hPmbzX2arz-119" style="rounded=0;orthogonalLoop=1;jettySize=auto;html=1;exitX=0.5;exitY=0;exitDx=0;exitDy=0;entryX=0.5;entryY=1;entryDx=0;entryDy=0;endArrow=none;endFill=0;" parent="1" source="ERFSE9Pxs8hPmbzX2arz-113" target="ERFSE9Pxs8hPmbzX2arz-112" edge="1">
          <mxGeometry relative="1" as="geometry">
            <mxPoint x="1272" y="960" as="sourcePoint" />
            <mxPoint x="1074" y="908" as="targetPoint" />
          </mxGeometry>
        </mxCell>
        <mxCell id="ERFSE9Pxs8hPmbzX2arz-120" style="rounded=0;orthogonalLoop=1;jettySize=auto;html=1;exitX=0.5;exitY=0;exitDx=0;exitDy=0;entryX=0.5;entryY=1;entryDx=0;entryDy=0;endArrow=none;endFill=0;" parent="1" source="ERFSE9Pxs8hPmbzX2arz-114" target="ERFSE9Pxs8hPmbzX2arz-112" edge="1">
          <mxGeometry relative="1" as="geometry">
            <mxPoint x="1388" y="950" as="sourcePoint" />
            <mxPoint x="1573" y="890" as="targetPoint" />
          </mxGeometry>
        </mxCell>
        <mxCell id="ERFSE9Pxs8hPmbzX2arz-122" style="rounded=0;orthogonalLoop=1;jettySize=auto;html=1;exitX=0.5;exitY=0;exitDx=0;exitDy=0;entryX=0.5;entryY=1;entryDx=0;entryDy=0;endArrow=none;endFill=0;" parent="1" source="ERFSE9Pxs8hPmbzX2arz-118" target="ERFSE9Pxs8hPmbzX2arz-112" edge="1">
          <mxGeometry relative="1" as="geometry">
            <mxPoint x="1408" y="970" as="sourcePoint" />
            <mxPoint x="1593" y="910" as="targetPoint" />
          </mxGeometry>
        </mxCell>
        <mxCell id="ERFSE9Pxs8hPmbzX2arz-127" value="lat" style="ellipse;whiteSpace=wrap;html=1;align=center;" parent="1" vertex="1">
          <mxGeometry x="1790" y="1003" width="60" height="25" as="geometry" />
        </mxCell>
        <mxCell id="ERFSE9Pxs8hPmbzX2arz-128" value="lon" style="ellipse;whiteSpace=wrap;html=1;align=center;" parent="1" vertex="1">
          <mxGeometry x="1860" y="1003" width="60" height="25" as="geometry" />
        </mxCell>
        <mxCell id="ERFSE9Pxs8hPmbzX2arz-129" style="edgeStyle=none;rounded=0;orthogonalLoop=1;jettySize=auto;html=1;exitX=0.5;exitY=0;exitDx=0;exitDy=0;entryX=0.5;entryY=1;entryDx=0;entryDy=0;endArrow=none;endFill=0;" parent="1" source="ERFSE9Pxs8hPmbzX2arz-130" target="ERFSE9Pxs8hPmbzX2arz-575" edge="1">
          <mxGeometry relative="1" as="geometry">
            <mxPoint x="1930" y="951" as="targetPoint" />
          </mxGeometry>
        </mxCell>
        <mxCell id="ERFSE9Pxs8hPmbzX2arz-130" value="created_date" style="ellipse;whiteSpace=wrap;html=1;align=center;" parent="1" vertex="1">
          <mxGeometry x="2060" y="1003" width="100" height="25" as="geometry" />
        </mxCell>
        <mxCell id="ERFSE9Pxs8hPmbzX2arz-131" value="detail_address" style="ellipse;whiteSpace=wrap;html=1;align=center;" parent="1" vertex="1">
          <mxGeometry x="1950" y="1003" width="90" height="25" as="geometry" />
        </mxCell>
        <mxCell id="ERFSE9Pxs8hPmbzX2arz-133" style="rounded=0;orthogonalLoop=1;jettySize=auto;html=1;exitX=0.5;exitY=0;exitDx=0;exitDy=0;entryX=0.5;entryY=1;entryDx=0;entryDy=0;endArrow=none;endFill=0;" parent="1" source="ERFSE9Pxs8hPmbzX2arz-127" target="ERFSE9Pxs8hPmbzX2arz-575" edge="1">
          <mxGeometry relative="1" as="geometry">
            <mxPoint x="1755" y="1021" as="sourcePoint" />
            <mxPoint x="1930" y="951" as="targetPoint" />
          </mxGeometry>
        </mxCell>
        <mxCell id="ERFSE9Pxs8hPmbzX2arz-134" style="rounded=0;orthogonalLoop=1;jettySize=auto;html=1;exitX=0.5;exitY=0;exitDx=0;exitDy=0;entryX=0.5;entryY=1;entryDx=0;entryDy=0;endArrow=none;endFill=0;" parent="1" source="ERFSE9Pxs8hPmbzX2arz-128" target="ERFSE9Pxs8hPmbzX2arz-575" edge="1">
          <mxGeometry relative="1" as="geometry">
            <mxPoint x="1765" y="1031" as="sourcePoint" />
            <mxPoint x="1930" y="951" as="targetPoint" />
          </mxGeometry>
        </mxCell>
        <mxCell id="ERFSE9Pxs8hPmbzX2arz-135" style="rounded=0;orthogonalLoop=1;jettySize=auto;html=1;exitX=0.5;exitY=0;exitDx=0;exitDy=0;entryX=0.5;entryY=1;entryDx=0;entryDy=0;endArrow=none;endFill=0;" parent="1" source="ERFSE9Pxs8hPmbzX2arz-131" target="ERFSE9Pxs8hPmbzX2arz-575" edge="1">
          <mxGeometry relative="1" as="geometry">
            <mxPoint x="1775" y="1041" as="sourcePoint" />
            <mxPoint x="1930" y="951" as="targetPoint" />
          </mxGeometry>
        </mxCell>
        <mxCell id="ERFSE9Pxs8hPmbzX2arz-137" value="Bike" style="whiteSpace=wrap;html=1;align=center;" parent="1" vertex="1">
          <mxGeometry x="1782.5" y="1550" width="100" height="40" as="geometry" />
        </mxCell>
        <mxCell id="ERFSE9Pxs8hPmbzX2arz-138" style="rounded=0;orthogonalLoop=1;jettySize=auto;html=1;exitX=0.5;exitY=0;exitDx=0;exitDy=0;entryX=0.5;entryY=1;entryDx=0;entryDy=0;endArrow=none;endFill=0;" parent="1" source="ERFSE9Pxs8hPmbzX2arz-139" target="ERFSE9Pxs8hPmbzX2arz-137" edge="1">
          <mxGeometry relative="1" as="geometry" />
        </mxCell>
        <mxCell id="ERFSE9Pxs8hPmbzX2arz-139" value="&lt;u&gt;bike_id&lt;/u&gt;" style="ellipse;whiteSpace=wrap;html=1;align=center;" parent="1" vertex="1">
          <mxGeometry x="1662.5" y="1648.42" width="70" height="25" as="geometry" />
        </mxCell>
        <mxCell id="ERFSE9Pxs8hPmbzX2arz-140" value="bike_type" style="ellipse;whiteSpace=wrap;html=1;align=center;" parent="1" vertex="1">
          <mxGeometry x="1692.5" y="1686.42" width="100" height="25" as="geometry" />
        </mxCell>
        <mxCell id="ERFSE9Pxs8hPmbzX2arz-141" value="status_" style="ellipse;whiteSpace=wrap;html=1;align=center;" parent="1" vertex="1">
          <mxGeometry x="1782.5" y="1661.42" width="60" height="25" as="geometry" />
        </mxCell>
        <mxCell id="ERFSE9Pxs8hPmbzX2arz-142" value="inspection_date" style="ellipse;whiteSpace=wrap;html=1;align=center;" parent="1" vertex="1">
          <mxGeometry x="1804" y="1686.42" width="100" height="25" as="geometry" />
        </mxCell>
        <mxCell id="ERFSE9Pxs8hPmbzX2arz-143" style="rounded=0;orthogonalLoop=1;jettySize=auto;html=1;exitX=0.5;exitY=0;exitDx=0;exitDy=0;entryX=0.5;entryY=1;entryDx=0;entryDy=0;endArrow=none;endFill=0;" parent="1" source="ERFSE9Pxs8hPmbzX2arz-140" target="ERFSE9Pxs8hPmbzX2arz-137" edge="1">
          <mxGeometry relative="1" as="geometry">
            <mxPoint x="1501" y="1694.5" as="sourcePoint" />
            <mxPoint x="1776" y="1774.5" as="targetPoint" />
          </mxGeometry>
        </mxCell>
        <mxCell id="ERFSE9Pxs8hPmbzX2arz-144" style="rounded=0;orthogonalLoop=1;jettySize=auto;html=1;exitX=0.5;exitY=0;exitDx=0;exitDy=0;entryX=0.5;entryY=1;entryDx=0;entryDy=0;endArrow=none;endFill=0;" parent="1" source="ERFSE9Pxs8hPmbzX2arz-141" target="ERFSE9Pxs8hPmbzX2arz-137" edge="1">
          <mxGeometry relative="1" as="geometry">
            <mxPoint x="1511" y="1704.5" as="sourcePoint" />
            <mxPoint x="1786" y="1784.5" as="targetPoint" />
          </mxGeometry>
        </mxCell>
        <mxCell id="ERFSE9Pxs8hPmbzX2arz-145" style="rounded=0;orthogonalLoop=1;jettySize=auto;html=1;exitX=0.5;exitY=0;exitDx=0;exitDy=0;entryX=0.5;entryY=1;entryDx=0;entryDy=0;endArrow=none;endFill=0;" parent="1" source="ERFSE9Pxs8hPmbzX2arz-142" target="ERFSE9Pxs8hPmbzX2arz-137" edge="1">
          <mxGeometry relative="1" as="geometry">
            <mxPoint x="1521" y="1714.5" as="sourcePoint" />
            <mxPoint x="1796" y="1794.5" as="targetPoint" />
          </mxGeometry>
        </mxCell>
        <mxCell id="ERFSE9Pxs8hPmbzX2arz-146" value="updated_date" style="ellipse;whiteSpace=wrap;html=1;align=center;" parent="1" vertex="1">
          <mxGeometry x="1872.5" y="1656.42" width="100" height="25" as="geometry" />
        </mxCell>
        <mxCell id="ERFSE9Pxs8hPmbzX2arz-147" style="rounded=0;orthogonalLoop=1;jettySize=auto;html=1;exitX=0.5;exitY=0;exitDx=0;exitDy=0;entryX=0.5;entryY=1;entryDx=0;entryDy=0;endArrow=none;endFill=0;" parent="1" source="ERFSE9Pxs8hPmbzX2arz-146" target="ERFSE9Pxs8hPmbzX2arz-137" edge="1">
          <mxGeometry relative="1" as="geometry">
            <mxPoint x="1896" y="1659.5" as="sourcePoint" />
            <mxPoint x="1756" y="1599.5" as="targetPoint" />
          </mxGeometry>
        </mxCell>
        <mxCell id="ERFSE9Pxs8hPmbzX2arz-149" style="edgeStyle=none;rounded=0;orthogonalLoop=1;jettySize=auto;html=1;exitX=0.5;exitY=0;exitDx=0;exitDy=0;entryX=0.5;entryY=1;entryDx=0;entryDy=0;endArrow=none;endFill=0;" parent="1" source="ERFSE9Pxs8hPmbzX2arz-148" target="ERFSE9Pxs8hPmbzX2arz-137" edge="1">
          <mxGeometry relative="1" as="geometry" />
        </mxCell>
        <mxCell id="ERFSE9Pxs8hPmbzX2arz-148" value="release_date" style="ellipse;whiteSpace=wrap;html=1;align=center;" parent="1" vertex="1">
          <mxGeometry x="1952.5" y="1681.42" width="100" height="25" as="geometry" />
        </mxCell>
        <mxCell id="ERFSE9Pxs8hPmbzX2arz-150" value="Station" style="whiteSpace=wrap;html=1;align=center;" parent="1" vertex="1">
          <mxGeometry x="1970" y="1250" width="100" height="40" as="geometry" />
        </mxCell>
        <mxCell id="ERFSE9Pxs8hPmbzX2arz-151" style="rounded=0;orthogonalLoop=1;jettySize=auto;html=1;exitX=0.5;exitY=0;exitDx=0;exitDy=0;entryX=0.5;entryY=1;entryDx=0;entryDy=0;endArrow=none;endFill=0;" parent="1" source="ERFSE9Pxs8hPmbzX2arz-152" target="ERFSE9Pxs8hPmbzX2arz-150" edge="1">
          <mxGeometry relative="1" as="geometry" />
        </mxCell>
        <mxCell id="ERFSE9Pxs8hPmbzX2arz-152" value="&lt;u&gt;uid&lt;/u&gt;" style="ellipse;whiteSpace=wrap;html=1;align=center;" parent="1" vertex="1">
          <mxGeometry x="1790" y="1342" width="70" height="25" as="geometry" />
        </mxCell>
        <mxCell id="ERFSE9Pxs8hPmbzX2arz-153" value="station_name" style="ellipse;whiteSpace=wrap;html=1;align=center;" parent="1" vertex="1">
          <mxGeometry x="1830" y="1367" width="100" height="25" as="geometry" />
        </mxCell>
        <mxCell id="ERFSE9Pxs8hPmbzX2arz-154" value="lat" style="ellipse;whiteSpace=wrap;html=1;align=center;" parent="1" vertex="1">
          <mxGeometry x="1917" y="1342" width="60" height="25" as="geometry" />
        </mxCell>
        <mxCell id="ERFSE9Pxs8hPmbzX2arz-155" value="lon" style="ellipse;whiteSpace=wrap;html=1;align=center;" parent="1" vertex="1">
          <mxGeometry x="1960" y="1367" width="60" height="25" as="geometry" />
        </mxCell>
        <mxCell id="ERFSE9Pxs8hPmbzX2arz-156" style="rounded=0;orthogonalLoop=1;jettySize=auto;html=1;exitX=0.5;exitY=0;exitDx=0;exitDy=0;entryX=0.5;entryY=1;entryDx=0;entryDy=0;endArrow=none;endFill=0;" parent="1" source="ERFSE9Pxs8hPmbzX2arz-153" target="ERFSE9Pxs8hPmbzX2arz-150" edge="1">
          <mxGeometry relative="1" as="geometry">
            <mxPoint x="1726" y="1395" as="sourcePoint" />
            <mxPoint x="2001" y="1475" as="targetPoint" />
          </mxGeometry>
        </mxCell>
        <mxCell id="ERFSE9Pxs8hPmbzX2arz-157" style="rounded=0;orthogonalLoop=1;jettySize=auto;html=1;exitX=0.5;exitY=0;exitDx=0;exitDy=0;entryX=0.5;entryY=1;entryDx=0;entryDy=0;endArrow=none;endFill=0;" parent="1" source="ERFSE9Pxs8hPmbzX2arz-154" target="ERFSE9Pxs8hPmbzX2arz-150" edge="1">
          <mxGeometry relative="1" as="geometry">
            <mxPoint x="1736" y="1405" as="sourcePoint" />
            <mxPoint x="2011" y="1485" as="targetPoint" />
          </mxGeometry>
        </mxCell>
        <mxCell id="ERFSE9Pxs8hPmbzX2arz-158" style="rounded=0;orthogonalLoop=1;jettySize=auto;html=1;exitX=0.5;exitY=0;exitDx=0;exitDy=0;entryX=0.5;entryY=1;entryDx=0;entryDy=0;endArrow=none;endFill=0;" parent="1" source="ERFSE9Pxs8hPmbzX2arz-155" target="ERFSE9Pxs8hPmbzX2arz-150" edge="1">
          <mxGeometry relative="1" as="geometry">
            <mxPoint x="1746" y="1415" as="sourcePoint" />
            <mxPoint x="2021" y="1495" as="targetPoint" />
          </mxGeometry>
        </mxCell>
        <mxCell id="ERFSE9Pxs8hPmbzX2arz-159" value="size" style="ellipse;whiteSpace=wrap;html=1;align=center;" parent="1" vertex="1">
          <mxGeometry x="2000" y="1342" width="60" height="25" as="geometry" />
        </mxCell>
        <mxCell id="ERFSE9Pxs8hPmbzX2arz-160" style="rounded=0;orthogonalLoop=1;jettySize=auto;html=1;exitX=0.5;exitY=0;exitDx=0;exitDy=0;entryX=0.5;entryY=1;entryDx=0;entryDy=0;endArrow=none;endFill=0;" parent="1" source="ERFSE9Pxs8hPmbzX2arz-159" target="ERFSE9Pxs8hPmbzX2arz-150" edge="1">
          <mxGeometry relative="1" as="geometry">
            <mxPoint x="2121" y="1360" as="sourcePoint" />
            <mxPoint x="1981" y="1300" as="targetPoint" />
          </mxGeometry>
        </mxCell>
        <mxCell id="ERFSE9Pxs8hPmbzX2arz-161" style="edgeStyle=none;rounded=0;orthogonalLoop=1;jettySize=auto;html=1;exitX=0.5;exitY=0;exitDx=0;exitDy=0;entryX=0.5;entryY=1;entryDx=0;entryDy=0;endArrow=none;endFill=0;" parent="1" source="ERFSE9Pxs8hPmbzX2arz-162" target="ERFSE9Pxs8hPmbzX2arz-150" edge="1">
          <mxGeometry relative="1" as="geometry" />
        </mxCell>
        <mxCell id="ERFSE9Pxs8hPmbzX2arz-162" value="created_date" style="ellipse;whiteSpace=wrap;html=1;align=center;" parent="1" vertex="1">
          <mxGeometry x="2160" y="1355" width="100" height="25" as="geometry" />
        </mxCell>
        <mxCell id="ERFSE9Pxs8hPmbzX2arz-164" style="edgeStyle=none;rounded=0;orthogonalLoop=1;jettySize=auto;html=1;exitX=0.5;exitY=0;exitDx=0;exitDy=0;entryX=0.5;entryY=1;entryDx=0;entryDy=0;endArrow=none;endFill=0;" parent="1" source="ERFSE9Pxs8hPmbzX2arz-163" target="ERFSE9Pxs8hPmbzX2arz-150" edge="1">
          <mxGeometry relative="1" as="geometry" />
        </mxCell>
        <mxCell id="ERFSE9Pxs8hPmbzX2arz-163" value="is_valid" style="ellipse;whiteSpace=wrap;html=1;align=center;" parent="1" vertex="1">
          <mxGeometry x="2050" y="1367" width="60" height="25" as="geometry" />
        </mxCell>
        <mxCell id="ERFSE9Pxs8hPmbzX2arz-167" style="edgeStyle=none;rounded=0;orthogonalLoop=1;jettySize=auto;html=1;exitX=0.5;exitY=0;exitDx=0;exitDy=0;endArrow=none;endFill=0;" parent="1" source="ERFSE9Pxs8hPmbzX2arz-166" edge="1">
          <mxGeometry relative="1" as="geometry">
            <mxPoint x="2020" y="1290" as="targetPoint" />
          </mxGeometry>
        </mxCell>
        <mxCell id="ERFSE9Pxs8hPmbzX2arz-166" value="station_type" style="ellipse;whiteSpace=wrap;html=1;align=center;" parent="1" vertex="1">
          <mxGeometry x="2090" y="1342" width="80" height="25" as="geometry" />
        </mxCell>
        <mxCell id="ERFSE9Pxs8hPmbzX2arz-168" value="Member" style="whiteSpace=wrap;html=1;align=center;" parent="1" vertex="1">
          <mxGeometry x="1227" y="1190" width="100" height="40" as="geometry" />
        </mxCell>
        <mxCell id="ERFSE9Pxs8hPmbzX2arz-169" style="rounded=0;orthogonalLoop=1;jettySize=auto;html=1;exitX=0.5;exitY=0;exitDx=0;exitDy=0;entryX=0.5;entryY=1;entryDx=0;entryDy=0;endArrow=none;endFill=0;" parent="1" source="ERFSE9Pxs8hPmbzX2arz-170" target="ERFSE9Pxs8hPmbzX2arz-168" edge="1">
          <mxGeometry relative="1" as="geometry" />
        </mxCell>
        <mxCell id="ERFSE9Pxs8hPmbzX2arz-170" value="&lt;u&gt;uid&lt;/u&gt;" style="ellipse;whiteSpace=wrap;html=1;align=center;" parent="1" vertex="1">
          <mxGeometry x="980" y="1240" width="70" height="25" as="geometry" />
        </mxCell>
        <mxCell id="ERFSE9Pxs8hPmbzX2arz-172" value="email" style="ellipse;whiteSpace=wrap;html=1;align=center;" parent="1" vertex="1">
          <mxGeometry x="1090" y="1282" width="60" height="25" as="geometry" />
        </mxCell>
        <mxCell id="ERFSE9Pxs8hPmbzX2arz-173" value="phone" style="ellipse;whiteSpace=wrap;html=1;align=center;" parent="1" vertex="1">
          <mxGeometry x="1140" y="1300" width="57" height="25" as="geometry" />
        </mxCell>
        <mxCell id="ERFSE9Pxs8hPmbzX2arz-174" style="rounded=0;orthogonalLoop=1;jettySize=auto;html=1;exitX=0.5;exitY=0;exitDx=0;exitDy=0;entryX=0.5;entryY=1;entryDx=0;entryDy=0;endArrow=none;endFill=0;" parent="1" source="ERFSE9Pxs8hPmbzX2arz-171" target="ERFSE9Pxs8hPmbzX2arz-168" edge="1">
          <mxGeometry relative="1" as="geometry">
            <mxPoint x="799" y="1335" as="sourcePoint" />
            <mxPoint x="1074" y="1415" as="targetPoint" />
          </mxGeometry>
        </mxCell>
        <mxCell id="ERFSE9Pxs8hPmbzX2arz-175" style="rounded=0;orthogonalLoop=1;jettySize=auto;html=1;exitX=0.5;exitY=0;exitDx=0;exitDy=0;entryX=0.5;entryY=1;entryDx=0;entryDy=0;endArrow=none;endFill=0;" parent="1" source="ERFSE9Pxs8hPmbzX2arz-172" target="ERFSE9Pxs8hPmbzX2arz-168" edge="1">
          <mxGeometry relative="1" as="geometry">
            <mxPoint x="809" y="1345" as="sourcePoint" />
            <mxPoint x="1084" y="1425" as="targetPoint" />
          </mxGeometry>
        </mxCell>
        <mxCell id="ERFSE9Pxs8hPmbzX2arz-176" style="rounded=0;orthogonalLoop=1;jettySize=auto;html=1;exitX=0.5;exitY=0;exitDx=0;exitDy=0;entryX=0.5;entryY=1;entryDx=0;entryDy=0;endArrow=none;endFill=0;" parent="1" source="ERFSE9Pxs8hPmbzX2arz-173" target="ERFSE9Pxs8hPmbzX2arz-168" edge="1">
          <mxGeometry relative="1" as="geometry">
            <mxPoint x="819" y="1355" as="sourcePoint" />
            <mxPoint x="1094" y="1435" as="targetPoint" />
          </mxGeometry>
        </mxCell>
        <mxCell id="ERFSE9Pxs8hPmbzX2arz-177" value="updated_date" style="ellipse;whiteSpace=wrap;html=1;align=center;" parent="1" vertex="1">
          <mxGeometry x="1410" y="1290" width="100" height="25" as="geometry" />
        </mxCell>
        <mxCell id="ERFSE9Pxs8hPmbzX2arz-178" style="rounded=0;orthogonalLoop=1;jettySize=auto;html=1;exitX=0.5;exitY=0;exitDx=0;exitDy=0;entryX=0.5;entryY=1;entryDx=0;entryDy=0;endArrow=none;endFill=0;" parent="1" source="ERFSE9Pxs8hPmbzX2arz-177" target="ERFSE9Pxs8hPmbzX2arz-168" edge="1">
          <mxGeometry relative="1" as="geometry">
            <mxPoint x="1194" y="1300" as="sourcePoint" />
            <mxPoint x="1054" y="1240" as="targetPoint" />
          </mxGeometry>
        </mxCell>
        <mxCell id="ERFSE9Pxs8hPmbzX2arz-179" style="edgeStyle=none;rounded=0;orthogonalLoop=1;jettySize=auto;html=1;exitX=0.5;exitY=0;exitDx=0;exitDy=0;entryX=0.5;entryY=1;entryDx=0;entryDy=0;endArrow=none;endFill=0;" parent="1" source="ERFSE9Pxs8hPmbzX2arz-180" target="ERFSE9Pxs8hPmbzX2arz-168" edge="1">
          <mxGeometry relative="1" as="geometry" />
        </mxCell>
        <mxCell id="ERFSE9Pxs8hPmbzX2arz-180" value="release_date" style="ellipse;whiteSpace=wrap;html=1;align=center;" parent="1" vertex="1">
          <mxGeometry x="1465" y="1265" width="100" height="25" as="geometry" />
        </mxCell>
        <mxCell id="ERFSE9Pxs8hPmbzX2arz-193" style="edgeStyle=none;rounded=0;orthogonalLoop=1;jettySize=auto;html=1;exitX=0.5;exitY=0;exitDx=0;exitDy=0;entryX=0.5;entryY=1;entryDx=0;entryDy=0;endArrow=none;endFill=0;startArrow=none;" parent="1" source="ERFSE9Pxs8hPmbzX2arz-171" target="ERFSE9Pxs8hPmbzX2arz-168" edge="1">
          <mxGeometry relative="1" as="geometry" />
        </mxCell>
        <mxCell id="ERFSE9Pxs8hPmbzX2arz-181" value="pw" style="ellipse;whiteSpace=wrap;html=1;align=center;" parent="1" vertex="1">
          <mxGeometry x="1030" y="1290" width="57" height="25" as="geometry" />
        </mxCell>
        <mxCell id="ERFSE9Pxs8hPmbzX2arz-187" style="edgeStyle=none;rounded=0;orthogonalLoop=1;jettySize=auto;html=1;exitX=0.5;exitY=0;exitDx=0;exitDy=0;entryX=0.5;entryY=1;entryDx=0;entryDy=0;endArrow=none;endFill=0;" parent="1" source="ERFSE9Pxs8hPmbzX2arz-182" target="ERFSE9Pxs8hPmbzX2arz-168" edge="1">
          <mxGeometry relative="1" as="geometry" />
        </mxCell>
        <mxCell id="ERFSE9Pxs8hPmbzX2arz-182" value="sex" style="ellipse;whiteSpace=wrap;html=1;align=center;" parent="1" vertex="1">
          <mxGeometry x="1190" y="1282" width="57" height="25" as="geometry" />
        </mxCell>
        <mxCell id="ERFSE9Pxs8hPmbzX2arz-188" style="edgeStyle=none;rounded=0;orthogonalLoop=1;jettySize=auto;html=1;exitX=0.5;exitY=0;exitDx=0;exitDy=0;entryX=0.5;entryY=1;entryDx=0;entryDy=0;endArrow=none;endFill=0;" parent="1" source="ERFSE9Pxs8hPmbzX2arz-183" target="ERFSE9Pxs8hPmbzX2arz-168" edge="1">
          <mxGeometry relative="1" as="geometry" />
        </mxCell>
        <mxCell id="ERFSE9Pxs8hPmbzX2arz-183" value="age" style="ellipse;whiteSpace=wrap;html=1;align=center;" parent="1" vertex="1">
          <mxGeometry x="1240" y="1300" width="57" height="25" as="geometry" />
        </mxCell>
        <mxCell id="ERFSE9Pxs8hPmbzX2arz-189" style="edgeStyle=none;rounded=0;orthogonalLoop=1;jettySize=auto;html=1;exitX=0.5;exitY=0;exitDx=0;exitDy=0;endArrow=none;endFill=0;" parent="1" source="ERFSE9Pxs8hPmbzX2arz-184" edge="1">
          <mxGeometry relative="1" as="geometry">
            <mxPoint x="1280" y="1230" as="targetPoint" />
          </mxGeometry>
        </mxCell>
        <mxCell id="ERFSE9Pxs8hPmbzX2arz-184" value="weight" style="ellipse;whiteSpace=wrap;html=1;align=center;" parent="1" vertex="1">
          <mxGeometry x="1280" y="1275" width="57" height="25" as="geometry" />
        </mxCell>
        <mxCell id="ERFSE9Pxs8hPmbzX2arz-190" style="edgeStyle=none;rounded=0;orthogonalLoop=1;jettySize=auto;html=1;exitX=0.5;exitY=0;exitDx=0;exitDy=0;entryX=0.5;entryY=1;entryDx=0;entryDy=0;endArrow=none;endFill=0;" parent="1" source="ERFSE9Pxs8hPmbzX2arz-185" target="ERFSE9Pxs8hPmbzX2arz-168" edge="1">
          <mxGeometry relative="1" as="geometry" />
        </mxCell>
        <mxCell id="ERFSE9Pxs8hPmbzX2arz-185" value="is_lost" style="ellipse;whiteSpace=wrap;html=1;align=center;" parent="1" vertex="1">
          <mxGeometry x="1333" y="1300" width="57" height="25" as="geometry" />
        </mxCell>
        <mxCell id="ERFSE9Pxs8hPmbzX2arz-191" style="edgeStyle=none;rounded=0;orthogonalLoop=1;jettySize=auto;html=1;exitX=0.5;exitY=0;exitDx=0;exitDy=0;entryX=0.5;entryY=1;entryDx=0;entryDy=0;endArrow=none;endFill=0;" parent="1" source="ERFSE9Pxs8hPmbzX2arz-186" target="ERFSE9Pxs8hPmbzX2arz-168" edge="1">
          <mxGeometry relative="1" as="geometry" />
        </mxCell>
        <mxCell id="ERFSE9Pxs8hPmbzX2arz-186" value="isvalid" style="ellipse;whiteSpace=wrap;html=1;align=center;" parent="1" vertex="1">
          <mxGeometry x="1366" y="1275" width="57" height="25" as="geometry" />
        </mxCell>
        <mxCell id="ERFSE9Pxs8hPmbzX2arz-194" value="" style="edgeStyle=none;rounded=0;orthogonalLoop=1;jettySize=auto;html=1;exitX=0.5;exitY=0;exitDx=0;exitDy=0;entryX=0.5;entryY=1;entryDx=0;entryDy=0;endArrow=none;endFill=0;" parent="1" source="ERFSE9Pxs8hPmbzX2arz-181" target="ERFSE9Pxs8hPmbzX2arz-168" edge="1">
          <mxGeometry relative="1" as="geometry">
            <mxPoint x="1058.5" y="1290" as="sourcePoint" />
            <mxPoint x="1277" y="1230" as="targetPoint" />
          </mxGeometry>
        </mxCell>
        <mxCell id="ERFSE9Pxs8hPmbzX2arz-171" value="id" style="ellipse;whiteSpace=wrap;html=1;align=center;" parent="1" vertex="1">
          <mxGeometry x="1050" y="1250" width="57" height="25" as="geometry" />
        </mxCell>
        <mxCell id="ERFSE9Pxs8hPmbzX2arz-203" style="edgeStyle=none;rounded=0;orthogonalLoop=1;jettySize=auto;html=1;exitX=0.5;exitY=0;exitDx=0;exitDy=0;entryX=0.5;entryY=1;entryDx=0;entryDy=0;endArrow=none;endFill=0;" parent="1" source="ERFSE9Pxs8hPmbzX2arz-202" target="ERFSE9Pxs8hPmbzX2arz-243" edge="1">
          <mxGeometry relative="1" as="geometry">
            <mxPoint x="1730" y="1230" as="targetPoint" />
          </mxGeometry>
        </mxCell>
        <mxCell id="ERFSE9Pxs8hPmbzX2arz-202" value="created_date" style="ellipse;whiteSpace=wrap;html=1;align=center;" parent="1" vertex="1">
          <mxGeometry x="1620" y="1250" width="100" height="25" as="geometry" />
        </mxCell>
        <mxCell id="ERFSE9Pxs8hPmbzX2arz-208" value="Affiliation" style="shape=rhombus;perimeter=rhombusPerimeter;whiteSpace=wrap;html=1;align=center;" parent="1" vertex="1">
          <mxGeometry x="330" y="725" width="120" height="60" as="geometry" />
        </mxCell>
        <mxCell id="ERFSE9Pxs8hPmbzX2arz-209" value="" style="shape=link;html=1;rounded=0;endArrow=none;endFill=0;entryX=0.5;entryY=1;entryDx=0;entryDy=0;exitX=0.5;exitY=0;exitDx=0;exitDy=0;" parent="1" source="ERFSE9Pxs8hPmbzX2arz-32" target="ERFSE9Pxs8hPmbzX2arz-208" edge="1">
          <mxGeometry relative="1" as="geometry">
            <mxPoint x="280" y="840" as="sourcePoint" />
            <mxPoint x="310" y="790" as="targetPoint" />
          </mxGeometry>
        </mxCell>
        <mxCell id="ERFSE9Pxs8hPmbzX2arz-210" value="N" style="resizable=0;html=1;align=right;verticalAlign=bottom;" parent="ERFSE9Pxs8hPmbzX2arz-209" connectable="0" vertex="1">
          <mxGeometry x="1" relative="1" as="geometry" />
        </mxCell>
        <mxCell id="ERFSE9Pxs8hPmbzX2arz-211" value="" style="endArrow=none;html=1;rounded=0;entryX=0.5;entryY=0;entryDx=0;entryDy=0;exitX=0.5;exitY=1;exitDx=0;exitDy=0;" parent="1" source="ERFSE9Pxs8hPmbzX2arz-19" target="ERFSE9Pxs8hPmbzX2arz-208" edge="1">
          <mxGeometry relative="1" as="geometry">
            <mxPoint x="350" y="690" as="sourcePoint" />
            <mxPoint x="510" y="690" as="targetPoint" />
          </mxGeometry>
        </mxCell>
        <mxCell id="ERFSE9Pxs8hPmbzX2arz-212" value="1" style="resizable=0;html=1;align=right;verticalAlign=bottom;" parent="ERFSE9Pxs8hPmbzX2arz-211" connectable="0" vertex="1">
          <mxGeometry x="1" relative="1" as="geometry" />
        </mxCell>
        <mxCell id="ERFSE9Pxs8hPmbzX2arz-213" value="Affiliation" style="shape=rhombus;perimeter=rhombusPerimeter;whiteSpace=wrap;html=1;align=center;" parent="1" vertex="1">
          <mxGeometry x="991" y="872" width="120" height="60" as="geometry" />
        </mxCell>
        <mxCell id="ERFSE9Pxs8hPmbzX2arz-214" value="" style="shape=link;html=1;rounded=0;endArrow=none;endFill=0;entryX=0.5;entryY=1;entryDx=0;entryDy=0;exitX=0.5;exitY=0;exitDx=0;exitDy=0;" parent="1" source="ERFSE9Pxs8hPmbzX2arz-73" target="ERFSE9Pxs8hPmbzX2arz-213" edge="1">
          <mxGeometry relative="1" as="geometry">
            <mxPoint x="900" y="965" as="sourcePoint" />
            <mxPoint x="820" y="915" as="targetPoint" />
          </mxGeometry>
        </mxCell>
        <mxCell id="ERFSE9Pxs8hPmbzX2arz-215" value="N" style="resizable=0;html=1;align=right;verticalAlign=bottom;" parent="ERFSE9Pxs8hPmbzX2arz-214" connectable="0" vertex="1">
          <mxGeometry x="1" relative="1" as="geometry" />
        </mxCell>
        <mxCell id="ERFSE9Pxs8hPmbzX2arz-216" value="" style="endArrow=none;html=1;rounded=0;entryX=0.5;entryY=0;entryDx=0;entryDy=0;exitX=0.5;exitY=1;exitDx=0;exitDy=0;" parent="1" source="ERFSE9Pxs8hPmbzX2arz-66" target="ERFSE9Pxs8hPmbzX2arz-213" edge="1">
          <mxGeometry relative="1" as="geometry">
            <mxPoint x="900" y="775" as="sourcePoint" />
            <mxPoint x="1020" y="815" as="targetPoint" />
          </mxGeometry>
        </mxCell>
        <mxCell id="ERFSE9Pxs8hPmbzX2arz-217" value="1" style="resizable=0;html=1;align=right;verticalAlign=bottom;" parent="ERFSE9Pxs8hPmbzX2arz-216" connectable="0" vertex="1">
          <mxGeometry x="1" relative="1" as="geometry" />
        </mxCell>
        <mxCell id="ERFSE9Pxs8hPmbzX2arz-218" value="Affiliation" style="shape=rhombus;perimeter=rhombusPerimeter;whiteSpace=wrap;html=1;align=center;" parent="1" vertex="1">
          <mxGeometry x="1240.5" y="968" width="120" height="60" as="geometry" />
        </mxCell>
        <mxCell id="ERFSE9Pxs8hPmbzX2arz-219" value="" style="shape=link;html=1;rounded=0;endArrow=none;endFill=0;entryX=1;entryY=0.5;entryDx=0;entryDy=0;exitX=0;exitY=0.5;exitDx=0;exitDy=0;" parent="1" source="ERFSE9Pxs8hPmbzX2arz-93" target="ERFSE9Pxs8hPmbzX2arz-218" edge="1">
          <mxGeometry relative="1" as="geometry">
            <mxPoint x="1273" y="1110" as="sourcePoint" />
            <mxPoint x="1193" y="1060" as="targetPoint" />
          </mxGeometry>
        </mxCell>
        <mxCell id="ERFSE9Pxs8hPmbzX2arz-220" value="N" style="resizable=0;html=1;align=right;verticalAlign=bottom;" parent="ERFSE9Pxs8hPmbzX2arz-219" connectable="0" vertex="1">
          <mxGeometry x="1" relative="1" as="geometry" />
        </mxCell>
        <mxCell id="ERFSE9Pxs8hPmbzX2arz-221" value="" style="endArrow=none;html=1;rounded=0;entryX=0;entryY=0.5;entryDx=0;entryDy=0;exitX=1;exitY=0.5;exitDx=0;exitDy=0;" parent="1" source="ERFSE9Pxs8hPmbzX2arz-73" target="ERFSE9Pxs8hPmbzX2arz-218" edge="1">
          <mxGeometry relative="1" as="geometry">
            <mxPoint x="1273" y="920" as="sourcePoint" />
            <mxPoint x="1393" y="960" as="targetPoint" />
          </mxGeometry>
        </mxCell>
        <mxCell id="ERFSE9Pxs8hPmbzX2arz-222" value="1" style="resizable=0;html=1;align=right;verticalAlign=bottom;" parent="ERFSE9Pxs8hPmbzX2arz-221" connectable="0" vertex="1">
          <mxGeometry x="1" relative="1" as="geometry" />
        </mxCell>
        <mxCell id="ERFSE9Pxs8hPmbzX2arz-223" value="Affiliation" style="shape=rhombus;perimeter=rhombusPerimeter;whiteSpace=wrap;html=1;align=center;" parent="1" vertex="1">
          <mxGeometry x="1226.5" y="890" width="120" height="60" as="geometry" />
        </mxCell>
        <mxCell id="ERFSE9Pxs8hPmbzX2arz-224" value="" style="shape=link;html=1;rounded=0;endArrow=none;endFill=0;entryX=1;entryY=0.5;entryDx=0;entryDy=0;exitX=0;exitY=0.5;exitDx=0;exitDy=0;" parent="1" source="ERFSE9Pxs8hPmbzX2arz-112" target="ERFSE9Pxs8hPmbzX2arz-223" edge="1">
          <mxGeometry relative="1" as="geometry">
            <mxPoint x="1486" y="920" as="sourcePoint" />
            <mxPoint x="1179" y="982" as="targetPoint" />
          </mxGeometry>
        </mxCell>
        <mxCell id="ERFSE9Pxs8hPmbzX2arz-225" value="N" style="resizable=0;html=1;align=right;verticalAlign=bottom;" parent="ERFSE9Pxs8hPmbzX2arz-224" connectable="0" vertex="1">
          <mxGeometry x="1" relative="1" as="geometry" />
        </mxCell>
        <mxCell id="ERFSE9Pxs8hPmbzX2arz-226" value="" style="endArrow=none;html=1;rounded=0;entryX=0;entryY=0.5;entryDx=0;entryDy=0;exitX=1;exitY=0;exitDx=0;exitDy=0;" parent="1" source="ERFSE9Pxs8hPmbzX2arz-73" target="ERFSE9Pxs8hPmbzX2arz-223" edge="1">
          <mxGeometry relative="1" as="geometry">
            <mxPoint x="1087" y="920" as="sourcePoint" />
            <mxPoint x="1379" y="882" as="targetPoint" />
          </mxGeometry>
        </mxCell>
        <mxCell id="ERFSE9Pxs8hPmbzX2arz-227" value="1" style="resizable=0;html=1;align=right;verticalAlign=bottom;" parent="ERFSE9Pxs8hPmbzX2arz-226" connectable="0" vertex="1">
          <mxGeometry x="1" relative="1" as="geometry" />
        </mxCell>
        <mxCell id="ERFSE9Pxs8hPmbzX2arz-229" value="" style="shape=link;html=1;rounded=0;endArrow=none;endFill=0;entryX=1;entryY=0.5;entryDx=0;entryDy=0;exitX=0.437;exitY=0.012;exitDx=0;exitDy=0;exitPerimeter=0;" parent="1" source="ERFSE9Pxs8hPmbzX2arz-575" target="ERFSE9Pxs8hPmbzX2arz-576" edge="1">
          <mxGeometry relative="1" as="geometry">
            <mxPoint x="1930" y="911" as="sourcePoint" />
            <mxPoint x="1830" y="735" as="targetPoint" />
          </mxGeometry>
        </mxCell>
        <mxCell id="ERFSE9Pxs8hPmbzX2arz-230" value="1" style="resizable=0;html=1;align=right;verticalAlign=bottom;" parent="ERFSE9Pxs8hPmbzX2arz-229" connectable="0" vertex="1">
          <mxGeometry x="1" relative="1" as="geometry" />
        </mxCell>
        <mxCell id="ERFSE9Pxs8hPmbzX2arz-231" value="" style="endArrow=none;html=1;rounded=0;entryX=0;entryY=0.5;entryDx=0;entryDy=0;exitX=1;exitY=0.25;exitDx=0;exitDy=0;" parent="1" source="ERFSE9Pxs8hPmbzX2arz-73" target="ERFSE9Pxs8hPmbzX2arz-576" edge="1">
          <mxGeometry relative="1" as="geometry">
            <mxPoint x="1600" y="998" as="sourcePoint" />
            <mxPoint x="1710" y="735" as="targetPoint" />
          </mxGeometry>
        </mxCell>
        <mxCell id="ERFSE9Pxs8hPmbzX2arz-232" value="1" style="resizable=0;html=1;align=right;verticalAlign=bottom;" parent="ERFSE9Pxs8hPmbzX2arz-231" connectable="0" vertex="1">
          <mxGeometry x="1" relative="1" as="geometry" />
        </mxCell>
        <mxCell id="ERFSE9Pxs8hPmbzX2arz-233" value="Writer" style="shape=rhombus;perimeter=rhombusPerimeter;whiteSpace=wrap;html=1;align=center;" parent="1" vertex="1">
          <mxGeometry x="1160" y="1077.5" width="120" height="60" as="geometry" />
        </mxCell>
        <mxCell id="ERFSE9Pxs8hPmbzX2arz-234" value="" style="shape=link;html=1;rounded=0;endArrow=none;endFill=0;entryX=0.5;entryY=0;entryDx=0;entryDy=0;exitX=1;exitY=1;exitDx=0;exitDy=0;" parent="1" source="ERFSE9Pxs8hPmbzX2arz-73" target="ERFSE9Pxs8hPmbzX2arz-233" edge="1">
          <mxGeometry relative="1" as="geometry">
            <mxPoint x="1379" y="1150" as="sourcePoint" />
            <mxPoint x="1072" y="1212" as="targetPoint" />
          </mxGeometry>
        </mxCell>
        <mxCell id="ERFSE9Pxs8hPmbzX2arz-235" value="N" style="resizable=0;html=1;align=right;verticalAlign=bottom;" parent="ERFSE9Pxs8hPmbzX2arz-234" connectable="0" vertex="1">
          <mxGeometry x="1" relative="1" as="geometry" />
        </mxCell>
        <mxCell id="ERFSE9Pxs8hPmbzX2arz-236" value="" style="endArrow=none;html=1;rounded=0;entryX=0.5;entryY=1;entryDx=0;entryDy=0;exitX=0.5;exitY=0;exitDx=0;exitDy=0;" parent="1" source="ERFSE9Pxs8hPmbzX2arz-168" target="ERFSE9Pxs8hPmbzX2arz-233" edge="1">
          <mxGeometry relative="1" as="geometry">
            <mxPoint x="980" y="1150" as="sourcePoint" />
            <mxPoint x="1272" y="1112" as="targetPoint" />
          </mxGeometry>
        </mxCell>
        <mxCell id="ERFSE9Pxs8hPmbzX2arz-237" value="1" style="resizable=0;html=1;align=right;verticalAlign=bottom;" parent="ERFSE9Pxs8hPmbzX2arz-236" connectable="0" vertex="1">
          <mxGeometry x="1" relative="1" as="geometry" />
        </mxCell>
        <mxCell id="ERFSE9Pxs8hPmbzX2arz-238" value="Writer" style="shape=rhombus;perimeter=rhombusPerimeter;whiteSpace=wrap;html=1;align=center;" parent="1" vertex="1">
          <mxGeometry x="1290" y="1045" width="120" height="60" as="geometry" />
        </mxCell>
        <mxCell id="ERFSE9Pxs8hPmbzX2arz-239" value="" style="shape=link;html=1;rounded=0;endArrow=none;endFill=0;entryX=0.5;entryY=0;entryDx=0;entryDy=0;exitX=0;exitY=0.75;exitDx=0;exitDy=0;" parent="1" source="ERFSE9Pxs8hPmbzX2arz-112" target="ERFSE9Pxs8hPmbzX2arz-238" edge="1">
          <mxGeometry relative="1" as="geometry">
            <mxPoint x="1540" y="1038" as="sourcePoint" />
            <mxPoint x="1233" y="1100" as="targetPoint" />
          </mxGeometry>
        </mxCell>
        <mxCell id="ERFSE9Pxs8hPmbzX2arz-240" value="N" style="resizable=0;html=1;align=right;verticalAlign=bottom;" parent="ERFSE9Pxs8hPmbzX2arz-239" connectable="0" vertex="1">
          <mxGeometry x="1" relative="1" as="geometry" />
        </mxCell>
        <mxCell id="ERFSE9Pxs8hPmbzX2arz-241" value="" style="endArrow=none;html=1;rounded=0;entryX=0.5;entryY=1;entryDx=0;entryDy=0;exitX=0.5;exitY=0;exitDx=0;exitDy=0;" parent="1" source="ERFSE9Pxs8hPmbzX2arz-168" target="ERFSE9Pxs8hPmbzX2arz-238" edge="1">
          <mxGeometry relative="1" as="geometry">
            <mxPoint x="1141" y="1038" as="sourcePoint" />
            <mxPoint x="1433" y="1000" as="targetPoint" />
          </mxGeometry>
        </mxCell>
        <mxCell id="ERFSE9Pxs8hPmbzX2arz-242" value="1" style="resizable=0;html=1;align=right;verticalAlign=bottom;" parent="ERFSE9Pxs8hPmbzX2arz-241" connectable="0" vertex="1">
          <mxGeometry x="1" relative="1" as="geometry" />
        </mxCell>
        <mxCell id="ERFSE9Pxs8hPmbzX2arz-243" value="Favorite" style="shape=rhombus;perimeter=rhombusPerimeter;whiteSpace=wrap;html=1;align=center;" parent="1" vertex="1">
          <mxGeometry x="1662.5" y="1169" width="120" height="60" as="geometry" />
        </mxCell>
        <mxCell id="ERFSE9Pxs8hPmbzX2arz-248" value="" style="endArrow=none;html=1;rounded=0;entryX=1;entryY=0.5;entryDx=0;entryDy=0;exitX=0.5;exitY=0;exitDx=0;exitDy=0;" parent="1" source="ERFSE9Pxs8hPmbzX2arz-150" target="ERFSE9Pxs8hPmbzX2arz-243" edge="1">
          <mxGeometry relative="1" as="geometry">
            <mxPoint x="1930" y="1220" as="sourcePoint" />
            <mxPoint x="1700" y="1230" as="targetPoint" />
          </mxGeometry>
        </mxCell>
        <mxCell id="ERFSE9Pxs8hPmbzX2arz-249" value="N" style="resizable=0;html=1;align=right;verticalAlign=bottom;" parent="ERFSE9Pxs8hPmbzX2arz-248" connectable="0" vertex="1">
          <mxGeometry x="1" relative="1" as="geometry" />
        </mxCell>
        <mxCell id="ERFSE9Pxs8hPmbzX2arz-265" value="Parking" style="shape=rhombus;perimeter=rhombusPerimeter;whiteSpace=wrap;html=1;align=center;" parent="1" vertex="1">
          <mxGeometry x="1730" y="1255" width="120" height="60" as="geometry" />
        </mxCell>
        <mxCell id="ERFSE9Pxs8hPmbzX2arz-266" value="" style="shape=link;html=1;rounded=0;endArrow=none;endFill=0;entryX=0;entryY=0.5;entryDx=0;entryDy=0;exitX=0.5;exitY=0;exitDx=0;exitDy=0;" parent="1" source="ERFSE9Pxs8hPmbzX2arz-137" target="ERFSE9Pxs8hPmbzX2arz-265" edge="1">
          <mxGeometry relative="1" as="geometry">
            <mxPoint x="1644.5" y="1325.58" as="sourcePoint" />
            <mxPoint x="1545" y="1383.08" as="targetPoint" />
          </mxGeometry>
        </mxCell>
        <mxCell id="ERFSE9Pxs8hPmbzX2arz-267" value="N" style="resizable=0;html=1;align=right;verticalAlign=bottom;" parent="ERFSE9Pxs8hPmbzX2arz-266" connectable="0" vertex="1">
          <mxGeometry x="1" relative="1" as="geometry" />
        </mxCell>
        <mxCell id="ERFSE9Pxs8hPmbzX2arz-268" value="" style="endArrow=none;html=1;rounded=0;entryX=1;entryY=0.5;entryDx=0;entryDy=0;exitX=0;exitY=0.5;exitDx=0;exitDy=0;" parent="1" source="ERFSE9Pxs8hPmbzX2arz-150" target="ERFSE9Pxs8hPmbzX2arz-265" edge="1">
          <mxGeometry relative="1" as="geometry">
            <mxPoint x="2030.5" y="1245" as="sourcePoint" />
            <mxPoint x="2322.5" y="1207" as="targetPoint" />
          </mxGeometry>
        </mxCell>
        <mxCell id="ERFSE9Pxs8hPmbzX2arz-269" value="1" style="resizable=0;html=1;align=right;verticalAlign=bottom;" parent="ERFSE9Pxs8hPmbzX2arz-268" connectable="0" vertex="1">
          <mxGeometry x="1" relative="1" as="geometry" />
        </mxCell>
        <mxCell id="ERFSE9Pxs8hPmbzX2arz-273" value="" style="endArrow=none;html=1;rounded=0;exitX=1;exitY=0.5;exitDx=0;exitDy=0;entryX=0;entryY=0.5;entryDx=0;entryDy=0;" parent="1" source="ERFSE9Pxs8hPmbzX2arz-168" target="ERFSE9Pxs8hPmbzX2arz-243" edge="1">
          <mxGeometry relative="1" as="geometry">
            <mxPoint x="1453" y="1220" as="sourcePoint" />
            <mxPoint x="1613" y="1220" as="targetPoint" />
          </mxGeometry>
        </mxCell>
        <mxCell id="ERFSE9Pxs8hPmbzX2arz-274" value="M" style="resizable=0;html=1;align=right;verticalAlign=bottom;" parent="ERFSE9Pxs8hPmbzX2arz-273" connectable="0" vertex="1">
          <mxGeometry x="1" relative="1" as="geometry" />
        </mxCell>
        <mxCell id="ERFSE9Pxs8hPmbzX2arz-275" value="Rent" style="whiteSpace=wrap;html=1;align=center;" parent="1" vertex="1">
          <mxGeometry x="758" y="1298" width="100" height="40" as="geometry" />
        </mxCell>
        <mxCell id="ERFSE9Pxs8hPmbzX2arz-276" style="rounded=0;orthogonalLoop=1;jettySize=auto;html=1;exitX=0.5;exitY=0;exitDx=0;exitDy=0;entryX=0.5;entryY=1;entryDx=0;entryDy=0;endArrow=none;endFill=0;" parent="1" source="ERFSE9Pxs8hPmbzX2arz-277" target="ERFSE9Pxs8hPmbzX2arz-275" edge="1">
          <mxGeometry relative="1" as="geometry" />
        </mxCell>
        <mxCell id="ERFSE9Pxs8hPmbzX2arz-277" value="&lt;u&gt;uid&lt;/u&gt;" style="ellipse;whiteSpace=wrap;html=1;align=center;" parent="1" vertex="1">
          <mxGeometry x="621" y="1390" width="70" height="25" as="geometry" />
        </mxCell>
        <mxCell id="ERFSE9Pxs8hPmbzX2arz-278" value="last_position_lat" style="ellipse;whiteSpace=wrap;html=1;align=center;" parent="1" vertex="1">
          <mxGeometry x="751" y="1390" width="100" height="25" as="geometry" />
        </mxCell>
        <mxCell id="ERFSE9Pxs8hPmbzX2arz-279" value="last_position_lon" style="ellipse;whiteSpace=wrap;html=1;align=center;" parent="1" vertex="1">
          <mxGeometry x="822" y="1408" width="100" height="25" as="geometry" />
        </mxCell>
        <mxCell id="ERFSE9Pxs8hPmbzX2arz-280" style="rounded=0;orthogonalLoop=1;jettySize=auto;html=1;exitX=0.5;exitY=0;exitDx=0;exitDy=0;entryX=0.5;entryY=1;entryDx=0;entryDy=0;endArrow=none;endFill=0;" parent="1" source="ERFSE9Pxs8hPmbzX2arz-300" target="ERFSE9Pxs8hPmbzX2arz-275" edge="1">
          <mxGeometry relative="1" as="geometry">
            <mxPoint x="330" y="1443" as="sourcePoint" />
            <mxPoint x="605" y="1523" as="targetPoint" />
          </mxGeometry>
        </mxCell>
        <mxCell id="ERFSE9Pxs8hPmbzX2arz-281" style="rounded=0;orthogonalLoop=1;jettySize=auto;html=1;exitX=0.5;exitY=0;exitDx=0;exitDy=0;entryX=0.5;entryY=1;entryDx=0;entryDy=0;endArrow=none;endFill=0;" parent="1" source="ERFSE9Pxs8hPmbzX2arz-278" target="ERFSE9Pxs8hPmbzX2arz-275" edge="1">
          <mxGeometry relative="1" as="geometry">
            <mxPoint x="340" y="1453" as="sourcePoint" />
            <mxPoint x="615" y="1533" as="targetPoint" />
          </mxGeometry>
        </mxCell>
        <mxCell id="ERFSE9Pxs8hPmbzX2arz-282" style="rounded=0;orthogonalLoop=1;jettySize=auto;html=1;exitX=0.5;exitY=0;exitDx=0;exitDy=0;entryX=0.5;entryY=1;entryDx=0;entryDy=0;endArrow=none;endFill=0;" parent="1" source="ERFSE9Pxs8hPmbzX2arz-279" target="ERFSE9Pxs8hPmbzX2arz-275" edge="1">
          <mxGeometry relative="1" as="geometry">
            <mxPoint x="350" y="1463" as="sourcePoint" />
            <mxPoint x="625" y="1543" as="targetPoint" />
          </mxGeometry>
        </mxCell>
        <mxCell id="ERFSE9Pxs8hPmbzX2arz-283" value="updated_date" style="ellipse;whiteSpace=wrap;html=1;align=center;" parent="1" vertex="1">
          <mxGeometry x="941" y="1398" width="100" height="25" as="geometry" />
        </mxCell>
        <mxCell id="ERFSE9Pxs8hPmbzX2arz-284" style="rounded=0;orthogonalLoop=1;jettySize=auto;html=1;exitX=0.5;exitY=0;exitDx=0;exitDy=0;entryX=0.5;entryY=1;entryDx=0;entryDy=0;endArrow=none;endFill=0;" parent="1" source="ERFSE9Pxs8hPmbzX2arz-283" target="ERFSE9Pxs8hPmbzX2arz-275" edge="1">
          <mxGeometry relative="1" as="geometry">
            <mxPoint x="725" y="1408" as="sourcePoint" />
            <mxPoint x="585" y="1348" as="targetPoint" />
          </mxGeometry>
        </mxCell>
        <mxCell id="ERFSE9Pxs8hPmbzX2arz-287" style="edgeStyle=none;rounded=0;orthogonalLoop=1;jettySize=auto;html=1;exitX=0.5;exitY=0;exitDx=0;exitDy=0;entryX=0.5;entryY=1;entryDx=0;entryDy=0;endArrow=none;endFill=0;startArrow=none;" parent="1" source="ERFSE9Pxs8hPmbzX2arz-300" target="ERFSE9Pxs8hPmbzX2arz-275" edge="1">
          <mxGeometry relative="1" as="geometry" />
        </mxCell>
        <mxCell id="ERFSE9Pxs8hPmbzX2arz-288" value="return_date" style="ellipse;whiteSpace=wrap;html=1;align=center;" parent="1" vertex="1">
          <mxGeometry x="688" y="1415" width="77" height="25" as="geometry" />
        </mxCell>
        <mxCell id="ERFSE9Pxs8hPmbzX2arz-289" style="edgeStyle=none;rounded=0;orthogonalLoop=1;jettySize=auto;html=1;exitX=0.5;exitY=0;exitDx=0;exitDy=0;entryX=0.5;entryY=1;entryDx=0;entryDy=0;endArrow=none;endFill=0;" parent="1" source="ERFSE9Pxs8hPmbzX2arz-290" target="ERFSE9Pxs8hPmbzX2arz-275" edge="1">
          <mxGeometry relative="1" as="geometry" />
        </mxCell>
        <mxCell id="ERFSE9Pxs8hPmbzX2arz-290" value="distance" style="ellipse;whiteSpace=wrap;html=1;align=center;" parent="1" vertex="1">
          <mxGeometry x="871" y="1383" width="57" height="25" as="geometry" />
        </mxCell>
        <mxCell id="ERFSE9Pxs8hPmbzX2arz-299" value="" style="edgeStyle=none;rounded=0;orthogonalLoop=1;jettySize=auto;html=1;exitX=0.5;exitY=0;exitDx=0;exitDy=0;entryX=0.5;entryY=1;entryDx=0;entryDy=0;endArrow=none;endFill=0;" parent="1" source="ERFSE9Pxs8hPmbzX2arz-288" target="ERFSE9Pxs8hPmbzX2arz-275" edge="1">
          <mxGeometry relative="1" as="geometry">
            <mxPoint x="589.5" y="1398" as="sourcePoint" />
            <mxPoint x="808" y="1338" as="targetPoint" />
          </mxGeometry>
        </mxCell>
        <mxCell id="ERFSE9Pxs8hPmbzX2arz-300" value="start_date" style="ellipse;whiteSpace=wrap;html=1;align=center;" parent="1" vertex="1">
          <mxGeometry x="694" y="1383" width="57" height="25" as="geometry" />
        </mxCell>
        <mxCell id="ERFSE9Pxs8hPmbzX2arz-301" value="borrower" style="shape=rhombus;perimeter=rhombusPerimeter;whiteSpace=wrap;html=1;align=center;" parent="1" vertex="1">
          <mxGeometry x="858" y="1200" width="120" height="60" as="geometry" />
        </mxCell>
        <mxCell id="ERFSE9Pxs8hPmbzX2arz-302" value="" style="shape=link;html=1;rounded=0;endArrow=none;endFill=0;entryX=0;entryY=0.5;entryDx=0;entryDy=0;exitX=0.5;exitY=0;exitDx=0;exitDy=0;" parent="1" source="ERFSE9Pxs8hPmbzX2arz-275" target="ERFSE9Pxs8hPmbzX2arz-301" edge="1">
          <mxGeometry relative="1" as="geometry">
            <mxPoint x="1111" y="1028" as="sourcePoint" />
            <mxPoint x="1230" y="1087.5" as="targetPoint" />
          </mxGeometry>
        </mxCell>
        <mxCell id="ERFSE9Pxs8hPmbzX2arz-303" value="N" style="resizable=0;html=1;align=right;verticalAlign=bottom;" parent="ERFSE9Pxs8hPmbzX2arz-302" connectable="0" vertex="1">
          <mxGeometry x="1" relative="1" as="geometry" />
        </mxCell>
        <mxCell id="ERFSE9Pxs8hPmbzX2arz-304" value="" style="endArrow=none;html=1;rounded=0;entryX=1;entryY=0.5;entryDx=0;entryDy=0;exitX=0;exitY=0.5;exitDx=0;exitDy=0;" parent="1" source="ERFSE9Pxs8hPmbzX2arz-168" target="ERFSE9Pxs8hPmbzX2arz-301" edge="1">
          <mxGeometry relative="1" as="geometry">
            <mxPoint x="1111" y="988" as="sourcePoint" />
            <mxPoint x="1236.5" y="930" as="targetPoint" />
          </mxGeometry>
        </mxCell>
        <mxCell id="ERFSE9Pxs8hPmbzX2arz-305" value="1" style="resizable=0;html=1;align=right;verticalAlign=bottom;" parent="ERFSE9Pxs8hPmbzX2arz-304" connectable="0" vertex="1">
          <mxGeometry x="1" relative="1" as="geometry" />
        </mxCell>
        <mxCell id="ERFSE9Pxs8hPmbzX2arz-306" value="rent_bike" style="shape=rhombus;perimeter=rhombusPerimeter;whiteSpace=wrap;html=1;align=center;" parent="1" vertex="1">
          <mxGeometry x="1190" y="1390" width="120" height="60" as="geometry" />
        </mxCell>
        <mxCell id="ERFSE9Pxs8hPmbzX2arz-307" value="" style="shape=link;html=1;rounded=0;endArrow=none;endFill=0;entryX=0;entryY=0.5;entryDx=0;entryDy=0;exitX=1;exitY=0.5;exitDx=0;exitDy=0;" parent="1" source="ERFSE9Pxs8hPmbzX2arz-275" target="ERFSE9Pxs8hPmbzX2arz-306" edge="1">
          <mxGeometry relative="1" as="geometry">
            <mxPoint x="860" y="1320" as="sourcePoint" />
            <mxPoint x="868" y="1240" as="targetPoint" />
          </mxGeometry>
        </mxCell>
        <mxCell id="ERFSE9Pxs8hPmbzX2arz-308" value="N" style="resizable=0;html=1;align=right;verticalAlign=bottom;" parent="ERFSE9Pxs8hPmbzX2arz-307" connectable="0" vertex="1">
          <mxGeometry x="1" relative="1" as="geometry" />
        </mxCell>
        <mxCell id="ERFSE9Pxs8hPmbzX2arz-312" value="" style="endArrow=none;html=1;rounded=0;entryX=1;entryY=0.5;entryDx=0;entryDy=0;exitX=0;exitY=0.5;exitDx=0;exitDy=0;" parent="1" source="ERFSE9Pxs8hPmbzX2arz-137" target="ERFSE9Pxs8hPmbzX2arz-306" edge="1">
          <mxGeometry relative="1" as="geometry">
            <mxPoint x="1237" y="1220" as="sourcePoint" />
            <mxPoint x="988" y="1240" as="targetPoint" />
          </mxGeometry>
        </mxCell>
        <mxCell id="ERFSE9Pxs8hPmbzX2arz-313" value="1" style="resizable=0;html=1;align=right;verticalAlign=bottom;" parent="ERFSE9Pxs8hPmbzX2arz-312" connectable="0" vertex="1">
          <mxGeometry x="1" relative="1" as="geometry" />
        </mxCell>
        <mxCell id="ERFSE9Pxs8hPmbzX2arz-314" value="rent_station" style="shape=rhombus;perimeter=rhombusPerimeter;whiteSpace=wrap;html=1;align=center;" parent="1" vertex="1">
          <mxGeometry x="1190" y="1460.58" width="120" height="60" as="geometry" />
        </mxCell>
        <mxCell id="ERFSE9Pxs8hPmbzX2arz-315" value="" style="shape=link;html=1;rounded=0;endArrow=none;endFill=0;entryX=0;entryY=0.5;entryDx=0;entryDy=0;exitX=1;exitY=0.5;exitDx=0;exitDy=0;" parent="1" source="ERFSE9Pxs8hPmbzX2arz-275" target="ERFSE9Pxs8hPmbzX2arz-314" edge="1">
          <mxGeometry relative="1" as="geometry">
            <mxPoint x="868" y="1328" as="sourcePoint" />
            <mxPoint x="1200" y="1430" as="targetPoint" />
          </mxGeometry>
        </mxCell>
        <mxCell id="ERFSE9Pxs8hPmbzX2arz-316" value="N" style="resizable=0;html=1;align=right;verticalAlign=bottom;" parent="ERFSE9Pxs8hPmbzX2arz-315" connectable="0" vertex="1">
          <mxGeometry x="1" relative="1" as="geometry" />
        </mxCell>
        <mxCell id="ERFSE9Pxs8hPmbzX2arz-319" value="" style="endArrow=none;html=1;rounded=0;entryX=1;entryY=0.5;entryDx=0;entryDy=0;exitX=0;exitY=0.5;exitDx=0;exitDy=0;" parent="1" source="ERFSE9Pxs8hPmbzX2arz-150" target="ERFSE9Pxs8hPmbzX2arz-314" edge="1">
          <mxGeometry relative="1" as="geometry">
            <mxPoint x="1665" y="1425.58" as="sourcePoint" />
            <mxPoint x="1320" y="1430" as="targetPoint" />
          </mxGeometry>
        </mxCell>
        <mxCell id="ERFSE9Pxs8hPmbzX2arz-320" value="1" style="resizable=0;html=1;align=right;verticalAlign=bottom;" parent="ERFSE9Pxs8hPmbzX2arz-319" connectable="0" vertex="1">
          <mxGeometry x="1" relative="1" as="geometry" />
        </mxCell>
        <mxCell id="ERFSE9Pxs8hPmbzX2arz-321" value="return_station" style="shape=rhombus;perimeter=rhombusPerimeter;whiteSpace=wrap;html=1;align=center;" parent="1" vertex="1">
          <mxGeometry x="1190" y="1530" width="120" height="60" as="geometry" />
        </mxCell>
        <mxCell id="ERFSE9Pxs8hPmbzX2arz-322" value="" style="shape=link;html=1;rounded=0;endArrow=none;endFill=0;entryX=0;entryY=0.5;entryDx=0;entryDy=0;exitX=1;exitY=0.5;exitDx=0;exitDy=0;" parent="1" source="ERFSE9Pxs8hPmbzX2arz-275" target="ERFSE9Pxs8hPmbzX2arz-321" edge="1">
          <mxGeometry relative="1" as="geometry">
            <mxPoint x="868" y="1328" as="sourcePoint" />
            <mxPoint x="1200" y="1500.58" as="targetPoint" />
          </mxGeometry>
        </mxCell>
        <mxCell id="ERFSE9Pxs8hPmbzX2arz-323" value="N" style="resizable=0;html=1;align=right;verticalAlign=bottom;" parent="ERFSE9Pxs8hPmbzX2arz-322" connectable="0" vertex="1">
          <mxGeometry x="1" relative="1" as="geometry" />
        </mxCell>
        <mxCell id="ERFSE9Pxs8hPmbzX2arz-324" value="" style="endArrow=none;html=1;rounded=0;entryX=1;entryY=0.5;entryDx=0;entryDy=0;exitX=0;exitY=0.5;exitDx=0;exitDy=0;" parent="1" source="ERFSE9Pxs8hPmbzX2arz-150" target="ERFSE9Pxs8hPmbzX2arz-321" edge="1">
          <mxGeometry relative="1" as="geometry">
            <mxPoint x="1980" y="1280" as="sourcePoint" />
            <mxPoint x="1320" y="1500.58" as="targetPoint" />
          </mxGeometry>
        </mxCell>
        <mxCell id="ERFSE9Pxs8hPmbzX2arz-325" value="1" style="resizable=0;html=1;align=right;verticalAlign=bottom;" parent="ERFSE9Pxs8hPmbzX2arz-324" connectable="0" vertex="1">
          <mxGeometry x="1" relative="1" as="geometry" />
        </mxCell>
        <mxCell id="ERFSE9Pxs8hPmbzX2arz-326" value="Ticket_detail" style="whiteSpace=wrap;html=1;align=center;" parent="1" vertex="1">
          <mxGeometry x="795" y="1590" width="100" height="40" as="geometry" />
        </mxCell>
        <mxCell id="ERFSE9Pxs8hPmbzX2arz-327" style="rounded=0;orthogonalLoop=1;jettySize=auto;html=1;exitX=0.5;exitY=0;exitDx=0;exitDy=0;entryX=0.5;entryY=1;entryDx=0;entryDy=0;endArrow=none;endFill=0;" parent="1" source="ERFSE9Pxs8hPmbzX2arz-328" target="ERFSE9Pxs8hPmbzX2arz-326" edge="1">
          <mxGeometry relative="1" as="geometry" />
        </mxCell>
        <mxCell id="ERFSE9Pxs8hPmbzX2arz-328" value="&lt;u&gt;uid&lt;/u&gt;" style="ellipse;whiteSpace=wrap;html=1;align=center;" parent="1" vertex="1">
          <mxGeometry x="691" y="1682" width="70" height="25" as="geometry" />
        </mxCell>
        <mxCell id="ERFSE9Pxs8hPmbzX2arz-331" style="rounded=0;orthogonalLoop=1;jettySize=auto;html=1;exitX=0.5;exitY=0;exitDx=0;exitDy=0;entryX=0.5;entryY=1;entryDx=0;entryDy=0;endArrow=none;endFill=0;" parent="1" source="ERFSE9Pxs8hPmbzX2arz-341" target="ERFSE9Pxs8hPmbzX2arz-326" edge="1">
          <mxGeometry relative="1" as="geometry">
            <mxPoint x="367" y="1735" as="sourcePoint" />
            <mxPoint x="642" y="1815" as="targetPoint" />
          </mxGeometry>
        </mxCell>
        <mxCell id="ERFSE9Pxs8hPmbzX2arz-334" value="created_date" style="ellipse;whiteSpace=wrap;html=1;align=center;" parent="1" vertex="1">
          <mxGeometry x="858" y="1665" width="100" height="25" as="geometry" />
        </mxCell>
        <mxCell id="ERFSE9Pxs8hPmbzX2arz-335" style="rounded=0;orthogonalLoop=1;jettySize=auto;html=1;exitX=0.5;exitY=0;exitDx=0;exitDy=0;entryX=0.5;entryY=1;entryDx=0;entryDy=0;endArrow=none;endFill=0;" parent="1" source="ERFSE9Pxs8hPmbzX2arz-334" target="ERFSE9Pxs8hPmbzX2arz-326" edge="1">
          <mxGeometry relative="1" as="geometry">
            <mxPoint x="762" y="1700" as="sourcePoint" />
            <mxPoint x="622" y="1640" as="targetPoint" />
          </mxGeometry>
        </mxCell>
        <mxCell id="ERFSE9Pxs8hPmbzX2arz-336" style="edgeStyle=none;rounded=0;orthogonalLoop=1;jettySize=auto;html=1;exitX=0.5;exitY=0;exitDx=0;exitDy=0;entryX=0.5;entryY=1;entryDx=0;entryDy=0;endArrow=none;endFill=0;startArrow=none;" parent="1" source="ERFSE9Pxs8hPmbzX2arz-341" target="ERFSE9Pxs8hPmbzX2arz-326" edge="1">
          <mxGeometry relative="1" as="geometry" />
        </mxCell>
        <mxCell id="ERFSE9Pxs8hPmbzX2arz-337" value="activation" style="ellipse;whiteSpace=wrap;html=1;align=center;" parent="1" vertex="1">
          <mxGeometry x="799" y="1690" width="77" height="25" as="geometry" />
        </mxCell>
        <mxCell id="ERFSE9Pxs8hPmbzX2arz-340" value="" style="edgeStyle=none;rounded=0;orthogonalLoop=1;jettySize=auto;html=1;exitX=0.5;exitY=0;exitDx=0;exitDy=0;entryX=0.5;entryY=1;entryDx=0;entryDy=0;endArrow=none;endFill=0;" parent="1" source="ERFSE9Pxs8hPmbzX2arz-337" target="ERFSE9Pxs8hPmbzX2arz-326" edge="1">
          <mxGeometry relative="1" as="geometry">
            <mxPoint x="626.5" y="1690" as="sourcePoint" />
            <mxPoint x="845" y="1630" as="targetPoint" />
          </mxGeometry>
        </mxCell>
        <mxCell id="ERFSE9Pxs8hPmbzX2arz-341" value="start_date" style="ellipse;whiteSpace=wrap;html=1;align=center;" parent="1" vertex="1">
          <mxGeometry x="761" y="1667.42" width="57" height="25" as="geometry" />
        </mxCell>
        <mxCell id="ERFSE9Pxs8hPmbzX2arz-342" value="owner" style="shape=rhombus;perimeter=rhombusPerimeter;whiteSpace=wrap;html=1;align=center;" parent="1" vertex="1">
          <mxGeometry x="940" y="1520.58" width="120" height="60" as="geometry" />
        </mxCell>
        <mxCell id="ERFSE9Pxs8hPmbzX2arz-343" value="" style="shape=link;html=1;rounded=0;endArrow=none;endFill=0;entryX=0;entryY=0.5;entryDx=0;entryDy=0;exitX=0.5;exitY=0;exitDx=0;exitDy=0;" parent="1" source="ERFSE9Pxs8hPmbzX2arz-326" target="ERFSE9Pxs8hPmbzX2arz-342" edge="1">
          <mxGeometry relative="1" as="geometry">
            <mxPoint x="868" y="1328" as="sourcePoint" />
            <mxPoint x="1200" y="1570" as="targetPoint" />
          </mxGeometry>
        </mxCell>
        <mxCell id="ERFSE9Pxs8hPmbzX2arz-344" value="N" style="resizable=0;html=1;align=right;verticalAlign=bottom;" parent="ERFSE9Pxs8hPmbzX2arz-343" connectable="0" vertex="1">
          <mxGeometry x="1" relative="1" as="geometry" />
        </mxCell>
        <mxCell id="ERFSE9Pxs8hPmbzX2arz-345" value="" style="endArrow=none;html=1;rounded=0;entryX=1;entryY=0.5;entryDx=0;entryDy=0;exitX=0;exitY=0.5;exitDx=0;exitDy=0;" parent="1" source="ERFSE9Pxs8hPmbzX2arz-168" target="ERFSE9Pxs8hPmbzX2arz-342" edge="1">
          <mxGeometry relative="1" as="geometry">
            <mxPoint x="1980" y="1280" as="sourcePoint" />
            <mxPoint x="1320" y="1570" as="targetPoint" />
          </mxGeometry>
        </mxCell>
        <mxCell id="ERFSE9Pxs8hPmbzX2arz-346" value="1" style="resizable=0;html=1;align=right;verticalAlign=bottom;" parent="ERFSE9Pxs8hPmbzX2arz-345" connectable="0" vertex="1">
          <mxGeometry x="1" relative="1" as="geometry" />
        </mxCell>
        <mxCell id="ERFSE9Pxs8hPmbzX2arz-347" value="Ticket" style="whiteSpace=wrap;html=1;align=center;" parent="1" vertex="1">
          <mxGeometry x="424" y="1530" width="100" height="40" as="geometry" />
        </mxCell>
        <mxCell id="ERFSE9Pxs8hPmbzX2arz-348" style="rounded=0;orthogonalLoop=1;jettySize=auto;html=1;exitX=0.5;exitY=0;exitDx=0;exitDy=0;entryX=0.5;entryY=1;entryDx=0;entryDy=0;endArrow=none;endFill=0;" parent="1" source="ERFSE9Pxs8hPmbzX2arz-349" target="ERFSE9Pxs8hPmbzX2arz-347" edge="1">
          <mxGeometry relative="1" as="geometry" />
        </mxCell>
        <mxCell id="ERFSE9Pxs8hPmbzX2arz-349" value="&lt;u&gt;ticket_id&lt;/u&gt;" style="ellipse;whiteSpace=wrap;html=1;align=center;" parent="1" vertex="1">
          <mxGeometry x="260" y="1621.5" width="70" height="25" as="geometry" />
        </mxCell>
        <mxCell id="ERFSE9Pxs8hPmbzX2arz-350" value="cost" style="ellipse;whiteSpace=wrap;html=1;align=center;" parent="1" vertex="1">
          <mxGeometry x="404" y="1621.5" width="100" height="25" as="geometry" />
        </mxCell>
        <mxCell id="ERFSE9Pxs8hPmbzX2arz-351" value="isvalid" style="ellipse;whiteSpace=wrap;html=1;align=center;" parent="1" vertex="1">
          <mxGeometry x="475" y="1639.5" width="100" height="25" as="geometry" />
        </mxCell>
        <mxCell id="ERFSE9Pxs8hPmbzX2arz-352" style="rounded=0;orthogonalLoop=1;jettySize=auto;html=1;exitX=0.5;exitY=0;exitDx=0;exitDy=0;entryX=0.5;entryY=1;entryDx=0;entryDy=0;endArrow=none;endFill=0;" parent="1" source="ERFSE9Pxs8hPmbzX2arz-362" target="ERFSE9Pxs8hPmbzX2arz-347" edge="1">
          <mxGeometry relative="1" as="geometry">
            <mxPoint x="-17" y="1674.5" as="sourcePoint" />
            <mxPoint x="258" y="1754.5" as="targetPoint" />
          </mxGeometry>
        </mxCell>
        <mxCell id="ERFSE9Pxs8hPmbzX2arz-353" style="rounded=0;orthogonalLoop=1;jettySize=auto;html=1;exitX=0.5;exitY=0;exitDx=0;exitDy=0;entryX=0.5;entryY=1;entryDx=0;entryDy=0;endArrow=none;endFill=0;" parent="1" source="ERFSE9Pxs8hPmbzX2arz-350" target="ERFSE9Pxs8hPmbzX2arz-347" edge="1">
          <mxGeometry relative="1" as="geometry">
            <mxPoint x="-7" y="1684.5" as="sourcePoint" />
            <mxPoint x="268" y="1764.5" as="targetPoint" />
          </mxGeometry>
        </mxCell>
        <mxCell id="ERFSE9Pxs8hPmbzX2arz-354" style="rounded=0;orthogonalLoop=1;jettySize=auto;html=1;exitX=0.5;exitY=0;exitDx=0;exitDy=0;entryX=0.5;entryY=1;entryDx=0;entryDy=0;endArrow=none;endFill=0;" parent="1" source="ERFSE9Pxs8hPmbzX2arz-351" target="ERFSE9Pxs8hPmbzX2arz-347" edge="1">
          <mxGeometry relative="1" as="geometry">
            <mxPoint x="3" y="1694.5" as="sourcePoint" />
            <mxPoint x="278" y="1774.5" as="targetPoint" />
          </mxGeometry>
        </mxCell>
        <mxCell id="ERFSE9Pxs8hPmbzX2arz-355" value="updated_date" style="ellipse;whiteSpace=wrap;html=1;align=center;" parent="1" vertex="1">
          <mxGeometry x="594" y="1629.5" width="100" height="25" as="geometry" />
        </mxCell>
        <mxCell id="ERFSE9Pxs8hPmbzX2arz-356" style="rounded=0;orthogonalLoop=1;jettySize=auto;html=1;exitX=0.5;exitY=0;exitDx=0;exitDy=0;entryX=0.5;entryY=1;entryDx=0;entryDy=0;endArrow=none;endFill=0;" parent="1" source="ERFSE9Pxs8hPmbzX2arz-355" target="ERFSE9Pxs8hPmbzX2arz-347" edge="1">
          <mxGeometry relative="1" as="geometry">
            <mxPoint x="378" y="1639.5" as="sourcePoint" />
            <mxPoint x="238" y="1579.5" as="targetPoint" />
          </mxGeometry>
        </mxCell>
        <mxCell id="ERFSE9Pxs8hPmbzX2arz-357" style="edgeStyle=none;rounded=0;orthogonalLoop=1;jettySize=auto;html=1;exitX=0.5;exitY=0;exitDx=0;exitDy=0;entryX=0.5;entryY=1;entryDx=0;entryDy=0;endArrow=none;endFill=0;startArrow=none;" parent="1" source="ERFSE9Pxs8hPmbzX2arz-362" target="ERFSE9Pxs8hPmbzX2arz-347" edge="1">
          <mxGeometry relative="1" as="geometry" />
        </mxCell>
        <mxCell id="ERFSE9Pxs8hPmbzX2arz-358" value="hours" style="ellipse;whiteSpace=wrap;html=1;align=center;" parent="1" vertex="1">
          <mxGeometry x="341" y="1646.5" width="77" height="25" as="geometry" />
        </mxCell>
        <mxCell id="ERFSE9Pxs8hPmbzX2arz-359" style="edgeStyle=none;rounded=0;orthogonalLoop=1;jettySize=auto;html=1;exitX=0.5;exitY=0;exitDx=0;exitDy=0;entryX=0.5;entryY=1;entryDx=0;entryDy=0;endArrow=none;endFill=0;" parent="1" source="ERFSE9Pxs8hPmbzX2arz-360" target="ERFSE9Pxs8hPmbzX2arz-347" edge="1">
          <mxGeometry relative="1" as="geometry" />
        </mxCell>
        <mxCell id="ERFSE9Pxs8hPmbzX2arz-360" value="created_date" style="ellipse;whiteSpace=wrap;html=1;align=center;" parent="1" vertex="1">
          <mxGeometry x="524" y="1614.5" width="85" height="25" as="geometry" />
        </mxCell>
        <mxCell id="ERFSE9Pxs8hPmbzX2arz-361" value="" style="edgeStyle=none;rounded=0;orthogonalLoop=1;jettySize=auto;html=1;exitX=0.5;exitY=0;exitDx=0;exitDy=0;entryX=0.5;entryY=1;entryDx=0;entryDy=0;endArrow=none;endFill=0;" parent="1" source="ERFSE9Pxs8hPmbzX2arz-358" target="ERFSE9Pxs8hPmbzX2arz-347" edge="1">
          <mxGeometry relative="1" as="geometry">
            <mxPoint x="242.5" y="1629.5" as="sourcePoint" />
            <mxPoint x="461" y="1569.5" as="targetPoint" />
          </mxGeometry>
        </mxCell>
        <mxCell id="ERFSE9Pxs8hPmbzX2arz-362" value="ticket_type" style="ellipse;whiteSpace=wrap;html=1;align=center;" parent="1" vertex="1">
          <mxGeometry x="330" y="1614.5" width="74" height="25" as="geometry" />
        </mxCell>
        <mxCell id="ERFSE9Pxs8hPmbzX2arz-363" value="Affiliation" style="shape=rhombus;perimeter=rhombusPerimeter;whiteSpace=wrap;html=1;align=center;" parent="1" vertex="1">
          <mxGeometry x="630" y="1520" width="120" height="60" as="geometry" />
        </mxCell>
        <mxCell id="ERFSE9Pxs8hPmbzX2arz-364" value="" style="shape=link;html=1;rounded=0;endArrow=none;endFill=0;entryX=1;entryY=0.5;entryDx=0;entryDy=0;exitX=0.5;exitY=0;exitDx=0;exitDy=0;" parent="1" source="ERFSE9Pxs8hPmbzX2arz-326" target="ERFSE9Pxs8hPmbzX2arz-363" edge="1">
          <mxGeometry relative="1" as="geometry">
            <mxPoint x="855" y="1600" as="sourcePoint" />
            <mxPoint x="950" y="1560.58" as="targetPoint" />
          </mxGeometry>
        </mxCell>
        <mxCell id="ERFSE9Pxs8hPmbzX2arz-365" value="N" style="resizable=0;html=1;align=right;verticalAlign=bottom;" parent="ERFSE9Pxs8hPmbzX2arz-364" connectable="0" vertex="1">
          <mxGeometry x="1" relative="1" as="geometry" />
        </mxCell>
        <mxCell id="ERFSE9Pxs8hPmbzX2arz-366" value="" style="endArrow=none;html=1;rounded=0;entryX=0;entryY=0.5;entryDx=0;entryDy=0;exitX=1;exitY=0.5;exitDx=0;exitDy=0;" parent="1" source="ERFSE9Pxs8hPmbzX2arz-347" target="ERFSE9Pxs8hPmbzX2arz-363" edge="1">
          <mxGeometry relative="1" as="geometry">
            <mxPoint x="1237" y="1220" as="sourcePoint" />
            <mxPoint x="988" y="1240" as="targetPoint" />
          </mxGeometry>
        </mxCell>
        <mxCell id="ERFSE9Pxs8hPmbzX2arz-367" value="1" style="resizable=0;html=1;align=right;verticalAlign=bottom;" parent="ERFSE9Pxs8hPmbzX2arz-366" connectable="0" vertex="1">
          <mxGeometry x="1" relative="1" as="geometry" />
        </mxCell>
        <mxCell id="ERFSE9Pxs8hPmbzX2arz-368" value="Ticket_detail_expired" style="whiteSpace=wrap;html=1;align=center;" parent="1" vertex="1">
          <mxGeometry x="1061.5" y="1646.5" width="100" height="40" as="geometry" />
        </mxCell>
        <mxCell id="ERFSE9Pxs8hPmbzX2arz-369" style="rounded=0;orthogonalLoop=1;jettySize=auto;html=1;exitX=0.5;exitY=0;exitDx=0;exitDy=0;entryX=0.5;entryY=1;entryDx=0;entryDy=0;endArrow=none;endFill=0;" parent="1" source="ERFSE9Pxs8hPmbzX2arz-370" target="ERFSE9Pxs8hPmbzX2arz-368" edge="1">
          <mxGeometry relative="1" as="geometry" />
        </mxCell>
        <mxCell id="ERFSE9Pxs8hPmbzX2arz-370" value="&lt;u&gt;uid&lt;/u&gt;" style="ellipse;whiteSpace=wrap;html=1;align=center;" parent="1" vertex="1">
          <mxGeometry x="957.5" y="1738.5" width="70" height="25" as="geometry" />
        </mxCell>
        <mxCell id="ERFSE9Pxs8hPmbzX2arz-371" style="rounded=0;orthogonalLoop=1;jettySize=auto;html=1;exitX=0.5;exitY=0;exitDx=0;exitDy=0;entryX=0.5;entryY=1;entryDx=0;entryDy=0;endArrow=none;endFill=0;" parent="1" source="ERFSE9Pxs8hPmbzX2arz-377" target="ERFSE9Pxs8hPmbzX2arz-368" edge="1">
          <mxGeometry relative="1" as="geometry">
            <mxPoint x="633.5" y="1791.5" as="sourcePoint" />
            <mxPoint x="908.5" y="1871.5" as="targetPoint" />
          </mxGeometry>
        </mxCell>
        <mxCell id="ERFSE9Pxs8hPmbzX2arz-372" value="created_date" style="ellipse;whiteSpace=wrap;html=1;align=center;" parent="1" vertex="1">
          <mxGeometry x="1124.5" y="1721.5" width="100" height="25" as="geometry" />
        </mxCell>
        <mxCell id="ERFSE9Pxs8hPmbzX2arz-373" style="rounded=0;orthogonalLoop=1;jettySize=auto;html=1;exitX=0.5;exitY=0;exitDx=0;exitDy=0;entryX=0.5;entryY=1;entryDx=0;entryDy=0;endArrow=none;endFill=0;" parent="1" source="ERFSE9Pxs8hPmbzX2arz-372" target="ERFSE9Pxs8hPmbzX2arz-368" edge="1">
          <mxGeometry relative="1" as="geometry">
            <mxPoint x="1028.5" y="1756.5" as="sourcePoint" />
            <mxPoint x="888.5" y="1696.5" as="targetPoint" />
          </mxGeometry>
        </mxCell>
        <mxCell id="ERFSE9Pxs8hPmbzX2arz-374" style="edgeStyle=none;rounded=0;orthogonalLoop=1;jettySize=auto;html=1;exitX=0.5;exitY=0;exitDx=0;exitDy=0;entryX=0.5;entryY=1;entryDx=0;entryDy=0;endArrow=none;endFill=0;startArrow=none;" parent="1" source="ERFSE9Pxs8hPmbzX2arz-377" target="ERFSE9Pxs8hPmbzX2arz-368" edge="1">
          <mxGeometry relative="1" as="geometry" />
        </mxCell>
        <mxCell id="ERFSE9Pxs8hPmbzX2arz-375" value="activation" style="ellipse;whiteSpace=wrap;html=1;align=center;" parent="1" vertex="1">
          <mxGeometry x="1065.5" y="1746.5" width="77" height="25" as="geometry" />
        </mxCell>
        <mxCell id="ERFSE9Pxs8hPmbzX2arz-376" value="" style="edgeStyle=none;rounded=0;orthogonalLoop=1;jettySize=auto;html=1;exitX=0.5;exitY=0;exitDx=0;exitDy=0;entryX=0.5;entryY=1;entryDx=0;entryDy=0;endArrow=none;endFill=0;" parent="1" source="ERFSE9Pxs8hPmbzX2arz-375" target="ERFSE9Pxs8hPmbzX2arz-368" edge="1">
          <mxGeometry relative="1" as="geometry">
            <mxPoint x="893" y="1746.5" as="sourcePoint" />
            <mxPoint x="1111.5" y="1686.5" as="targetPoint" />
          </mxGeometry>
        </mxCell>
        <mxCell id="ERFSE9Pxs8hPmbzX2arz-377" value="start_date" style="ellipse;whiteSpace=wrap;html=1;align=center;" parent="1" vertex="1">
          <mxGeometry x="1027.5" y="1723.92" width="57" height="25" as="geometry" />
        </mxCell>
        <mxCell id="ERFSE9Pxs8hPmbzX2arz-378" value="owner" style="shape=rhombus;perimeter=rhombusPerimeter;whiteSpace=wrap;html=1;align=center;" parent="1" vertex="1">
          <mxGeometry x="1051.5" y="1554.5" width="120" height="60" as="geometry" />
        </mxCell>
        <mxCell id="ERFSE9Pxs8hPmbzX2arz-379" value="" style="endArrow=none;html=1;rounded=0;entryX=0.5;entryY=0;entryDx=0;entryDy=0;exitX=0;exitY=0.5;exitDx=0;exitDy=0;" parent="1" source="ERFSE9Pxs8hPmbzX2arz-168" target="ERFSE9Pxs8hPmbzX2arz-378" edge="1">
          <mxGeometry relative="1" as="geometry">
            <mxPoint x="1237" y="1220" as="sourcePoint" />
            <mxPoint x="1070" y="1560.58" as="targetPoint" />
          </mxGeometry>
        </mxCell>
        <mxCell id="ERFSE9Pxs8hPmbzX2arz-380" value="1" style="resizable=0;html=1;align=right;verticalAlign=bottom;" parent="ERFSE9Pxs8hPmbzX2arz-379" connectable="0" vertex="1">
          <mxGeometry x="1" relative="1" as="geometry" />
        </mxCell>
        <mxCell id="ERFSE9Pxs8hPmbzX2arz-381" value="" style="shape=link;html=1;rounded=0;endArrow=none;endFill=0;entryX=0.5;entryY=1;entryDx=0;entryDy=0;exitX=0.5;exitY=0;exitDx=0;exitDy=0;" parent="1" source="ERFSE9Pxs8hPmbzX2arz-368" target="ERFSE9Pxs8hPmbzX2arz-378" edge="1">
          <mxGeometry relative="1" as="geometry">
            <mxPoint x="855" y="1600" as="sourcePoint" />
            <mxPoint x="950" y="1560.58" as="targetPoint" />
          </mxGeometry>
        </mxCell>
        <mxCell id="ERFSE9Pxs8hPmbzX2arz-382" value="N" style="resizable=0;html=1;align=right;verticalAlign=bottom;" parent="ERFSE9Pxs8hPmbzX2arz-381" connectable="0" vertex="1">
          <mxGeometry x="1" relative="1" as="geometry" />
        </mxCell>
        <mxCell id="ERFSE9Pxs8hPmbzX2arz-383" value="Ticket_gift" style="whiteSpace=wrap;html=1;align=center;" parent="1" vertex="1">
          <mxGeometry x="299.5" y="1816.79" width="100" height="40" as="geometry" />
        </mxCell>
        <mxCell id="ERFSE9Pxs8hPmbzX2arz-384" style="rounded=0;orthogonalLoop=1;jettySize=auto;html=1;exitX=0.5;exitY=0;exitDx=0;exitDy=0;entryX=0.5;entryY=1;entryDx=0;entryDy=0;endArrow=none;endFill=0;" parent="1" source="ERFSE9Pxs8hPmbzX2arz-385" target="ERFSE9Pxs8hPmbzX2arz-383" edge="1">
          <mxGeometry relative="1" as="geometry" />
        </mxCell>
        <mxCell id="ERFSE9Pxs8hPmbzX2arz-385" value="&lt;u&gt;uid&lt;/u&gt;" style="ellipse;whiteSpace=wrap;html=1;align=center;" parent="1" vertex="1">
          <mxGeometry x="277.5" y="1887.87" width="70" height="25" as="geometry" />
        </mxCell>
        <mxCell id="ERFSE9Pxs8hPmbzX2arz-387" value="created_date" style="ellipse;whiteSpace=wrap;html=1;align=center;" parent="1" vertex="1">
          <mxGeometry x="362.5" y="1891.79" width="100" height="25" as="geometry" />
        </mxCell>
        <mxCell id="ERFSE9Pxs8hPmbzX2arz-388" style="rounded=0;orthogonalLoop=1;jettySize=auto;html=1;exitX=0.5;exitY=0;exitDx=0;exitDy=0;entryX=0.5;entryY=1;entryDx=0;entryDy=0;endArrow=none;endFill=0;" parent="1" source="ERFSE9Pxs8hPmbzX2arz-387" target="ERFSE9Pxs8hPmbzX2arz-383" edge="1">
          <mxGeometry relative="1" as="geometry">
            <mxPoint x="266.5" y="1926.79" as="sourcePoint" />
            <mxPoint x="126.5" y="1866.79" as="targetPoint" />
          </mxGeometry>
        </mxCell>
        <mxCell id="ERFSE9Pxs8hPmbzX2arz-394" value="Ticket" style="shape=rhombus;perimeter=rhombusPerimeter;whiteSpace=wrap;html=1;align=center;" parent="1" vertex="1">
          <mxGeometry x="290.5" y="1724.29" width="120" height="60" as="geometry" />
        </mxCell>
        <mxCell id="ERFSE9Pxs8hPmbzX2arz-396" value="" style="shape=link;html=1;rounded=0;endArrow=none;endFill=0;entryX=0.5;entryY=1;entryDx=0;entryDy=0;exitX=0.5;exitY=0;exitDx=0;exitDy=0;" parent="1" source="ERFSE9Pxs8hPmbzX2arz-383" target="ERFSE9Pxs8hPmbzX2arz-394" edge="1">
          <mxGeometry relative="1" as="geometry">
            <mxPoint x="109" y="1719.29" as="sourcePoint" />
            <mxPoint x="109" y="1687.29" as="targetPoint" />
          </mxGeometry>
        </mxCell>
        <mxCell id="ERFSE9Pxs8hPmbzX2arz-397" value="N" style="resizable=0;html=1;align=right;verticalAlign=bottom;" parent="ERFSE9Pxs8hPmbzX2arz-396" connectable="0" vertex="1">
          <mxGeometry x="1" relative="1" as="geometry" />
        </mxCell>
        <mxCell id="ERFSE9Pxs8hPmbzX2arz-398" value="" style="endArrow=none;html=1;rounded=0;entryX=0.5;entryY=0;entryDx=0;entryDy=0;exitX=0;exitY=0.5;exitDx=0;exitDy=0;" parent="1" source="ERFSE9Pxs8hPmbzX2arz-347" target="ERFSE9Pxs8hPmbzX2arz-394" edge="1">
          <mxGeometry relative="1" as="geometry">
            <mxPoint x="1665" y="1425.58" as="sourcePoint" />
            <mxPoint x="1320" y="1430" as="targetPoint" />
          </mxGeometry>
        </mxCell>
        <mxCell id="ERFSE9Pxs8hPmbzX2arz-399" value="1" style="resizable=0;html=1;align=right;verticalAlign=bottom;" parent="ERFSE9Pxs8hPmbzX2arz-398" connectable="0" vertex="1">
          <mxGeometry x="1" relative="1" as="geometry" />
        </mxCell>
        <mxCell id="ERFSE9Pxs8hPmbzX2arz-402" value="giver" style="shape=rhombus;perimeter=rhombusPerimeter;whiteSpace=wrap;html=1;align=center;" parent="1" vertex="1">
          <mxGeometry x="460" y="1738.5" width="120" height="60" as="geometry" />
        </mxCell>
        <mxCell id="ERFSE9Pxs8hPmbzX2arz-403" value="" style="shape=link;html=1;rounded=0;endArrow=none;endFill=0;entryX=0;entryY=0.5;entryDx=0;entryDy=0;exitX=0.5;exitY=0;exitDx=0;exitDy=0;" parent="1" source="ERFSE9Pxs8hPmbzX2arz-383" target="ERFSE9Pxs8hPmbzX2arz-402" edge="1">
          <mxGeometry relative="1" as="geometry">
            <mxPoint x="359.4999999999998" y="1826.79" as="sourcePoint" />
            <mxPoint x="360.5" y="1794.29" as="targetPoint" />
          </mxGeometry>
        </mxCell>
        <mxCell id="ERFSE9Pxs8hPmbzX2arz-404" value="N" style="resizable=0;html=1;align=right;verticalAlign=bottom;" parent="ERFSE9Pxs8hPmbzX2arz-403" connectable="0" vertex="1">
          <mxGeometry x="1" relative="1" as="geometry" />
        </mxCell>
        <mxCell id="ERFSE9Pxs8hPmbzX2arz-405" value="receiver" style="shape=rhombus;perimeter=rhombusPerimeter;whiteSpace=wrap;html=1;align=center;" parent="1" vertex="1">
          <mxGeometry x="490" y="1820" width="120" height="60" as="geometry" />
        </mxCell>
        <mxCell id="ERFSE9Pxs8hPmbzX2arz-406" value="" style="shape=link;html=1;rounded=0;endArrow=none;endFill=0;entryX=0;entryY=0.5;entryDx=0;entryDy=0;exitX=1;exitY=0.5;exitDx=0;exitDy=0;" parent="1" source="ERFSE9Pxs8hPmbzX2arz-383" target="ERFSE9Pxs8hPmbzX2arz-405" edge="1">
          <mxGeometry relative="1" as="geometry">
            <mxPoint x="400" y="1850" as="sourcePoint" />
            <mxPoint x="470" y="1778.5" as="targetPoint" />
          </mxGeometry>
        </mxCell>
        <mxCell id="ERFSE9Pxs8hPmbzX2arz-407" value="N" style="resizable=0;html=1;align=right;verticalAlign=bottom;" parent="ERFSE9Pxs8hPmbzX2arz-406" connectable="0" vertex="1">
          <mxGeometry x="1" relative="1" as="geometry" />
        </mxCell>
        <mxCell id="ERFSE9Pxs8hPmbzX2arz-408" value="" style="endArrow=none;html=1;rounded=0;entryX=1;entryY=0.5;entryDx=0;entryDy=0;exitX=0;exitY=0.5;exitDx=0;exitDy=0;" parent="1" source="ERFSE9Pxs8hPmbzX2arz-168" target="ERFSE9Pxs8hPmbzX2arz-402" edge="1">
          <mxGeometry relative="1" as="geometry">
            <mxPoint x="434" y="1560" as="sourcePoint" />
            <mxPoint x="360.5" y="1734.29" as="targetPoint" />
          </mxGeometry>
        </mxCell>
        <mxCell id="ERFSE9Pxs8hPmbzX2arz-409" value="1" style="resizable=0;html=1;align=right;verticalAlign=bottom;" parent="ERFSE9Pxs8hPmbzX2arz-408" connectable="0" vertex="1">
          <mxGeometry x="1" relative="1" as="geometry" />
        </mxCell>
        <mxCell id="ERFSE9Pxs8hPmbzX2arz-410" value="" style="endArrow=none;html=1;rounded=0;entryX=1;entryY=0.5;entryDx=0;entryDy=0;exitX=0;exitY=0.5;exitDx=0;exitDy=0;" parent="1" source="ERFSE9Pxs8hPmbzX2arz-168" target="ERFSE9Pxs8hPmbzX2arz-405" edge="1">
          <mxGeometry relative="1" as="geometry">
            <mxPoint x="444" y="1570" as="sourcePoint" />
            <mxPoint x="370.5" y="1744.29" as="targetPoint" />
          </mxGeometry>
        </mxCell>
        <mxCell id="ERFSE9Pxs8hPmbzX2arz-411" value="1" style="resizable=0;html=1;align=right;verticalAlign=bottom;" parent="ERFSE9Pxs8hPmbzX2arz-410" connectable="0" vertex="1">
          <mxGeometry x="1" relative="1" as="geometry" />
        </mxCell>
        <mxCell id="ERFSE9Pxs8hPmbzX2arz-412" value="Ticket_coupon" style="whiteSpace=wrap;html=1;align=center;" parent="1" vertex="1">
          <mxGeometry x="719.5" y="1880" width="100" height="40" as="geometry" />
        </mxCell>
        <mxCell id="ERFSE9Pxs8hPmbzX2arz-413" style="rounded=0;orthogonalLoop=1;jettySize=auto;html=1;exitX=0.5;exitY=0;exitDx=0;exitDy=0;entryX=0.5;entryY=1;entryDx=0;entryDy=0;endArrow=none;endFill=0;" parent="1" source="ERFSE9Pxs8hPmbzX2arz-414" target="ERFSE9Pxs8hPmbzX2arz-412" edge="1">
          <mxGeometry relative="1" as="geometry" />
        </mxCell>
        <mxCell id="ERFSE9Pxs8hPmbzX2arz-414" value="&lt;u&gt;coupon_id&lt;/u&gt;" style="ellipse;whiteSpace=wrap;html=1;align=center;" parent="1" vertex="1">
          <mxGeometry x="697.5" y="1951.08" width="70" height="25" as="geometry" />
        </mxCell>
        <mxCell id="ERFSE9Pxs8hPmbzX2arz-415" value="created_date" style="ellipse;whiteSpace=wrap;html=1;align=center;" parent="1" vertex="1">
          <mxGeometry x="782.5" y="1955" width="100" height="25" as="geometry" />
        </mxCell>
        <mxCell id="ERFSE9Pxs8hPmbzX2arz-416" style="rounded=0;orthogonalLoop=1;jettySize=auto;html=1;exitX=0.5;exitY=0;exitDx=0;exitDy=0;entryX=0.5;entryY=1;entryDx=0;entryDy=0;endArrow=none;endFill=0;" parent="1" source="ERFSE9Pxs8hPmbzX2arz-415" target="ERFSE9Pxs8hPmbzX2arz-412" edge="1">
          <mxGeometry relative="1" as="geometry">
            <mxPoint x="686.5" y="1990" as="sourcePoint" />
            <mxPoint x="546.5" y="1930" as="targetPoint" />
          </mxGeometry>
        </mxCell>
        <mxCell id="ERFSE9Pxs8hPmbzX2arz-417" value="Ticket" style="shape=rhombus;perimeter=rhombusPerimeter;whiteSpace=wrap;html=1;align=center;" parent="1" vertex="1">
          <mxGeometry x="712" y="1798.5" width="120" height="60" as="geometry" />
        </mxCell>
        <mxCell id="ERFSE9Pxs8hPmbzX2arz-418" value="" style="shape=link;html=1;rounded=0;endArrow=none;endFill=0;entryX=0.5;entryY=1;entryDx=0;entryDy=0;exitX=0.5;exitY=0;exitDx=0;exitDy=0;" parent="1" source="ERFSE9Pxs8hPmbzX2arz-412" target="ERFSE9Pxs8hPmbzX2arz-417" edge="1">
          <mxGeometry relative="1" as="geometry">
            <mxPoint x="359.4999999999998" y="1826.79" as="sourcePoint" />
            <mxPoint x="360.5" y="1794.29" as="targetPoint" />
          </mxGeometry>
        </mxCell>
        <mxCell id="ERFSE9Pxs8hPmbzX2arz-419" value="N" style="resizable=0;html=1;align=right;verticalAlign=bottom;" parent="ERFSE9Pxs8hPmbzX2arz-418" connectable="0" vertex="1">
          <mxGeometry x="1" relative="1" as="geometry" />
        </mxCell>
        <mxCell id="ERFSE9Pxs8hPmbzX2arz-420" value="" style="endArrow=none;html=1;rounded=0;entryX=0.5;entryY=0;entryDx=0;entryDy=0;exitX=1;exitY=0.5;exitDx=0;exitDy=0;" parent="1" source="ERFSE9Pxs8hPmbzX2arz-347" target="ERFSE9Pxs8hPmbzX2arz-417" edge="1">
          <mxGeometry relative="1" as="geometry">
            <mxPoint x="434" y="1560" as="sourcePoint" />
            <mxPoint x="360.5" y="1734.29" as="targetPoint" />
          </mxGeometry>
        </mxCell>
        <mxCell id="ERFSE9Pxs8hPmbzX2arz-421" value="1" style="resizable=0;html=1;align=right;verticalAlign=bottom;" parent="ERFSE9Pxs8hPmbzX2arz-420" connectable="0" vertex="1">
          <mxGeometry x="1" relative="1" as="geometry" />
        </mxCell>
        <mxCell id="ERFSE9Pxs8hPmbzX2arz-422" value="owner" style="shape=rhombus;perimeter=rhombusPerimeter;whiteSpace=wrap;html=1;align=center;" parent="1" vertex="1">
          <mxGeometry x="840" y="1827.87" width="120" height="60" as="geometry" />
        </mxCell>
        <mxCell id="ERFSE9Pxs8hPmbzX2arz-425" value="" style="endArrow=none;html=1;rounded=0;entryX=0.5;entryY=0;entryDx=0;entryDy=0;exitX=0;exitY=0.5;exitDx=0;exitDy=0;" parent="1" source="ERFSE9Pxs8hPmbzX2arz-168" target="ERFSE9Pxs8hPmbzX2arz-422" edge="1">
          <mxGeometry relative="1" as="geometry">
            <mxPoint x="534" y="1560" as="sourcePoint" />
            <mxPoint x="782" y="1808.5" as="targetPoint" />
          </mxGeometry>
        </mxCell>
        <mxCell id="ERFSE9Pxs8hPmbzX2arz-426" value="1" style="resizable=0;html=1;align=right;verticalAlign=bottom;" parent="ERFSE9Pxs8hPmbzX2arz-425" connectable="0" vertex="1">
          <mxGeometry x="1" relative="1" as="geometry" />
        </mxCell>
        <mxCell id="ERFSE9Pxs8hPmbzX2arz-429" value="" style="endArrow=none;html=1;rounded=0;entryX=0.5;entryY=1;entryDx=0;entryDy=0;exitX=1;exitY=0.5;exitDx=0;exitDy=0;" parent="1" source="ERFSE9Pxs8hPmbzX2arz-412" target="ERFSE9Pxs8hPmbzX2arz-422" edge="1">
          <mxGeometry relative="1" as="geometry">
            <mxPoint x="710" y="1590" as="sourcePoint" />
            <mxPoint x="870" y="1590" as="targetPoint" />
          </mxGeometry>
        </mxCell>
        <mxCell id="ERFSE9Pxs8hPmbzX2arz-430" value="N" style="resizable=0;html=1;align=right;verticalAlign=bottom;" parent="ERFSE9Pxs8hPmbzX2arz-429" connectable="0" vertex="1">
          <mxGeometry x="1" relative="1" as="geometry" />
        </mxCell>
        <mxCell id="ERFSE9Pxs8hPmbzX2arz-431" value="Payment_Method" style="whiteSpace=wrap;html=1;align=center;" parent="1" vertex="1">
          <mxGeometry x="1040" y="1911.08" width="100" height="40" as="geometry" />
        </mxCell>
        <mxCell id="ERFSE9Pxs8hPmbzX2arz-432" style="rounded=0;orthogonalLoop=1;jettySize=auto;html=1;exitX=0.5;exitY=0;exitDx=0;exitDy=0;entryX=0.5;entryY=1;entryDx=0;entryDy=0;endArrow=none;endFill=0;" parent="1" source="ERFSE9Pxs8hPmbzX2arz-433" target="ERFSE9Pxs8hPmbzX2arz-431" edge="1">
          <mxGeometry relative="1" as="geometry" />
        </mxCell>
        <mxCell id="ERFSE9Pxs8hPmbzX2arz-433" value="&lt;u&gt;uid&lt;/u&gt;" style="ellipse;whiteSpace=wrap;html=1;align=center;" parent="1" vertex="1">
          <mxGeometry x="971" y="1960" width="70" height="25" as="geometry" />
        </mxCell>
        <mxCell id="ERFSE9Pxs8hPmbzX2arz-434" value="created_date" style="ellipse;whiteSpace=wrap;html=1;align=center;" parent="1" vertex="1">
          <mxGeometry x="1130" y="1981.08" width="100" height="25" as="geometry" />
        </mxCell>
        <mxCell id="ERFSE9Pxs8hPmbzX2arz-435" style="rounded=0;orthogonalLoop=1;jettySize=auto;html=1;exitX=0.5;exitY=0;exitDx=0;exitDy=0;entryX=0.5;entryY=1;entryDx=0;entryDy=0;endArrow=none;endFill=0;" parent="1" source="ERFSE9Pxs8hPmbzX2arz-434" target="ERFSE9Pxs8hPmbzX2arz-431" edge="1">
          <mxGeometry relative="1" as="geometry">
            <mxPoint x="980" y="2020" as="sourcePoint" />
            <mxPoint x="840" y="1960" as="targetPoint" />
          </mxGeometry>
        </mxCell>
        <mxCell id="ERFSE9Pxs8hPmbzX2arz-437" style="edgeStyle=none;rounded=0;orthogonalLoop=1;jettySize=auto;html=1;exitX=0.5;exitY=0;exitDx=0;exitDy=0;entryX=0.5;entryY=1;entryDx=0;entryDy=0;endArrow=none;endFill=0;" parent="1" source="ERFSE9Pxs8hPmbzX2arz-436" target="ERFSE9Pxs8hPmbzX2arz-431" edge="1">
          <mxGeometry relative="1" as="geometry" />
        </mxCell>
        <mxCell id="ERFSE9Pxs8hPmbzX2arz-436" value="method_name" style="ellipse;whiteSpace=wrap;html=1;align=center;" parent="1" vertex="1">
          <mxGeometry x="1031" y="1985" width="100" height="25" as="geometry" />
        </mxCell>
        <mxCell id="ERFSE9Pxs8hPmbzX2arz-438" value="owner" style="shape=rhombus;perimeter=rhombusPerimeter;whiteSpace=wrap;html=1;align=center;" parent="1" vertex="1">
          <mxGeometry x="1395" y="1630" width="120" height="60" as="geometry" />
        </mxCell>
        <mxCell id="ERFSE9Pxs8hPmbzX2arz-439" value="Payment_log" style="whiteSpace=wrap;html=1;align=center;" parent="1" vertex="1">
          <mxGeometry x="1496.5" y="1715" width="100" height="40" as="geometry" />
        </mxCell>
        <mxCell id="ERFSE9Pxs8hPmbzX2arz-440" style="rounded=0;orthogonalLoop=1;jettySize=auto;html=1;exitX=0.5;exitY=0;exitDx=0;exitDy=0;entryX=0.5;entryY=1;entryDx=0;entryDy=0;endArrow=none;endFill=0;" parent="1" source="ERFSE9Pxs8hPmbzX2arz-441" target="ERFSE9Pxs8hPmbzX2arz-439" edge="1">
          <mxGeometry relative="1" as="geometry" />
        </mxCell>
        <mxCell id="ERFSE9Pxs8hPmbzX2arz-441" value="&lt;u&gt;uid&lt;/u&gt;" style="ellipse;whiteSpace=wrap;html=1;align=center;" parent="1" vertex="1">
          <mxGeometry x="1405" y="1795" width="70" height="25" as="geometry" />
        </mxCell>
        <mxCell id="ERFSE9Pxs8hPmbzX2arz-442" value="amount" style="ellipse;whiteSpace=wrap;html=1;align=center;" parent="1" vertex="1">
          <mxGeometry x="1476.5" y="1806.5" width="100" height="25" as="geometry" />
        </mxCell>
        <mxCell id="ERFSE9Pxs8hPmbzX2arz-445" style="rounded=0;orthogonalLoop=1;jettySize=auto;html=1;exitX=0.5;exitY=0;exitDx=0;exitDy=0;entryX=0.5;entryY=1;entryDx=0;entryDy=0;endArrow=none;endFill=0;" parent="1" source="ERFSE9Pxs8hPmbzX2arz-442" target="ERFSE9Pxs8hPmbzX2arz-439" edge="1">
          <mxGeometry relative="1" as="geometry">
            <mxPoint x="1065.5" y="1869.5" as="sourcePoint" />
            <mxPoint x="1340.5" y="1949.5" as="targetPoint" />
          </mxGeometry>
        </mxCell>
        <mxCell id="ERFSE9Pxs8hPmbzX2arz-447" value="updated_date" style="ellipse;whiteSpace=wrap;html=1;align=center;" parent="1" vertex="1">
          <mxGeometry x="1682.5" y="1806.5" width="100" height="25" as="geometry" />
        </mxCell>
        <mxCell id="ERFSE9Pxs8hPmbzX2arz-448" style="rounded=0;orthogonalLoop=1;jettySize=auto;html=1;exitX=0.5;exitY=0;exitDx=0;exitDy=0;entryX=0.5;entryY=1;entryDx=0;entryDy=0;endArrow=none;endFill=0;" parent="1" source="ERFSE9Pxs8hPmbzX2arz-447" target="ERFSE9Pxs8hPmbzX2arz-439" edge="1">
          <mxGeometry relative="1" as="geometry">
            <mxPoint x="1450.5" y="1824.5" as="sourcePoint" />
            <mxPoint x="1310.5" y="1764.5" as="targetPoint" />
          </mxGeometry>
        </mxCell>
        <mxCell id="ERFSE9Pxs8hPmbzX2arz-451" style="edgeStyle=none;rounded=0;orthogonalLoop=1;jettySize=auto;html=1;exitX=0.5;exitY=0;exitDx=0;exitDy=0;entryX=0.5;entryY=1;entryDx=0;entryDy=0;endArrow=none;endFill=0;" parent="1" source="ERFSE9Pxs8hPmbzX2arz-452" target="ERFSE9Pxs8hPmbzX2arz-439" edge="1">
          <mxGeometry relative="1" as="geometry" />
        </mxCell>
        <mxCell id="ERFSE9Pxs8hPmbzX2arz-452" value="created_date" style="ellipse;whiteSpace=wrap;html=1;align=center;" parent="1" vertex="1">
          <mxGeometry x="1610" y="1795" width="85" height="25" as="geometry" />
        </mxCell>
        <mxCell id="ERFSE9Pxs8hPmbzX2arz-457" value="method" style="shape=rhombus;perimeter=rhombusPerimeter;whiteSpace=wrap;html=1;align=center;" parent="1" vertex="1">
          <mxGeometry x="1226.5" y="1729" width="120" height="60" as="geometry" />
        </mxCell>
        <mxCell id="ERFSE9Pxs8hPmbzX2arz-458" value="" style="shape=link;html=1;rounded=0;endArrow=none;endFill=0;entryX=1;entryY=0.5;entryDx=0;entryDy=0;exitX=0;exitY=0.5;exitDx=0;exitDy=0;" parent="1" source="ERFSE9Pxs8hPmbzX2arz-439" target="ERFSE9Pxs8hPmbzX2arz-457" edge="1">
          <mxGeometry relative="1" as="geometry">
            <mxPoint x="1121.4999999999998" y="1656.5" as="sourcePoint" />
            <mxPoint x="1121.4999999999998" y="1624.5" as="targetPoint" />
          </mxGeometry>
        </mxCell>
        <mxCell id="ERFSE9Pxs8hPmbzX2arz-459" value="N" style="resizable=0;html=1;align=right;verticalAlign=bottom;" parent="ERFSE9Pxs8hPmbzX2arz-458" connectable="0" vertex="1">
          <mxGeometry x="1" relative="1" as="geometry" />
        </mxCell>
        <mxCell id="ERFSE9Pxs8hPmbzX2arz-460" value="" style="endArrow=none;html=1;rounded=0;entryX=0;entryY=0.5;entryDx=0;entryDy=0;exitX=0.5;exitY=0;exitDx=0;exitDy=0;" parent="1" source="ERFSE9Pxs8hPmbzX2arz-431" target="ERFSE9Pxs8hPmbzX2arz-457" edge="1">
          <mxGeometry relative="1" as="geometry">
            <mxPoint x="1665" y="1425.58" as="sourcePoint" />
            <mxPoint x="1320" y="1430" as="targetPoint" />
          </mxGeometry>
        </mxCell>
        <mxCell id="ERFSE9Pxs8hPmbzX2arz-461" value="1" style="resizable=0;html=1;align=right;verticalAlign=bottom;" parent="ERFSE9Pxs8hPmbzX2arz-460" connectable="0" vertex="1">
          <mxGeometry x="1" relative="1" as="geometry" />
        </mxCell>
        <mxCell id="ERFSE9Pxs8hPmbzX2arz-462" value="" style="shape=link;html=1;rounded=0;endArrow=none;endFill=0;entryX=0.5;entryY=1;entryDx=0;entryDy=0;exitX=0;exitY=0.5;exitDx=0;exitDy=0;" parent="1" source="ERFSE9Pxs8hPmbzX2arz-439" target="ERFSE9Pxs8hPmbzX2arz-438" edge="1">
          <mxGeometry relative="1" as="geometry">
            <mxPoint x="1506.5" y="1745" as="sourcePoint" />
            <mxPoint x="1343" y="1864.5" as="targetPoint" />
          </mxGeometry>
        </mxCell>
        <mxCell id="ERFSE9Pxs8hPmbzX2arz-463" value="N" style="resizable=0;html=1;align=right;verticalAlign=bottom;" parent="ERFSE9Pxs8hPmbzX2arz-462" connectable="0" vertex="1">
          <mxGeometry x="1" relative="1" as="geometry" />
        </mxCell>
        <mxCell id="ERFSE9Pxs8hPmbzX2arz-464" value="" style="endArrow=none;html=1;rounded=0;entryX=0;entryY=0.5;entryDx=0;entryDy=0;exitX=1;exitY=0.5;exitDx=0;exitDy=0;" parent="1" source="ERFSE9Pxs8hPmbzX2arz-168" target="ERFSE9Pxs8hPmbzX2arz-438" edge="1">
          <mxGeometry relative="1" as="geometry">
            <mxPoint x="1100" y="1921.08" as="sourcePoint" />
            <mxPoint x="1224.2" y="1857.42" as="targetPoint" />
          </mxGeometry>
        </mxCell>
        <mxCell id="ERFSE9Pxs8hPmbzX2arz-465" value="1" style="resizable=0;html=1;align=right;verticalAlign=bottom;" parent="ERFSE9Pxs8hPmbzX2arz-464" connectable="0" vertex="1">
          <mxGeometry x="1" relative="1" as="geometry" />
        </mxCell>
        <mxCell id="ERFSE9Pxs8hPmbzX2arz-466" value="Overdue" style="whiteSpace=wrap;html=1;align=center;" parent="1" vertex="1">
          <mxGeometry x="324" y="1331.75" width="100" height="40" as="geometry" />
        </mxCell>
        <mxCell id="ERFSE9Pxs8hPmbzX2arz-467" style="rounded=0;orthogonalLoop=1;jettySize=auto;html=1;exitX=0.5;exitY=0;exitDx=0;exitDy=0;entryX=0.5;entryY=1;entryDx=0;entryDy=0;endArrow=none;endFill=0;" parent="1" source="ERFSE9Pxs8hPmbzX2arz-468" target="ERFSE9Pxs8hPmbzX2arz-466" edge="1">
          <mxGeometry relative="1" as="geometry" />
        </mxCell>
        <mxCell id="ERFSE9Pxs8hPmbzX2arz-468" value="&lt;u&gt;uid&lt;/u&gt;" style="ellipse;whiteSpace=wrap;html=1;align=center;" parent="1" vertex="1">
          <mxGeometry x="229.5" y="1415" width="70" height="25" as="geometry" />
        </mxCell>
        <mxCell id="ERFSE9Pxs8hPmbzX2arz-469" value="payment_finished" style="ellipse;whiteSpace=wrap;html=1;align=center;" parent="1" vertex="1">
          <mxGeometry x="370" y="1423.25" width="100" height="25" as="geometry" />
        </mxCell>
        <mxCell id="ERFSE9Pxs8hPmbzX2arz-472" style="rounded=0;orthogonalLoop=1;jettySize=auto;html=1;exitX=0.5;exitY=0;exitDx=0;exitDy=0;entryX=0.5;entryY=1;entryDx=0;entryDy=0;endArrow=none;endFill=0;" parent="1" source="ERFSE9Pxs8hPmbzX2arz-469" target="ERFSE9Pxs8hPmbzX2arz-466" edge="1">
          <mxGeometry relative="1" as="geometry">
            <mxPoint x="-107" y="1486.25" as="sourcePoint" />
            <mxPoint x="168" y="1566.25" as="targetPoint" />
          </mxGeometry>
        </mxCell>
        <mxCell id="ERFSE9Pxs8hPmbzX2arz-474" value="updated_date" style="ellipse;whiteSpace=wrap;html=1;align=center;" parent="1" vertex="1">
          <mxGeometry x="424" y="1392" width="100" height="25" as="geometry" />
        </mxCell>
        <mxCell id="ERFSE9Pxs8hPmbzX2arz-475" style="rounded=0;orthogonalLoop=1;jettySize=auto;html=1;exitX=0.5;exitY=0;exitDx=0;exitDy=0;entryX=0.5;entryY=1;entryDx=0;entryDy=0;endArrow=none;endFill=0;" parent="1" source="ERFSE9Pxs8hPmbzX2arz-474" target="ERFSE9Pxs8hPmbzX2arz-466" edge="1">
          <mxGeometry relative="1" as="geometry">
            <mxPoint x="278" y="1441.25" as="sourcePoint" />
            <mxPoint x="138" y="1381.25" as="targetPoint" />
          </mxGeometry>
        </mxCell>
        <mxCell id="ERFSE9Pxs8hPmbzX2arz-477" value="overdue_amount" style="ellipse;whiteSpace=wrap;html=1;align=center;" parent="1" vertex="1">
          <mxGeometry x="277.5" y="1441.25" width="98" height="25" as="geometry" />
        </mxCell>
        <mxCell id="ERFSE9Pxs8hPmbzX2arz-480" value="" style="edgeStyle=none;rounded=0;orthogonalLoop=1;jettySize=auto;html=1;exitX=0.5;exitY=0;exitDx=0;exitDy=0;entryX=0.5;entryY=1;entryDx=0;entryDy=0;endArrow=none;endFill=0;" parent="1" source="ERFSE9Pxs8hPmbzX2arz-477" target="ERFSE9Pxs8hPmbzX2arz-466" edge="1">
          <mxGeometry relative="1" as="geometry">
            <mxPoint x="142.5" y="1431.25" as="sourcePoint" />
            <mxPoint x="361" y="1371.25" as="targetPoint" />
          </mxGeometry>
        </mxCell>
        <mxCell id="ERFSE9Pxs8hPmbzX2arz-484" value="delay" style="shape=rhombus;perimeter=rhombusPerimeter;whiteSpace=wrap;html=1;align=center;" parent="1" vertex="1">
          <mxGeometry x="520" y="1295" width="120" height="60" as="geometry" />
        </mxCell>
        <mxCell id="ERFSE9Pxs8hPmbzX2arz-485" value="" style="shape=link;html=1;rounded=0;endArrow=none;endFill=0;exitX=1;exitY=0.5;exitDx=0;exitDy=0;entryX=0;entryY=0.5;entryDx=0;entryDy=0;" parent="1" source="ERFSE9Pxs8hPmbzX2arz-466" target="ERFSE9Pxs8hPmbzX2arz-484" edge="1">
          <mxGeometry relative="1" as="geometry">
            <mxPoint x="818" y="1308" as="sourcePoint" />
            <mxPoint x="470" y="1240" as="targetPoint" />
          </mxGeometry>
        </mxCell>
        <mxCell id="ERFSE9Pxs8hPmbzX2arz-486" value="N" style="resizable=0;html=1;align=right;verticalAlign=bottom;" parent="ERFSE9Pxs8hPmbzX2arz-485" connectable="0" vertex="1">
          <mxGeometry x="1" relative="1" as="geometry" />
        </mxCell>
        <mxCell id="ERFSE9Pxs8hPmbzX2arz-487" value="" style="endArrow=none;html=1;rounded=0;entryX=1;entryY=0.5;entryDx=0;entryDy=0;exitX=0;exitY=0.5;exitDx=0;exitDy=0;" parent="1" source="ERFSE9Pxs8hPmbzX2arz-275" target="ERFSE9Pxs8hPmbzX2arz-484" edge="1">
          <mxGeometry relative="1" as="geometry">
            <mxPoint x="1237" y="1220" as="sourcePoint" />
            <mxPoint x="988" y="1240" as="targetPoint" />
          </mxGeometry>
        </mxCell>
        <mxCell id="ERFSE9Pxs8hPmbzX2arz-488" value="1" style="resizable=0;html=1;align=right;verticalAlign=bottom;" parent="ERFSE9Pxs8hPmbzX2arz-487" connectable="0" vertex="1">
          <mxGeometry x="1" relative="1" as="geometry" />
        </mxCell>
        <mxCell id="ERFSE9Pxs8hPmbzX2arz-489" value="Breakdown" style="whiteSpace=wrap;html=1;align=center;" parent="1" vertex="1">
          <mxGeometry x="1510" y="1371.75" width="100" height="40" as="geometry" />
        </mxCell>
        <mxCell id="ERFSE9Pxs8hPmbzX2arz-490" style="rounded=0;orthogonalLoop=1;jettySize=auto;html=1;exitX=0.5;exitY=0;exitDx=0;exitDy=0;entryX=0.5;entryY=1;entryDx=0;entryDy=0;endArrow=none;endFill=0;" parent="1" source="ERFSE9Pxs8hPmbzX2arz-491" target="ERFSE9Pxs8hPmbzX2arz-489" edge="1">
          <mxGeometry relative="1" as="geometry" />
        </mxCell>
        <mxCell id="ERFSE9Pxs8hPmbzX2arz-491" value="&lt;u&gt;uid&lt;/u&gt;" style="ellipse;whiteSpace=wrap;html=1;align=center;" parent="1" vertex="1">
          <mxGeometry x="1415.5" y="1455" width="70" height="25" as="geometry" />
        </mxCell>
        <mxCell id="ERFSE9Pxs8hPmbzX2arz-492" value="content" style="ellipse;whiteSpace=wrap;html=1;align=center;" parent="1" vertex="1">
          <mxGeometry x="1556" y="1463.25" width="100" height="25" as="geometry" />
        </mxCell>
        <mxCell id="ERFSE9Pxs8hPmbzX2arz-493" style="rounded=0;orthogonalLoop=1;jettySize=auto;html=1;exitX=0.5;exitY=0;exitDx=0;exitDy=0;entryX=0.5;entryY=1;entryDx=0;entryDy=0;endArrow=none;endFill=0;" parent="1" source="ERFSE9Pxs8hPmbzX2arz-492" target="ERFSE9Pxs8hPmbzX2arz-489" edge="1">
          <mxGeometry relative="1" as="geometry">
            <mxPoint x="1079" y="1526.25" as="sourcePoint" />
            <mxPoint x="1354" y="1606.25" as="targetPoint" />
          </mxGeometry>
        </mxCell>
        <mxCell id="ERFSE9Pxs8hPmbzX2arz-494" value="created_date" style="ellipse;whiteSpace=wrap;html=1;align=center;" parent="1" vertex="1">
          <mxGeometry x="1610" y="1432" width="100" height="25" as="geometry" />
        </mxCell>
        <mxCell id="ERFSE9Pxs8hPmbzX2arz-495" style="rounded=0;orthogonalLoop=1;jettySize=auto;html=1;exitX=0.5;exitY=0;exitDx=0;exitDy=0;entryX=0.5;entryY=1;entryDx=0;entryDy=0;endArrow=none;endFill=0;" parent="1" source="ERFSE9Pxs8hPmbzX2arz-494" target="ERFSE9Pxs8hPmbzX2arz-489" edge="1">
          <mxGeometry relative="1" as="geometry">
            <mxPoint x="1464" y="1481.25" as="sourcePoint" />
            <mxPoint x="1324" y="1421.25" as="targetPoint" />
          </mxGeometry>
        </mxCell>
        <mxCell id="ERFSE9Pxs8hPmbzX2arz-496" value="break_type" style="ellipse;whiteSpace=wrap;html=1;align=center;" parent="1" vertex="1">
          <mxGeometry x="1463.5" y="1481.25" width="98" height="25" as="geometry" />
        </mxCell>
        <mxCell id="ERFSE9Pxs8hPmbzX2arz-497" value="" style="edgeStyle=none;rounded=0;orthogonalLoop=1;jettySize=auto;html=1;exitX=0.5;exitY=0;exitDx=0;exitDy=0;entryX=0.5;entryY=1;entryDx=0;entryDy=0;endArrow=none;endFill=0;" parent="1" source="ERFSE9Pxs8hPmbzX2arz-496" target="ERFSE9Pxs8hPmbzX2arz-489" edge="1">
          <mxGeometry relative="1" as="geometry">
            <mxPoint x="1328.5" y="1471.25" as="sourcePoint" />
            <mxPoint x="1547" y="1411.25" as="targetPoint" />
          </mxGeometry>
        </mxCell>
        <mxCell id="ERFSE9Pxs8hPmbzX2arz-498" value="report" style="shape=rhombus;perimeter=rhombusPerimeter;whiteSpace=wrap;html=1;align=center;" parent="1" vertex="1">
          <mxGeometry x="1365.5" y="1342" width="120" height="60" as="geometry" />
        </mxCell>
        <mxCell id="ERFSE9Pxs8hPmbzX2arz-499" value="" style="endArrow=none;html=1;rounded=0;entryX=0;entryY=0.5;entryDx=0;entryDy=0;exitX=1;exitY=0.5;exitDx=0;exitDy=0;" parent="1" source="ERFSE9Pxs8hPmbzX2arz-168" target="ERFSE9Pxs8hPmbzX2arz-498" edge="1">
          <mxGeometry relative="1" as="geometry">
            <mxPoint x="1755" y="1579.5" as="sourcePoint" />
            <mxPoint x="1320" y="1430" as="targetPoint" />
          </mxGeometry>
        </mxCell>
        <mxCell id="ERFSE9Pxs8hPmbzX2arz-500" value="1" style="resizable=0;html=1;align=right;verticalAlign=bottom;" parent="ERFSE9Pxs8hPmbzX2arz-499" connectable="0" vertex="1">
          <mxGeometry x="1" relative="1" as="geometry" />
        </mxCell>
        <mxCell id="ERFSE9Pxs8hPmbzX2arz-501" value="" style="shape=link;html=1;rounded=0;endArrow=none;endFill=0;entryX=1;entryY=0.5;entryDx=0;entryDy=0;exitX=0;exitY=0.5;exitDx=0;exitDy=0;" parent="1" source="ERFSE9Pxs8hPmbzX2arz-489" target="ERFSE9Pxs8hPmbzX2arz-498" edge="1">
          <mxGeometry relative="1" as="geometry">
            <mxPoint x="1610" y="1008" as="sourcePoint" />
            <mxPoint x="1749.5" y="1008" as="targetPoint" />
          </mxGeometry>
        </mxCell>
        <mxCell id="ERFSE9Pxs8hPmbzX2arz-502" value="N" style="resizable=0;html=1;align=right;verticalAlign=bottom;" parent="ERFSE9Pxs8hPmbzX2arz-501" connectable="0" vertex="1">
          <mxGeometry x="1" relative="1" as="geometry" />
        </mxCell>
        <mxCell id="ERFSE9Pxs8hPmbzX2arz-503" value="target_bike" style="shape=rhombus;perimeter=rhombusPerimeter;whiteSpace=wrap;html=1;align=center;" parent="1" vertex="1">
          <mxGeometry x="1710" y="1402" width="120" height="60" as="geometry" />
        </mxCell>
        <mxCell id="ERFSE9Pxs8hPmbzX2arz-504" value="" style="shape=link;html=1;rounded=0;endArrow=none;endFill=0;entryX=0;entryY=0.5;entryDx=0;entryDy=0;exitX=1;exitY=0.5;exitDx=0;exitDy=0;" parent="1" source="ERFSE9Pxs8hPmbzX2arz-489" target="ERFSE9Pxs8hPmbzX2arz-503" edge="1">
          <mxGeometry relative="1" as="geometry">
            <mxPoint x="1520" y="1401.75" as="sourcePoint" />
            <mxPoint x="1495.5" y="1382" as="targetPoint" />
          </mxGeometry>
        </mxCell>
        <mxCell id="ERFSE9Pxs8hPmbzX2arz-505" value="N" style="resizable=0;html=1;align=right;verticalAlign=bottom;" parent="ERFSE9Pxs8hPmbzX2arz-504" connectable="0" vertex="1">
          <mxGeometry x="1" relative="1" as="geometry" />
        </mxCell>
        <mxCell id="ERFSE9Pxs8hPmbzX2arz-506" value="" style="endArrow=none;html=1;rounded=0;entryX=1;entryY=0.5;entryDx=0;entryDy=0;exitX=0.75;exitY=0;exitDx=0;exitDy=0;" parent="1" source="ERFSE9Pxs8hPmbzX2arz-137" target="ERFSE9Pxs8hPmbzX2arz-503" edge="1">
          <mxGeometry relative="1" as="geometry">
            <mxPoint x="1337" y="1220" as="sourcePoint" />
            <mxPoint x="1375.5" y="1382" as="targetPoint" />
          </mxGeometry>
        </mxCell>
        <mxCell id="ERFSE9Pxs8hPmbzX2arz-507" value="1" style="resizable=0;html=1;align=right;verticalAlign=bottom;" parent="ERFSE9Pxs8hPmbzX2arz-506" connectable="0" vertex="1">
          <mxGeometry x="1" relative="1" as="geometry" />
        </mxCell>
        <mxCell id="ERFSE9Pxs8hPmbzX2arz-508" value="mileage" style="whiteSpace=wrap;html=1;align=center;" parent="1" vertex="1">
          <mxGeometry x="679" y="1135" width="100" height="40" as="geometry" />
        </mxCell>
        <mxCell id="ERFSE9Pxs8hPmbzX2arz-509" style="rounded=0;orthogonalLoop=1;jettySize=auto;html=1;exitX=0.5;exitY=0;exitDx=0;exitDy=0;entryX=0.5;entryY=1;entryDx=0;entryDy=0;endArrow=none;endFill=0;" parent="1" source="ERFSE9Pxs8hPmbzX2arz-510" target="ERFSE9Pxs8hPmbzX2arz-508" edge="1">
          <mxGeometry relative="1" as="geometry" />
        </mxCell>
        <mxCell id="ERFSE9Pxs8hPmbzX2arz-510" value="&lt;u&gt;uid&lt;/u&gt;" style="ellipse;whiteSpace=wrap;html=1;align=center;" parent="1" vertex="1">
          <mxGeometry x="613" y="1200" width="70" height="25" as="geometry" />
        </mxCell>
        <mxCell id="ERFSE9Pxs8hPmbzX2arz-511" style="rounded=0;orthogonalLoop=1;jettySize=auto;html=1;exitX=0.5;exitY=0;exitDx=0;exitDy=0;entryX=0.5;entryY=1;entryDx=0;entryDy=0;endArrow=none;endFill=0;" parent="1" source="ERFSE9Pxs8hPmbzX2arz-517" target="ERFSE9Pxs8hPmbzX2arz-508" edge="1">
          <mxGeometry relative="1" as="geometry">
            <mxPoint x="251" y="1280" as="sourcePoint" />
            <mxPoint x="526" y="1360" as="targetPoint" />
          </mxGeometry>
        </mxCell>
        <mxCell id="ERFSE9Pxs8hPmbzX2arz-512" value="created_date" style="ellipse;whiteSpace=wrap;html=1;align=center;" parent="1" vertex="1">
          <mxGeometry x="742" y="1210" width="100" height="25" as="geometry" />
        </mxCell>
        <mxCell id="ERFSE9Pxs8hPmbzX2arz-513" style="rounded=0;orthogonalLoop=1;jettySize=auto;html=1;exitX=0.5;exitY=0;exitDx=0;exitDy=0;entryX=0.5;entryY=1;entryDx=0;entryDy=0;endArrow=none;endFill=0;" parent="1" source="ERFSE9Pxs8hPmbzX2arz-512" target="ERFSE9Pxs8hPmbzX2arz-508" edge="1">
          <mxGeometry relative="1" as="geometry">
            <mxPoint x="646" y="1245" as="sourcePoint" />
            <mxPoint x="506" y="1185" as="targetPoint" />
          </mxGeometry>
        </mxCell>
        <mxCell id="ERFSE9Pxs8hPmbzX2arz-514" style="edgeStyle=none;rounded=0;orthogonalLoop=1;jettySize=auto;html=1;exitX=0.5;exitY=0;exitDx=0;exitDy=0;entryX=0.5;entryY=1;entryDx=0;entryDy=0;endArrow=none;endFill=0;startArrow=none;" parent="1" source="ERFSE9Pxs8hPmbzX2arz-517" target="ERFSE9Pxs8hPmbzX2arz-508" edge="1">
          <mxGeometry relative="1" as="geometry" />
        </mxCell>
        <mxCell id="ERFSE9Pxs8hPmbzX2arz-517" value="amount" style="ellipse;whiteSpace=wrap;html=1;align=center;" parent="1" vertex="1">
          <mxGeometry x="683" y="1190" width="57" height="25" as="geometry" />
        </mxCell>
        <mxCell id="ERFSE9Pxs8hPmbzX2arz-518" value="" style="shape=link;html=1;rounded=0;endArrow=none;endFill=0;exitX=1;exitY=0.5;exitDx=0;exitDy=0;entryX=0;entryY=0.5;entryDx=0;entryDy=0;" parent="1" source="ERFSE9Pxs8hPmbzX2arz-508" target="ERFSE9Pxs8hPmbzX2arz-520" edge="1">
          <mxGeometry relative="1" as="geometry">
            <mxPoint x="818" y="1308" as="sourcePoint" />
            <mxPoint x="880" y="1160" as="targetPoint" />
          </mxGeometry>
        </mxCell>
        <mxCell id="ERFSE9Pxs8hPmbzX2arz-519" value="N" style="resizable=0;html=1;align=right;verticalAlign=bottom;" parent="ERFSE9Pxs8hPmbzX2arz-518" connectable="0" vertex="1">
          <mxGeometry x="1" relative="1" as="geometry" />
        </mxCell>
        <mxCell id="ERFSE9Pxs8hPmbzX2arz-520" value="earn" style="shape=rhombus;perimeter=rhombusPerimeter;whiteSpace=wrap;html=1;align=center;" parent="1" vertex="1">
          <mxGeometry x="890" y="1130" width="120" height="60" as="geometry" />
        </mxCell>
        <mxCell id="ERFSE9Pxs8hPmbzX2arz-521" value="" style="endArrow=none;html=1;rounded=0;entryX=1;entryY=0.5;entryDx=0;entryDy=0;exitX=0;exitY=0.5;exitDx=0;exitDy=0;" parent="1" source="ERFSE9Pxs8hPmbzX2arz-168" target="ERFSE9Pxs8hPmbzX2arz-520" edge="1">
          <mxGeometry relative="1" as="geometry">
            <mxPoint x="1237" y="1219.9999999999998" as="sourcePoint" />
            <mxPoint x="987.9999999999998" y="1239.9999999999998" as="targetPoint" />
          </mxGeometry>
        </mxCell>
        <mxCell id="ERFSE9Pxs8hPmbzX2arz-522" value="1" style="resizable=0;html=1;align=right;verticalAlign=bottom;" parent="ERFSE9Pxs8hPmbzX2arz-521" connectable="0" vertex="1">
          <mxGeometry x="1" relative="1" as="geometry" />
        </mxCell>
        <mxCell id="ERFSE9Pxs8hPmbzX2arz-523" value="TRANSFER_CARD" style="whiteSpace=wrap;html=1;align=center;" parent="1" vertex="1">
          <mxGeometry x="482.25" y="1060" width="109.5" height="40" as="geometry" />
        </mxCell>
        <mxCell id="ERFSE9Pxs8hPmbzX2arz-524" style="rounded=0;orthogonalLoop=1;jettySize=auto;html=1;exitX=0.5;exitY=0;exitDx=0;exitDy=0;entryX=0.5;entryY=1;entryDx=0;entryDy=0;endArrow=none;endFill=0;" parent="1" source="ERFSE9Pxs8hPmbzX2arz-525" target="ERFSE9Pxs8hPmbzX2arz-523" edge="1">
          <mxGeometry relative="1" as="geometry" />
        </mxCell>
        <mxCell id="ERFSE9Pxs8hPmbzX2arz-525" value="&lt;u&gt;uid&lt;/u&gt;" style="ellipse;whiteSpace=wrap;html=1;align=center;" parent="1" vertex="1">
          <mxGeometry x="373.75" y="1120" width="36.25" height="25" as="geometry" />
        </mxCell>
        <mxCell id="ERFSE9Pxs8hPmbzX2arz-526" style="rounded=0;orthogonalLoop=1;jettySize=auto;html=1;exitX=0.5;exitY=0;exitDx=0;exitDy=0;entryX=0.5;entryY=1;entryDx=0;entryDy=0;endArrow=none;endFill=0;" parent="1" source="ERFSE9Pxs8hPmbzX2arz-530" target="ERFSE9Pxs8hPmbzX2arz-523" edge="1">
          <mxGeometry relative="1" as="geometry">
            <mxPoint x="63.75" y="1205" as="sourcePoint" />
            <mxPoint x="338.75" y="1285" as="targetPoint" />
          </mxGeometry>
        </mxCell>
        <mxCell id="ERFSE9Pxs8hPmbzX2arz-527" value="created_date" style="ellipse;whiteSpace=wrap;html=1;align=center;" parent="1" vertex="1">
          <mxGeometry x="502.25" y="1140" width="100" height="25" as="geometry" />
        </mxCell>
        <mxCell id="ERFSE9Pxs8hPmbzX2arz-528" style="rounded=0;orthogonalLoop=1;jettySize=auto;html=1;exitX=0.5;exitY=0;exitDx=0;exitDy=0;entryX=0.5;entryY=1;entryDx=0;entryDy=0;endArrow=none;endFill=0;" parent="1" source="ERFSE9Pxs8hPmbzX2arz-527" target="ERFSE9Pxs8hPmbzX2arz-523" edge="1">
          <mxGeometry relative="1" as="geometry">
            <mxPoint x="458.75" y="1170" as="sourcePoint" />
            <mxPoint x="318.75" y="1110" as="targetPoint" />
          </mxGeometry>
        </mxCell>
        <mxCell id="ERFSE9Pxs8hPmbzX2arz-529" style="edgeStyle=none;rounded=0;orthogonalLoop=1;jettySize=auto;html=1;exitX=0.5;exitY=0;exitDx=0;exitDy=0;entryX=0.5;entryY=1;entryDx=0;entryDy=0;endArrow=none;endFill=0;startArrow=none;" parent="1" source="ERFSE9Pxs8hPmbzX2arz-530" target="ERFSE9Pxs8hPmbzX2arz-523" edge="1">
          <mxGeometry relative="1" as="geometry" />
        </mxCell>
        <mxCell id="ERFSE9Pxs8hPmbzX2arz-530" value="card_type" style="ellipse;whiteSpace=wrap;html=1;align=center;" parent="1" vertex="1">
          <mxGeometry x="412.88" y="1125" width="60" height="25" as="geometry" />
        </mxCell>
        <mxCell id="ERFSE9Pxs8hPmbzX2arz-532" style="edgeStyle=none;rounded=0;orthogonalLoop=1;jettySize=auto;html=1;exitX=0.5;exitY=0;exitDx=0;exitDy=0;entryX=0.5;entryY=1;entryDx=0;entryDy=0;endArrow=none;endFill=0;" parent="1" source="ERFSE9Pxs8hPmbzX2arz-531" target="ERFSE9Pxs8hPmbzX2arz-523" edge="1">
          <mxGeometry relative="1" as="geometry" />
        </mxCell>
        <mxCell id="ERFSE9Pxs8hPmbzX2arz-531" value="updated_date" style="ellipse;whiteSpace=wrap;html=1;align=center;" parent="1" vertex="1">
          <mxGeometry x="571.25" y="1115" width="100" height="25" as="geometry" />
        </mxCell>
        <mxCell id="ERFSE9Pxs8hPmbzX2arz-533" value="card_info" style="shape=rhombus;perimeter=rhombusPerimeter;whiteSpace=wrap;html=1;align=center;" parent="1" vertex="1">
          <mxGeometry x="679" y="1045" width="120" height="60" as="geometry" />
        </mxCell>
        <mxCell id="ERFSE9Pxs8hPmbzX2arz-534" value="" style="shape=link;html=1;rounded=0;endArrow=none;endFill=0;exitX=1;exitY=0.5;exitDx=0;exitDy=0;entryX=0;entryY=0.5;entryDx=0;entryDy=0;" parent="1" source="ERFSE9Pxs8hPmbzX2arz-523" target="ERFSE9Pxs8hPmbzX2arz-533" edge="1">
          <mxGeometry relative="1" as="geometry">
            <mxPoint x="661.25" y="1227.5" as="sourcePoint" />
            <mxPoint x="652.25" y="1060.5" as="targetPoint" />
          </mxGeometry>
        </mxCell>
        <mxCell id="ERFSE9Pxs8hPmbzX2arz-535" value="N" style="resizable=0;html=1;align=right;verticalAlign=bottom;" parent="ERFSE9Pxs8hPmbzX2arz-534" connectable="0" vertex="1">
          <mxGeometry x="1" relative="1" as="geometry" />
        </mxCell>
        <mxCell id="ERFSE9Pxs8hPmbzX2arz-536" value="" style="endArrow=none;html=1;rounded=0;entryX=1;entryY=0.5;entryDx=0;entryDy=0;exitX=0;exitY=0.5;exitDx=0;exitDy=0;" parent="1" source="ERFSE9Pxs8hPmbzX2arz-168" target="ERFSE9Pxs8hPmbzX2arz-533" edge="1">
          <mxGeometry relative="1" as="geometry">
            <mxPoint x="1200" y="1180" as="sourcePoint" />
            <mxPoint x="1020" y="1170" as="targetPoint" />
          </mxGeometry>
        </mxCell>
        <mxCell id="ERFSE9Pxs8hPmbzX2arz-537" value="1" style="resizable=0;html=1;align=right;verticalAlign=bottom;" parent="ERFSE9Pxs8hPmbzX2arz-536" connectable="0" vertex="1">
          <mxGeometry x="1" relative="1" as="geometry" />
        </mxCell>
        <mxCell id="ERFSE9Pxs8hPmbzX2arz-542" style="edgeStyle=none;rounded=0;orthogonalLoop=1;jettySize=auto;html=1;exitX=0.5;exitY=0;exitDx=0;exitDy=0;entryX=0.5;entryY=1;entryDx=0;entryDy=0;endArrow=none;endFill=0;" parent="1" source="ERFSE9Pxs8hPmbzX2arz-539" target="ERFSE9Pxs8hPmbzX2arz-523" edge="1">
          <mxGeometry relative="1" as="geometry" />
        </mxCell>
        <mxCell id="ERFSE9Pxs8hPmbzX2arz-539" value="card_number" style="ellipse;whiteSpace=wrap;html=1;align=center;" parent="1" vertex="1">
          <mxGeometry x="412.88" y="1169" width="82.25" height="25" as="geometry" />
        </mxCell>
        <mxCell id="ERFSE9Pxs8hPmbzX2arz-548" value="created_date" style="ellipse;whiteSpace=wrap;html=1;align=center;" parent="1" vertex="1">
          <mxGeometry x="180" y="1275" width="100" height="25" as="geometry" />
        </mxCell>
        <mxCell id="ERFSE9Pxs8hPmbzX2arz-549" style="rounded=0;orthogonalLoop=1;jettySize=auto;html=1;exitX=0.5;exitY=0;exitDx=0;exitDy=0;entryX=0.5;entryY=1;entryDx=0;entryDy=0;endArrow=none;endFill=0;" parent="1" source="ERFSE9Pxs8hPmbzX2arz-548" target="ERFSE9Pxs8hPmbzX2arz-554" edge="1">
          <mxGeometry relative="1" as="geometry">
            <mxPoint x="116.5" y="1340.13" as="sourcePoint" />
            <mxPoint x="212.5" y="1270.6300000000003" as="targetPoint" />
          </mxGeometry>
        </mxCell>
        <mxCell id="ERFSE9Pxs8hPmbzX2arz-550" value="distance" style="ellipse;whiteSpace=wrap;html=1;align=center;" parent="1" vertex="1">
          <mxGeometry x="80" y="1295" width="98" height="25" as="geometry" />
        </mxCell>
        <mxCell id="ERFSE9Pxs8hPmbzX2arz-551" value="" style="edgeStyle=none;rounded=0;orthogonalLoop=1;jettySize=auto;html=1;exitX=0.5;exitY=0;exitDx=0;exitDy=0;entryX=0.5;entryY=1;entryDx=0;entryDy=0;endArrow=none;endFill=0;" parent="1" source="ERFSE9Pxs8hPmbzX2arz-550" target="ERFSE9Pxs8hPmbzX2arz-554" edge="1">
          <mxGeometry relative="1" as="geometry">
            <mxPoint x="-19" y="1330.13" as="sourcePoint" />
            <mxPoint x="212.5" y="1270.6300000000003" as="targetPoint" />
          </mxGeometry>
        </mxCell>
        <mxCell id="ERFSE9Pxs8hPmbzX2arz-554" value="RANKING_weekly" style="shape=ext;margin=3;double=1;whiteSpace=wrap;html=1;align=center;" parent="1" vertex="1">
          <mxGeometry x="140" y="1220" width="122.5" height="40" as="geometry" />
        </mxCell>
        <mxCell id="ERFSE9Pxs8hPmbzX2arz-555" value="RANKING" style="shape=rhombus;double=1;perimeter=rhombusPerimeter;whiteSpace=wrap;html=1;align=center;" parent="1" vertex="1">
          <mxGeometry x="157.5" y="1129.9999999999995" width="120" height="60" as="geometry" />
        </mxCell>
        <mxCell id="ERFSE9Pxs8hPmbzX2arz-556" value="" style="endArrow=none;html=1;rounded=0;entryX=0.5;entryY=0;entryDx=0;entryDy=0;exitX=0;exitY=0.5;exitDx=0;exitDy=0;" parent="1" source="ERFSE9Pxs8hPmbzX2arz-168" target="ERFSE9Pxs8hPmbzX2arz-555" edge="1">
          <mxGeometry relative="1" as="geometry">
            <mxPoint x="1210" y="1200" as="sourcePoint" />
            <mxPoint x="809" y="1085" as="targetPoint" />
          </mxGeometry>
        </mxCell>
        <mxCell id="ERFSE9Pxs8hPmbzX2arz-557" value="1" style="resizable=0;html=1;align=right;verticalAlign=bottom;" parent="ERFSE9Pxs8hPmbzX2arz-556" connectable="0" vertex="1">
          <mxGeometry x="1" relative="1" as="geometry" />
        </mxCell>
        <mxCell id="ERFSE9Pxs8hPmbzX2arz-562" value="" style="shape=link;html=1;rounded=0;endArrow=none;endFill=0;entryX=0.5;entryY=1;entryDx=0;entryDy=0;exitX=0.5;exitY=0;exitDx=0;exitDy=0;" parent="1" source="ERFSE9Pxs8hPmbzX2arz-554" target="ERFSE9Pxs8hPmbzX2arz-555" edge="1">
          <mxGeometry relative="1" as="geometry">
            <mxPoint x="270" y="1290" as="sourcePoint" />
            <mxPoint x="430" y="1290" as="targetPoint" />
          </mxGeometry>
        </mxCell>
        <mxCell id="ERFSE9Pxs8hPmbzX2arz-563" value="1" style="resizable=0;html=1;align=right;verticalAlign=bottom;" parent="ERFSE9Pxs8hPmbzX2arz-562" connectable="0" vertex="1">
          <mxGeometry x="1" relative="1" as="geometry" />
        </mxCell>
        <mxCell id="ERFSE9Pxs8hPmbzX2arz-564" value="created_date" style="ellipse;whiteSpace=wrap;html=1;align=center;" parent="1" vertex="1">
          <mxGeometry x="100" y="1509.5" width="100" height="25" as="geometry" />
        </mxCell>
        <mxCell id="ERFSE9Pxs8hPmbzX2arz-565" style="rounded=0;orthogonalLoop=1;jettySize=auto;html=1;exitX=0.5;exitY=0;exitDx=0;exitDy=0;entryX=0.5;entryY=1;entryDx=0;entryDy=0;endArrow=none;endFill=0;" parent="1" source="ERFSE9Pxs8hPmbzX2arz-564" target="ERFSE9Pxs8hPmbzX2arz-568" edge="1">
          <mxGeometry relative="1" as="geometry">
            <mxPoint x="36.5" y="1574.63" as="sourcePoint" />
            <mxPoint x="132.5" y="1505.1300000000003" as="targetPoint" />
          </mxGeometry>
        </mxCell>
        <mxCell id="ERFSE9Pxs8hPmbzX2arz-566" value="distance" style="ellipse;whiteSpace=wrap;html=1;align=center;" parent="1" vertex="1">
          <mxGeometry y="1529.5" width="98" height="25" as="geometry" />
        </mxCell>
        <mxCell id="ERFSE9Pxs8hPmbzX2arz-567" value="" style="edgeStyle=none;rounded=0;orthogonalLoop=1;jettySize=auto;html=1;exitX=0.5;exitY=0;exitDx=0;exitDy=0;entryX=0.5;entryY=1;entryDx=0;entryDy=0;endArrow=none;endFill=0;" parent="1" source="ERFSE9Pxs8hPmbzX2arz-566" target="ERFSE9Pxs8hPmbzX2arz-568" edge="1">
          <mxGeometry relative="1" as="geometry">
            <mxPoint x="-99" y="1564.63" as="sourcePoint" />
            <mxPoint x="132.5" y="1505.1300000000003" as="targetPoint" />
          </mxGeometry>
        </mxCell>
        <mxCell id="ERFSE9Pxs8hPmbzX2arz-568" value="RANKING_monthly" style="shape=ext;margin=3;double=1;whiteSpace=wrap;html=1;align=center;" parent="1" vertex="1">
          <mxGeometry x="60" y="1454.5" width="122.5" height="40" as="geometry" />
        </mxCell>
        <mxCell id="ERFSE9Pxs8hPmbzX2arz-569" value="RANKING" style="shape=rhombus;double=1;perimeter=rhombusPerimeter;whiteSpace=wrap;html=1;align=center;" parent="1" vertex="1">
          <mxGeometry x="77.5" y="1364.4999999999995" width="120" height="60" as="geometry" />
        </mxCell>
        <mxCell id="ERFSE9Pxs8hPmbzX2arz-570" value="1" style="resizable=0;html=1;align=right;verticalAlign=bottom;" parent="1" connectable="0" vertex="1">
          <mxGeometry x="137.66440939277823" y="1364.5130289761485" as="geometry" />
        </mxCell>
        <mxCell id="ERFSE9Pxs8hPmbzX2arz-571" value="" style="shape=link;html=1;rounded=0;endArrow=none;endFill=0;entryX=0.5;entryY=1;entryDx=0;entryDy=0;exitX=0.5;exitY=0;exitDx=0;exitDy=0;" parent="1" source="ERFSE9Pxs8hPmbzX2arz-568" target="ERFSE9Pxs8hPmbzX2arz-569" edge="1">
          <mxGeometry relative="1" as="geometry">
            <mxPoint x="190" y="1524.5" as="sourcePoint" />
            <mxPoint x="350" y="1524.5" as="targetPoint" />
          </mxGeometry>
        </mxCell>
        <mxCell id="ERFSE9Pxs8hPmbzX2arz-572" value="1" style="resizable=0;html=1;align=right;verticalAlign=bottom;" parent="ERFSE9Pxs8hPmbzX2arz-571" connectable="0" vertex="1">
          <mxGeometry x="1" relative="1" as="geometry" />
        </mxCell>
        <mxCell id="ERFSE9Pxs8hPmbzX2arz-573" value="" style="endArrow=none;html=1;rounded=0;entryX=0.5;entryY=0;entryDx=0;entryDy=0;exitX=0;exitY=0.5;exitDx=0;exitDy=0;" parent="1" source="ERFSE9Pxs8hPmbzX2arz-168" target="ERFSE9Pxs8hPmbzX2arz-569" edge="1">
          <mxGeometry relative="1" as="geometry">
            <mxPoint x="1237.0000000000002" y="1220" as="sourcePoint" />
            <mxPoint x="227.5" y="1139.9999999999995" as="targetPoint" />
          </mxGeometry>
        </mxCell>
        <mxCell id="ERFSE9Pxs8hPmbzX2arz-574" value="1" style="resizable=0;html=1;align=right;verticalAlign=bottom;" parent="ERFSE9Pxs8hPmbzX2arz-573" connectable="0" vertex="1">
          <mxGeometry x="1" relative="1" as="geometry" />
        </mxCell>
        <mxCell id="ERFSE9Pxs8hPmbzX2arz-575" value="neglect" style="shape=ext;margin=3;double=1;whiteSpace=wrap;html=1;align=center;" parent="1" vertex="1">
          <mxGeometry x="1883" y="910" width="100" height="40" as="geometry" />
        </mxCell>
        <mxCell id="ERFSE9Pxs8hPmbzX2arz-576" value="neglect_data" style="shape=rhombus;double=1;perimeter=rhombusPerimeter;whiteSpace=wrap;html=1;align=center;" parent="1" vertex="1">
          <mxGeometry x="1710" y="705" width="120" height="60" as="geometry" />
        </mxCell>
        <mxCell id="ERFSE9Pxs8hPmbzX2arz-578" style="edgeStyle=none;rounded=0;orthogonalLoop=1;jettySize=auto;html=1;exitX=0.5;exitY=0;exitDx=0;exitDy=0;entryX=0.5;entryY=1;entryDx=0;entryDy=0;endArrow=none;endFill=0;" parent="1" source="ERFSE9Pxs8hPmbzX2arz-577" target="ERFSE9Pxs8hPmbzX2arz-439" edge="1">
          <mxGeometry relative="1" as="geometry" />
        </mxCell>
        <mxCell id="ERFSE9Pxs8hPmbzX2arz-577" value="status_" style="ellipse;whiteSpace=wrap;html=1;align=center;" parent="1" vertex="1">
          <mxGeometry x="1576.5" y="1820" width="55.5" height="25" as="geometry" />
        </mxCell>
        <mxCell id="ERFSE9Pxs8hPmbzX2arz-579" value="brought_ticket_detail" style="shape=rhombus;perimeter=rhombusPerimeter;whiteSpace=wrap;html=1;align=center;" parent="1" vertex="1">
          <mxGeometry x="1270" y="1816.79" width="120" height="60" as="geometry" />
        </mxCell>
        <mxCell id="ERFSE9Pxs8hPmbzX2arz-581" value="" style="shape=link;html=1;rounded=0;endArrow=none;endFill=0;entryX=0.5;entryY=0;entryDx=0;entryDy=0;exitX=0;exitY=0.5;exitDx=0;exitDy=0;" parent="1" source="ERFSE9Pxs8hPmbzX2arz-439" target="ERFSE9Pxs8hPmbzX2arz-579" edge="1">
          <mxGeometry relative="1" as="geometry">
            <mxPoint x="1506.5" y="1745" as="sourcePoint" />
            <mxPoint x="1356.5" y="1769" as="targetPoint" />
          </mxGeometry>
        </mxCell>
        <mxCell id="ERFSE9Pxs8hPmbzX2arz-582" value="N" style="resizable=0;html=1;align=right;verticalAlign=bottom;" parent="ERFSE9Pxs8hPmbzX2arz-581" connectable="0" vertex="1">
          <mxGeometry x="1" relative="1" as="geometry" />
        </mxCell>
        <mxCell id="ERFSE9Pxs8hPmbzX2arz-583" value="" style="endArrow=none;html=1;rounded=0;entryX=0;entryY=0.5;entryDx=0;entryDy=0;exitX=1;exitY=0.5;exitDx=0;exitDy=0;" parent="1" source="ERFSE9Pxs8hPmbzX2arz-326" target="ERFSE9Pxs8hPmbzX2arz-579" edge="1">
          <mxGeometry relative="1" as="geometry">
            <mxPoint x="1100" y="1921.08" as="sourcePoint" />
            <mxPoint x="1236.5" y="1769" as="targetPoint" />
          </mxGeometry>
        </mxCell>
        <mxCell id="ERFSE9Pxs8hPmbzX2arz-584" value="1" style="resizable=0;html=1;align=right;verticalAlign=bottom;" parent="ERFSE9Pxs8hPmbzX2arz-583" connectable="0" vertex="1">
          <mxGeometry x="1" relative="1" as="geometry" />
        </mxCell>
        <mxCell id="ERFSE9Pxs8hPmbzX2arz-585" value="Affiliation" style="shape=rhombus;perimeter=rhombusPerimeter;whiteSpace=wrap;html=1;align=center;" parent="1" vertex="1">
          <mxGeometry x="707" y="1463.75" width="120" height="60" as="geometry" />
        </mxCell>
        <mxCell id="ERFSE9Pxs8hPmbzX2arz-586" value="" style="endArrow=none;html=1;rounded=0;entryX=0;entryY=0.5;entryDx=0;entryDy=0;exitX=1;exitY=0.5;exitDx=0;exitDy=0;" parent="1" source="ERFSE9Pxs8hPmbzX2arz-347" target="ERFSE9Pxs8hPmbzX2arz-585" edge="1">
          <mxGeometry relative="1" as="geometry">
            <mxPoint x="534" y="1560" as="sourcePoint" />
            <mxPoint x="640" y="1560" as="targetPoint" />
          </mxGeometry>
        </mxCell>
        <mxCell id="ERFSE9Pxs8hPmbzX2arz-587" value="1" style="resizable=0;html=1;align=right;verticalAlign=bottom;" parent="ERFSE9Pxs8hPmbzX2arz-586" connectable="0" vertex="1">
          <mxGeometry x="1" relative="1" as="geometry" />
        </mxCell>
        <mxCell id="ERFSE9Pxs8hPmbzX2arz-588" value="" style="shape=link;html=1;rounded=0;endArrow=none;endFill=0;entryX=1;entryY=0.5;entryDx=0;entryDy=0;exitX=0;exitY=0;exitDx=0;exitDy=0;" parent="1" source="ERFSE9Pxs8hPmbzX2arz-368" target="ERFSE9Pxs8hPmbzX2arz-585" edge="1">
          <mxGeometry relative="1" as="geometry">
            <mxPoint x="855" y="1600" as="sourcePoint" />
            <mxPoint x="760" y="1560" as="targetPoint" />
          </mxGeometry>
        </mxCell>
        <mxCell id="ERFSE9Pxs8hPmbzX2arz-589" value="N" style="resizable=0;html=1;align=right;verticalAlign=bottom;" parent="ERFSE9Pxs8hPmbzX2arz-588" connectable="0" vertex="1">
          <mxGeometry x="1" relative="1" as="geometry" />
        </mxCell>
        <mxCell id="ERFSE9Pxs8hPmbzX2arz-591" style="edgeStyle=none;rounded=0;orthogonalLoop=1;jettySize=auto;html=1;exitX=0.5;exitY=0;exitDx=0;exitDy=0;entryX=0.5;entryY=1;entryDx=0;entryDy=0;endArrow=none;endFill=0;" parent="1" source="ERFSE9Pxs8hPmbzX2arz-590" target="ERFSE9Pxs8hPmbzX2arz-168" edge="1">
          <mxGeometry relative="1" as="geometry" />
        </mxCell>
        <mxCell id="ERFSE9Pxs8hPmbzX2arz-590" value="level" style="ellipse;whiteSpace=wrap;html=1;align=center;" parent="1" vertex="1">
          <mxGeometry x="1197" y="1325" width="57" height="25" as="geometry" />
        </mxCell>
        <mxCell id="YFFxUucmjkDDPqxgItea-1" value="leave_reason" style="whiteSpace=wrap;html=1;align=center;" parent="1" vertex="1">
          <mxGeometry x="2020" y="1107.5" width="100" height="40" as="geometry" />
        </mxCell>
        <mxCell id="YFFxUucmjkDDPqxgItea-2" value="&lt;u&gt;uid&lt;/u&gt;" style="ellipse;whiteSpace=wrap;html=1;align=center;" parent="1" vertex="1">
          <mxGeometry x="1980" y="1165" width="70" height="25" as="geometry" />
        </mxCell>
        <mxCell id="YFFxUucmjkDDPqxgItea-3" value="msg" style="ellipse;whiteSpace=wrap;html=1;align=center;" parent="1" vertex="1">
          <mxGeometry x="2080" y="1165" width="100" height="25" as="geometry" />
        </mxCell>
        <mxCell id="YFFxUucmjkDDPqxgItea-5" style="rounded=0;orthogonalLoop=1;jettySize=auto;html=1;exitX=0.5;exitY=0;exitDx=0;exitDy=0;entryX=0.5;entryY=1;entryDx=0;entryDy=0;endArrow=none;endFill=0;" parent="1" source="YFFxUucmjkDDPqxgItea-2" target="YFFxUucmjkDDPqxgItea-1" edge="1">
          <mxGeometry relative="1" as="geometry">
            <mxPoint x="1835" y="1352" as="sourcePoint" />
            <mxPoint x="2030" y="1300" as="targetPoint" />
          </mxGeometry>
        </mxCell>
        <mxCell id="YFFxUucmjkDDPqxgItea-7" style="rounded=0;orthogonalLoop=1;jettySize=auto;html=1;exitX=0.5;exitY=0;exitDx=0;exitDy=0;entryX=0.5;entryY=1;entryDx=0;entryDy=0;endArrow=none;endFill=0;" parent="1" source="YFFxUucmjkDDPqxgItea-3" target="YFFxUucmjkDDPqxgItea-1" edge="1">
          <mxGeometry relative="1" as="geometry">
            <mxPoint x="1845" y="1362" as="sourcePoint" />
            <mxPoint x="2040" y="1310" as="targetPoint" />
          </mxGeometry>
        </mxCell>
        <mxCell id="YFFxUucmjkDDPqxgItea-8" value="reason" style="shape=rhombus;perimeter=rhombusPerimeter;whiteSpace=wrap;html=1;align=center;" parent="1" vertex="1">
          <mxGeometry x="1722.5" y="1065" width="120" height="60" as="geometry" />
        </mxCell>
        <mxCell id="YFFxUucmjkDDPqxgItea-9" value="" style="endArrow=none;html=1;rounded=0;entryX=0;entryY=0.5;entryDx=0;entryDy=0;exitX=1;exitY=0.5;exitDx=0;exitDy=0;" parent="1" source="ERFSE9Pxs8hPmbzX2arz-168" target="YFFxUucmjkDDPqxgItea-8" edge="1">
          <mxGeometry relative="1" as="geometry">
            <mxPoint x="1520" y="1020" as="sourcePoint" />
            <mxPoint x="1680" y="1020" as="targetPoint" />
          </mxGeometry>
        </mxCell>
        <mxCell id="YFFxUucmjkDDPqxgItea-10" value="N" style="resizable=0;html=1;whiteSpace=wrap;align=right;verticalAlign=bottom;" parent="YFFxUucmjkDDPqxgItea-9" connectable="0" vertex="1">
          <mxGeometry x="1" relative="1" as="geometry" />
        </mxCell>
        <mxCell id="YFFxUucmjkDDPqxgItea-11" value="" style="endArrow=none;html=1;rounded=0;entryX=1;entryY=0.5;entryDx=0;entryDy=0;exitX=0;exitY=0.5;exitDx=0;exitDy=0;" parent="1" source="YFFxUucmjkDDPqxgItea-1" target="YFFxUucmjkDDPqxgItea-8" edge="1">
          <mxGeometry relative="1" as="geometry">
            <mxPoint x="1520" y="1020" as="sourcePoint" />
            <mxPoint x="1680" y="1020" as="targetPoint" />
          </mxGeometry>
        </mxCell>
        <mxCell id="YFFxUucmjkDDPqxgItea-12" value="1" style="resizable=0;html=1;whiteSpace=wrap;align=right;verticalAlign=bottom;" parent="YFFxUucmjkDDPqxgItea-11" connectable="0" vertex="1">
          <mxGeometry x="1" relative="1" as="geometry" />
        </mxCell>
        <mxCell id="YFFxUucmjkDDPqxgItea-13" value="created_date" style="ellipse;whiteSpace=wrap;html=1;align=center;" parent="1" vertex="1">
          <mxGeometry x="1710" y="1137.5" width="100" height="25" as="geometry" />
        </mxCell>
        <mxCell id="YFFxUucmjkDDPqxgItea-15" style="edgeStyle=none;rounded=0;orthogonalLoop=1;jettySize=auto;html=1;exitX=0.5;exitY=0;exitDx=0;exitDy=0;entryX=0.5;entryY=1;entryDx=0;entryDy=0;endArrow=none;endFill=0;" parent="1" source="YFFxUucmjkDDPqxgItea-13" target="YFFxUucmjkDDPqxgItea-8" edge="1">
          <mxGeometry relative="1" as="geometry">
            <mxPoint x="1733" y="1239" as="targetPoint" />
            <mxPoint x="1680" y="1260" as="sourcePoint" />
          </mxGeometry>
        </mxCell>
        <mxCell id="u7Q7z9aPvSU9TGUr_CwC-1" value="ticket_detail" style="shape=rhombus;perimeter=rhombusPerimeter;whiteSpace=wrap;html=1;align=center;" vertex="1" parent="1">
          <mxGeometry x="410.5" y="1673.42" width="120" height="60" as="geometry" />
        </mxCell>
        <mxCell id="u7Q7z9aPvSU9TGUr_CwC-4" value="" style="endArrow=none;html=1;rounded=0;entryX=0;entryY=0.5;entryDx=0;entryDy=0;exitX=0.5;exitY=0;exitDx=0;exitDy=0;" edge="1" parent="1" source="ERFSE9Pxs8hPmbzX2arz-383" target="u7Q7z9aPvSU9TGUr_CwC-1">
          <mxGeometry relative="1" as="geometry">
            <mxPoint x="434" y="1560" as="sourcePoint" />
            <mxPoint x="361" y="1734" as="targetPoint" />
          </mxGeometry>
        </mxCell>
        <mxCell id="u7Q7z9aPvSU9TGUr_CwC-5" value="1" style="resizable=0;html=1;align=right;verticalAlign=bottom;" connectable="0" vertex="1" parent="u7Q7z9aPvSU9TGUr_CwC-4">
          <mxGeometry x="1" relative="1" as="geometry" />
        </mxCell>
        <mxCell id="u7Q7z9aPvSU9TGUr_CwC-6" value="" style="endArrow=none;html=1;rounded=0;entryX=1;entryY=0.5;entryDx=0;entryDy=0;exitX=0.5;exitY=1;exitDx=0;exitDy=0;" edge="1" parent="1" source="ERFSE9Pxs8hPmbzX2arz-326" target="u7Q7z9aPvSU9TGUr_CwC-1">
          <mxGeometry relative="1" as="geometry">
            <mxPoint x="444" y="1570" as="sourcePoint" />
            <mxPoint x="371" y="1744" as="targetPoint" />
          </mxGeometry>
        </mxCell>
        <mxCell id="u7Q7z9aPvSU9TGUr_CwC-7" value="1" style="resizable=0;html=1;align=right;verticalAlign=bottom;" connectable="0" vertex="1" parent="u7Q7z9aPvSU9TGUr_CwC-6">
          <mxGeometry x="1" relative="1" as="geometry" />
        </mxCell>
        <mxCell id="u7Q7z9aPvSU9TGUr_CwC-8" value="" style="endArrow=none;html=1;rounded=0;entryX=1;entryY=0.5;entryDx=0;entryDy=0;exitX=0;exitY=0.5;exitDx=0;exitDy=0;" edge="1" parent="1" source="ERFSE9Pxs8hPmbzX2arz-368" target="u7Q7z9aPvSU9TGUr_CwC-1">
          <mxGeometry relative="1" as="geometry">
            <mxPoint x="580" y="1730" as="sourcePoint" />
            <mxPoint x="381" y="1754" as="targetPoint" />
          </mxGeometry>
        </mxCell>
        <mxCell id="u7Q7z9aPvSU9TGUr_CwC-9" value="1" style="resizable=0;html=1;align=right;verticalAlign=bottom;" connectable="0" vertex="1" parent="u7Q7z9aPvSU9TGUr_CwC-8">
          <mxGeometry x="1" relative="1" as="geometry" />
        </mxCell>
      </root>
    </mxGraphModel>
  </diagram>
</mxfile>
